G04*
G04 #@! TF.GenerationSoftware,Altium Limited,Altium Designer,22.2.1 (43)*
G04*
G04 Layer_Physical_Order=1*
G04 Layer_Color=255*
%FSLAX25Y25*%
%MOIN*%
G70*
G04*
G04 #@! TF.SameCoordinates,3B3E58CF-1C3C-4CAC-96B8-8F734E900E2C*
G04*
G04*
G04 #@! TF.FilePolarity,Positive*
G04*
G01*
G75*
%ADD12R,0.08071X0.04331*%
%ADD13R,0.05151X0.03567*%
%ADD14R,0.02402X0.04961*%
%ADD15R,0.05733X0.04940*%
%ADD17C,0.05563*%
%ADD22C,0.06181*%
%ADD23R,0.06181X0.06181*%
%ADD24R,0.06181X0.06181*%
%ADD25C,0.06299*%
%ADD26R,0.06299X0.06299*%
%ADD29O,0.10039X0.01575*%
%ADD30C,0.01575*%
%ADD31C,0.01181*%
%ADD32C,0.01000*%
%ADD33R,0.06102X0.06102*%
%ADD34C,0.06102*%
%ADD35C,0.07677*%
%ADD36R,0.07677X0.07677*%
%ADD37C,0.18898*%
%ADD38C,0.01575*%
G36*
X157480Y0D02*
X0D01*
Y157480D01*
X157480D01*
Y0D01*
D02*
G37*
%LPC*%
G36*
X75563Y151936D02*
X71626D01*
X71469Y151904D01*
X71309Y151881D01*
X71289Y151868D01*
X71265Y151864D01*
X71131Y151774D01*
X70993Y151692D01*
X65875Y147066D01*
X65861Y147047D01*
X65841Y147033D01*
X65751Y146899D01*
X65656Y146771D01*
X65650Y146747D01*
X65636Y146727D01*
X65605Y146570D01*
X65566Y146414D01*
X65119Y146242D01*
X62047D01*
Y147587D01*
X52126D01*
Y146242D01*
X51189D01*
X50521Y146109D01*
X49954Y145731D01*
X12494Y108270D01*
X12115Y107704D01*
X11982Y107035D01*
Y94693D01*
X8964D01*
Y85165D01*
X16023D01*
X18212Y82976D01*
X18778Y82597D01*
X19447Y82464D01*
X33984D01*
Y80195D01*
X42016D01*
Y88226D01*
X33984D01*
Y85957D01*
X20170D01*
X18492Y87635D01*
Y94693D01*
X15474D01*
Y106312D01*
X51626Y142464D01*
X52126Y142256D01*
Y141405D01*
X62047D01*
Y142750D01*
X65565D01*
Y141937D01*
X65636Y141576D01*
X65841Y141270D01*
X66147Y141066D01*
X66508Y140994D01*
X71232D01*
X71232Y140994D01*
X71593Y141066D01*
X71899Y141270D01*
X71899Y141270D01*
X76230Y145601D01*
X76434Y145907D01*
X76506Y146268D01*
X76506Y146268D01*
Y150992D01*
X76434Y151353D01*
X76230Y151659D01*
X75924Y151864D01*
X75563Y151936D01*
D02*
G37*
G36*
X87866D02*
X83437D01*
X83076Y151864D01*
X82770Y151659D01*
X82565Y151353D01*
X82494Y150992D01*
Y146268D01*
X82494Y146268D01*
X82565Y145907D01*
X82770Y145601D01*
X82770Y145601D01*
X87101Y141270D01*
X87407Y141066D01*
X87768Y140994D01*
X87768Y140994D01*
X90787D01*
X91960Y139821D01*
X92526Y139442D01*
X93194Y139309D01*
X95000D01*
Y138347D01*
X102000D01*
Y139309D01*
X104769D01*
Y136691D01*
X102000D01*
Y137653D01*
X95000D01*
Y132236D01*
X96955D01*
Y119664D01*
X96493Y119473D01*
X91703Y124262D01*
X91202Y124597D01*
X90610Y124715D01*
X78258D01*
X76506Y126467D01*
Y129732D01*
X76506Y129732D01*
X76434Y130093D01*
X76230Y130399D01*
X76230Y130399D01*
X71899Y134730D01*
X71593Y134934D01*
X71232Y135006D01*
X71232Y135006D01*
X66508D01*
X66147Y134934D01*
X65841Y134730D01*
X65636Y134424D01*
X65565Y134063D01*
Y130126D01*
X65596Y129969D01*
X65619Y129809D01*
X65632Y129789D01*
X65636Y129765D01*
X65726Y129631D01*
X65808Y129493D01*
X70434Y124375D01*
X70453Y124361D01*
X70467Y124341D01*
X70600Y124251D01*
X70729Y124156D01*
X70753Y124150D01*
X70773Y124136D01*
X70930Y124105D01*
X71086Y124066D01*
X71110Y124069D01*
X71134Y124065D01*
X74537D01*
X76525Y122076D01*
X77027Y121741D01*
X77618Y121624D01*
X77618Y121624D01*
X79428D01*
X79542Y121350D01*
X79570Y121124D01*
X78769Y120323D01*
X76442D01*
Y117802D01*
X75000D01*
Y118764D01*
X68000D01*
Y113347D01*
X75000D01*
Y114309D01*
X76442D01*
Y113512D01*
X80694D01*
Y117877D01*
X81801Y118984D01*
X81805Y118989D01*
X82258Y119443D01*
X83922D01*
Y113512D01*
X88174D01*
Y118436D01*
X88636Y118627D01*
X90187Y117076D01*
Y95232D01*
X90020Y94829D01*
Y94147D01*
X90280Y93518D01*
X90762Y93036D01*
X91392Y92776D01*
X92073D01*
X92702Y93036D01*
X93184Y93518D01*
X93445Y94147D01*
Y94829D01*
X93278Y95232D01*
Y117609D01*
X93536Y117776D01*
X93765Y117829D01*
X94517Y117076D01*
Y89073D01*
X94017Y89024D01*
X93993Y89145D01*
X93598Y89736D01*
X93007Y90131D01*
X92310Y90270D01*
X88577D01*
Y88448D01*
X88077D01*
Y87948D01*
X82122D01*
X82161Y87750D01*
X82556Y87159D01*
X82565Y87115D01*
X82232Y86616D01*
X82099Y85948D01*
X82232Y85280D01*
X82610Y84713D01*
Y84683D01*
X82232Y84116D01*
X82099Y83448D01*
X82232Y82780D01*
X82610Y82213D01*
Y82183D01*
X82232Y81616D01*
X82099Y80948D01*
X82232Y80280D01*
X82610Y79713D01*
Y79682D01*
X82232Y79116D01*
X82099Y78448D01*
X82232Y77780D01*
X82610Y77213D01*
Y77183D01*
X82232Y76616D01*
X82099Y75948D01*
X82232Y75280D01*
X82610Y74713D01*
Y74682D01*
X82232Y74116D01*
X82099Y73448D01*
X82232Y72780D01*
X82565Y72281D01*
X82556Y72237D01*
X82161Y71645D01*
X82122Y71448D01*
X88077D01*
X94072D01*
X94377Y71902D01*
X99432D01*
X100023Y72020D01*
X100525Y72355D01*
X106154Y77984D01*
X116889D01*
X117018Y77501D01*
X116988Y77484D01*
X116227Y76722D01*
X115688Y75789D01*
X115409Y74749D01*
Y74711D01*
X119500D01*
X123591D01*
Y74749D01*
X123312Y75789D01*
X122773Y76722D01*
X122012Y77484D01*
X121982Y77501D01*
X122111Y77984D01*
X144097D01*
X144688Y78102D01*
X145189Y78437D01*
X152274Y85521D01*
X152609Y86023D01*
X152727Y86614D01*
X152726Y86614D01*
Y96457D01*
X152609Y97048D01*
X152274Y97549D01*
X147187Y102636D01*
Y105502D01*
X147687Y105636D01*
X147758Y105512D01*
X148512Y104758D01*
X149436Y104225D01*
X150467Y103949D01*
X150500D01*
Y108000D01*
Y112051D01*
X150467D01*
X149436Y111775D01*
X148512Y111242D01*
X147758Y110487D01*
X147687Y110364D01*
X147187Y110498D01*
Y114435D01*
X147070Y115026D01*
X146734Y115528D01*
X144709Y117554D01*
X144976Y118553D01*
Y119600D01*
X144705Y120612D01*
X144182Y121518D01*
X143442Y122259D01*
X142535Y122782D01*
X141524Y123053D01*
X140477D01*
X139465Y122782D01*
X138558Y122259D01*
X137818Y121518D01*
X137295Y120612D01*
X137024Y119600D01*
Y118553D01*
X137295Y117542D01*
X137818Y116635D01*
X138558Y115895D01*
X139465Y115371D01*
X140477Y115100D01*
X141524D01*
X142523Y115368D01*
X144096Y113795D01*
Y111180D01*
X143634Y110989D01*
X143442Y111182D01*
X142535Y111705D01*
X141524Y111976D01*
X140477D01*
X139465Y111705D01*
X138558Y111182D01*
X137818Y110442D01*
X137295Y109535D01*
X137024Y108523D01*
Y107476D01*
X137291Y106477D01*
X135438Y104624D01*
X134976Y104815D01*
Y111976D01*
X132746D01*
Y115100D01*
X134976D01*
Y123053D01*
X127024D01*
Y115100D01*
X129254D01*
Y111976D01*
X127024D01*
Y104024D01*
X134185D01*
X134376Y103562D01*
X123863Y93049D01*
X113944D01*
X113353Y92931D01*
X112851Y92596D01*
X105982Y85727D01*
X105482Y85934D01*
Y115108D01*
X118906Y128531D01*
X127024D01*
Y126100D01*
X134976D01*
Y134053D01*
X127024D01*
Y131622D01*
X122523D01*
Y137856D01*
Y144646D01*
X114940D01*
Y142802D01*
X112352D01*
Y144646D01*
X104769D01*
Y142802D01*
X102000D01*
Y143764D01*
X95000D01*
Y142802D01*
X93918D01*
X93436Y143284D01*
Y145874D01*
X93404Y146031D01*
X93381Y146191D01*
X93368Y146211D01*
X93364Y146235D01*
X93274Y146369D01*
X93192Y146507D01*
X88566Y151625D01*
X88547Y151639D01*
X88533Y151659D01*
X88399Y151749D01*
X88271Y151844D01*
X88247Y151850D01*
X88227Y151864D01*
X88070Y151895D01*
X87914Y151934D01*
X87890Y151931D01*
X87866Y151936D01*
D02*
G37*
G36*
X146486Y156043D02*
X144853D01*
X143240Y155788D01*
X141687Y155283D01*
X140232Y154542D01*
X138911Y153582D01*
X137756Y152427D01*
X136797Y151107D01*
X136055Y149652D01*
X135551Y148099D01*
X135295Y146486D01*
Y144853D01*
X135551Y143240D01*
X136055Y141687D01*
X136797Y140232D01*
X137756Y138911D01*
X138911Y137756D01*
X140232Y136797D01*
X141687Y136055D01*
X143240Y135551D01*
X144853Y135295D01*
X146486D01*
X148099Y135551D01*
X149652Y136055D01*
X151107Y136797D01*
X152427Y137756D01*
X153582Y138911D01*
X154542Y140232D01*
X155283Y141687D01*
X155788Y143240D01*
X156043Y144853D01*
Y146486D01*
X155788Y148099D01*
X155283Y149652D01*
X154542Y151107D01*
X153582Y152427D01*
X152427Y153582D01*
X151107Y154542D01*
X149652Y155283D01*
X148099Y155788D01*
X146486Y156043D01*
D02*
G37*
G36*
X12628D02*
X10995D01*
X9382Y155788D01*
X7829Y155283D01*
X6374Y154542D01*
X5053Y153582D01*
X3898Y152427D01*
X2938Y151107D01*
X2197Y149652D01*
X1692Y148099D01*
X1437Y146486D01*
Y144853D01*
X1692Y143240D01*
X2197Y141687D01*
X2938Y140232D01*
X3898Y138911D01*
X5053Y137756D01*
X6374Y136797D01*
X7829Y136055D01*
X9382Y135551D01*
X10995Y135295D01*
X12628D01*
X14240Y135551D01*
X15793Y136055D01*
X17248Y136797D01*
X18569Y137756D01*
X19724Y138911D01*
X20684Y140232D01*
X21425Y141687D01*
X21930Y143240D01*
X22185Y144853D01*
Y146486D01*
X21930Y148099D01*
X21425Y149652D01*
X20684Y151107D01*
X19724Y152427D01*
X18569Y153582D01*
X17248Y154542D01*
X15793Y155283D01*
X14240Y155788D01*
X12628Y156043D01*
D02*
G37*
G36*
X62122Y134669D02*
X57587D01*
Y132004D01*
X62122D01*
Y134669D01*
D02*
G37*
G36*
X56587D02*
X52051D01*
Y132004D01*
X56587D01*
Y134669D01*
D02*
G37*
G36*
X151533Y134128D02*
X151500D01*
Y130577D01*
X155051D01*
Y130610D01*
X154775Y131641D01*
X154242Y132564D01*
X153488Y133319D01*
X152564Y133852D01*
X151533Y134128D01*
D02*
G37*
G36*
X150500D02*
X150467D01*
X149436Y133852D01*
X148512Y133319D01*
X147758Y132564D01*
X147225Y131641D01*
X146949Y130610D01*
Y130577D01*
X150500D01*
Y134128D01*
D02*
G37*
G36*
X86998Y133294D02*
X86399Y133133D01*
X85537Y132635D01*
X84833Y131931D01*
X84335Y131069D01*
X84174Y130470D01*
X86998Y133294D01*
D02*
G37*
G36*
X62122Y131004D02*
X57587D01*
Y128339D01*
X62122D01*
Y131004D01*
D02*
G37*
G36*
X56587D02*
X52051D01*
Y128339D01*
X56587D01*
Y131004D01*
D02*
G37*
G36*
X141524Y134053D02*
X140477D01*
X139465Y133782D01*
X138558Y133259D01*
X137818Y132518D01*
X137295Y131612D01*
X137024Y130600D01*
Y129553D01*
X137295Y128542D01*
X137818Y127635D01*
X138558Y126895D01*
X139465Y126371D01*
X140477Y126100D01*
X141524D01*
X142535Y126371D01*
X143442Y126895D01*
X144182Y127635D01*
X144705Y128542D01*
X144976Y129553D01*
Y130600D01*
X144705Y131612D01*
X144182Y132518D01*
X143442Y133259D01*
X142535Y133782D01*
X141524Y134053D01*
D02*
G37*
G36*
X155051Y129577D02*
X151500D01*
Y126026D01*
X151533D01*
X152564Y126302D01*
X153488Y126835D01*
X154242Y127589D01*
X154775Y128513D01*
X155051Y129543D01*
Y129577D01*
D02*
G37*
G36*
X150500D02*
X146949D01*
Y129543D01*
X147225Y128513D01*
X147758Y127589D01*
X148512Y126835D01*
X149436Y126302D01*
X150467Y126026D01*
X150500D01*
Y129577D01*
D02*
G37*
G36*
X91640Y129109D02*
X91573D01*
X88687Y125916D01*
X89319Y126085D01*
X90181Y126583D01*
X90885Y127287D01*
X91383Y128149D01*
X91640Y129109D01*
D02*
G37*
G36*
X151533Y123128D02*
X151500D01*
Y119577D01*
X155051D01*
Y119610D01*
X154775Y120641D01*
X154242Y121564D01*
X153488Y122319D01*
X152564Y122852D01*
X151533Y123128D01*
D02*
G37*
G36*
X150500D02*
X150467D01*
X149436Y122852D01*
X148512Y122319D01*
X147758Y121564D01*
X147225Y120641D01*
X146949Y119610D01*
Y119577D01*
X150500D01*
Y123128D01*
D02*
G37*
G36*
X155051Y118577D02*
X151500D01*
Y115026D01*
X151533D01*
X152564Y115302D01*
X153488Y115835D01*
X154242Y116589D01*
X154775Y117513D01*
X155051Y118544D01*
Y118577D01*
D02*
G37*
G36*
X150500D02*
X146949D01*
Y118544D01*
X147225Y117513D01*
X147758Y116589D01*
X148512Y115835D01*
X149436Y115302D01*
X150467Y115026D01*
X150500D01*
Y118577D01*
D02*
G37*
G36*
X151533Y112051D02*
X151500D01*
Y108500D01*
X155051D01*
Y108533D01*
X154775Y109564D01*
X154242Y110487D01*
X153488Y111242D01*
X152564Y111775D01*
X151533Y112051D01*
D02*
G37*
G36*
X155051Y107500D02*
X151500D01*
Y103949D01*
X151533D01*
X152564Y104225D01*
X153488Y104758D01*
X154242Y105512D01*
X154775Y106436D01*
X155051Y107467D01*
Y107500D01*
D02*
G37*
G36*
X60866Y105221D02*
X57500D01*
Y102251D01*
X60866D01*
Y105221D01*
D02*
G37*
G36*
X56500D02*
X53133D01*
Y102251D01*
X56500D01*
Y105221D01*
D02*
G37*
G36*
X75000Y112653D02*
X68000D01*
Y107236D01*
X75000D01*
Y108198D01*
X80182D01*
Y105677D01*
X80975D01*
Y102654D01*
X80287Y101966D01*
X79758Y101050D01*
X79484Y100029D01*
Y98971D01*
X79758Y97950D01*
X80287Y97034D01*
X81034Y96287D01*
X81950Y95758D01*
X82971Y95484D01*
X84029D01*
X85050Y95758D01*
X85966Y96287D01*
X86713Y97034D01*
X87242Y97950D01*
X87516Y98971D01*
Y100029D01*
X87242Y101050D01*
X86713Y101966D01*
X85966Y102713D01*
X85050Y103242D01*
X84468Y103398D01*
Y108669D01*
X84434Y108838D01*
Y112488D01*
X80182D01*
Y111691D01*
X75000D01*
Y112653D01*
D02*
G37*
G36*
X77516Y103516D02*
X69484D01*
Y95484D01*
X71754D01*
Y94341D01*
X71887Y93673D01*
X72265Y93107D01*
X74632Y90740D01*
Y90252D01*
X74132Y89985D01*
X73913Y90131D01*
X73215Y90270D01*
X69483D01*
Y88448D01*
X68983D01*
Y87948D01*
X62992D01*
X62975Y87920D01*
X62436Y87781D01*
X58863Y91354D01*
X59070Y91854D01*
X60792D01*
Y98281D01*
X60866D01*
Y101251D01*
X57000D01*
X53133D01*
Y98281D01*
X53208D01*
Y91854D01*
X55454D01*
Y91031D01*
X55572Y90440D01*
X55907Y89939D01*
X60991Y84855D01*
X61492Y84520D01*
X62084Y84402D01*
X62773D01*
X63095Y83902D01*
X63004Y83448D01*
X63113Y82901D01*
X62835Y82401D01*
X52757D01*
X52201Y82290D01*
X51729Y81975D01*
X50994Y81240D01*
X50840D01*
X50211Y80979D01*
X49729Y80498D01*
X49468Y79868D01*
Y79187D01*
X49729Y78557D01*
X50211Y78076D01*
X50840Y77815D01*
X51522D01*
X51831Y77402D01*
Y77218D01*
X52091Y76589D01*
X52573Y76107D01*
X53203Y75846D01*
X53884D01*
X54087Y75930D01*
X54587Y75644D01*
X54847Y75014D01*
X55329Y74532D01*
X55733Y74365D01*
X57743Y72355D01*
X57743Y72355D01*
X58244Y72020D01*
X58836Y71902D01*
X58836Y71902D01*
X62683D01*
X62988Y71448D01*
X68983D01*
X74938D01*
X74899Y71645D01*
X74504Y72237D01*
X74495Y72281D01*
X74828Y72780D01*
X74961Y73448D01*
X74828Y74116D01*
X74450Y74682D01*
Y74713D01*
X74828Y75280D01*
X74961Y75948D01*
X74828Y76616D01*
X74450Y77183D01*
Y77213D01*
X74828Y77780D01*
X74961Y78448D01*
X74828Y79116D01*
X74450Y79682D01*
Y79713D01*
X74828Y80280D01*
X74961Y80948D01*
X74911Y81202D01*
X75321Y81702D01*
X75455D01*
X76124Y81835D01*
X76690Y82213D01*
X77613Y83136D01*
X77991Y83702D01*
X78124Y84370D01*
Y91464D01*
X77991Y92132D01*
X77613Y92698D01*
X75327Y94984D01*
X75440Y95484D01*
X77516D01*
Y103516D01*
D02*
G37*
G36*
X68483Y90270D02*
X64751D01*
X64053Y90131D01*
X63462Y89736D01*
X63067Y89145D01*
X63028Y88948D01*
X68483D01*
Y90270D01*
D02*
G37*
G36*
X87577D02*
X83845D01*
X83148Y90131D01*
X82556Y89736D01*
X82161Y89145D01*
X82122Y88948D01*
X87577D01*
Y90270D01*
D02*
G37*
G36*
X38539Y78301D02*
X38500D01*
Y74711D01*
X42091D01*
Y74749D01*
X41812Y75789D01*
X41273Y76722D01*
X40512Y77484D01*
X39579Y78022D01*
X38539Y78301D01*
D02*
G37*
G36*
X37500D02*
X37462D01*
X36421Y78022D01*
X35488Y77484D01*
X34727Y76722D01*
X34188Y75789D01*
X33909Y74749D01*
Y74711D01*
X37500D01*
Y78301D01*
D02*
G37*
G36*
X14365Y75083D02*
X14228D01*
Y70744D01*
X18567D01*
Y70881D01*
X18237Y72112D01*
X17600Y73215D01*
X16699Y74116D01*
X15596Y74753D01*
X14365Y75083D01*
D02*
G37*
G36*
X13228D02*
X13091D01*
X11861Y74753D01*
X10757Y74116D01*
X9856Y73215D01*
X9219Y72112D01*
X8890Y70881D01*
Y70744D01*
X13228D01*
Y75083D01*
D02*
G37*
G36*
X148610Y75083D02*
X144272D01*
Y70744D01*
X148610D01*
Y75083D01*
D02*
G37*
G36*
X143272D02*
X138933D01*
Y70744D01*
X143272D01*
Y75083D01*
D02*
G37*
G36*
X123591Y73711D02*
X120000D01*
Y70120D01*
X120038D01*
X121079Y70399D01*
X122012Y70937D01*
X122773Y71699D01*
X123312Y72632D01*
X123591Y73672D01*
Y73711D01*
D02*
G37*
G36*
X119000D02*
X115409D01*
Y73672D01*
X115688Y72632D01*
X116227Y71699D01*
X116988Y70937D01*
X117921Y70399D01*
X118962Y70120D01*
X119000D01*
Y73711D01*
D02*
G37*
G36*
X42091D02*
X38500D01*
Y70120D01*
X38539D01*
X39579Y70399D01*
X40512Y70937D01*
X41273Y71699D01*
X41812Y72632D01*
X42091Y73672D01*
Y73711D01*
D02*
G37*
G36*
X37500D02*
X33909D01*
Y73672D01*
X34188Y72632D01*
X34727Y71699D01*
X35488Y70937D01*
X36421Y70399D01*
X37462Y70120D01*
X37500D01*
Y73711D01*
D02*
G37*
G36*
X94033Y70448D02*
X88577D01*
Y69125D01*
X92310D01*
X93007Y69264D01*
X93598Y69659D01*
X93993Y70250D01*
X94033Y70448D01*
D02*
G37*
G36*
X87577D02*
X82122D01*
X82161Y70250D01*
X82556Y69659D01*
X83148Y69264D01*
X83845Y69125D01*
X87577D01*
Y70448D01*
D02*
G37*
G36*
X74938Y70448D02*
X69483D01*
Y69125D01*
X73215D01*
X73913Y69264D01*
X74504Y69659D01*
X74899Y70250D01*
X74938Y70448D01*
D02*
G37*
G36*
X68483D02*
X63028D01*
X63067Y70250D01*
X63462Y69659D01*
X64053Y69264D01*
X64751Y69125D01*
X68483D01*
Y70448D01*
D02*
G37*
G36*
X18567Y69744D02*
X14228D01*
Y65406D01*
X14365D01*
X15596Y65735D01*
X16699Y66372D01*
X17600Y67273D01*
X18237Y68376D01*
X18567Y69607D01*
Y69744D01*
D02*
G37*
G36*
X13228D02*
X8890D01*
Y69607D01*
X9219Y68376D01*
X9856Y67273D01*
X10757Y66372D01*
X11861Y65735D01*
X13091Y65406D01*
X13228D01*
Y69744D01*
D02*
G37*
G36*
X148610Y69744D02*
X144272D01*
Y65406D01*
X148610D01*
Y69744D01*
D02*
G37*
G36*
X143272D02*
X138933D01*
Y65406D01*
X143272D01*
Y69744D01*
D02*
G37*
G36*
X103867Y66970D02*
X100500D01*
Y64000D01*
X103867D01*
Y66970D01*
D02*
G37*
G36*
X99500D02*
X96134D01*
Y64000D01*
X99500D01*
Y66970D01*
D02*
G37*
G36*
X82213Y66856D02*
X78847D01*
Y63886D01*
X82213D01*
Y66856D01*
D02*
G37*
G36*
X60953D02*
X57587D01*
Y63886D01*
X60953D01*
Y66856D01*
D02*
G37*
G36*
X56587D02*
X53220D01*
Y63886D01*
X56587D01*
Y66856D01*
D02*
G37*
G36*
X77846D02*
X74480D01*
Y63886D01*
X77846D01*
Y66856D01*
D02*
G37*
G36*
X140150Y54992D02*
X136500D01*
Y51342D01*
X140150D01*
Y54992D01*
D02*
G37*
G36*
X135500D02*
X131850D01*
Y51342D01*
X135500D01*
Y54992D01*
D02*
G37*
G36*
X103867Y63000D02*
X100000D01*
X96134D01*
Y60030D01*
X96208D01*
Y56072D01*
X95222Y55086D01*
X94844Y54519D01*
X94710Y53851D01*
Y52326D01*
X91500D01*
Y46908D01*
X95841D01*
X95988Y46715D01*
X95740Y46215D01*
X91500D01*
Y40797D01*
X94774D01*
Y40033D01*
X94394D01*
Y33222D01*
X94774D01*
Y21480D01*
X94906Y20812D01*
X95285Y20246D01*
X96484Y19046D01*
Y13484D01*
X104516D01*
Y21516D01*
X98954D01*
X98266Y22204D01*
Y25387D01*
X102386D01*
Y32198D01*
X102006D01*
Y33222D01*
X106126D01*
Y40033D01*
X105746D01*
Y40797D01*
X108950D01*
Y42053D01*
X110645D01*
X111272Y41793D01*
X111953D01*
X112582Y42054D01*
X113064Y42536D01*
X113325Y43165D01*
Y43847D01*
X113064Y44476D01*
X112582Y44958D01*
X111953Y45219D01*
X111272D01*
X110645Y44959D01*
X108950D01*
Y46215D01*
X101949D01*
X101949Y46215D01*
Y46215D01*
X101502Y46372D01*
X101495Y46383D01*
X98500Y49377D01*
Y52326D01*
X98203D01*
Y53128D01*
X98678Y53603D01*
X101322D01*
X101916Y53009D01*
Y50613D01*
X101949Y50444D01*
Y46908D01*
X108950D01*
Y52326D01*
X105408D01*
Y53733D01*
X105275Y54401D01*
X104897Y54967D01*
X103792Y56072D01*
Y60030D01*
X103867D01*
Y63000D01*
D02*
G37*
G36*
X82213Y62886D02*
X78347D01*
X74480D01*
Y59916D01*
X74555D01*
Y55957D01*
X73655Y55058D01*
X73277Y54491D01*
X73144Y53823D01*
Y52211D01*
X69896D01*
Y46794D01*
X74237D01*
X74385Y46600D01*
X74137Y46101D01*
X69896D01*
Y40683D01*
X73360D01*
Y39919D01*
X72980D01*
Y33108D01*
X73360D01*
Y21126D01*
X73493Y20458D01*
X73872Y19891D01*
X74831Y18932D01*
Y13370D01*
X82862D01*
Y21402D01*
X77300D01*
X76852Y21849D01*
Y25273D01*
X80972D01*
Y32084D01*
X80593D01*
Y33108D01*
X84713D01*
Y39919D01*
X84333D01*
Y40683D01*
X87347D01*
Y41551D01*
X87539Y41679D01*
X88221D01*
X88850Y41940D01*
X89332Y42422D01*
X89592Y43051D01*
Y43732D01*
X89332Y44362D01*
X88850Y44844D01*
X88221Y45104D01*
X87539D01*
X87347Y45233D01*
Y46101D01*
X80346D01*
X80346Y46101D01*
X79909Y46252D01*
X76897Y49263D01*
Y52211D01*
X76636D01*
Y53100D01*
X77025Y53489D01*
X79669D01*
X80313Y52845D01*
Y50499D01*
X80346Y50330D01*
Y46794D01*
X87347D01*
Y52211D01*
X83805D01*
Y53568D01*
X83672Y54237D01*
X83293Y54803D01*
X82138Y55958D01*
Y59916D01*
X82213D01*
Y62886D01*
D02*
G37*
G36*
X60953D02*
X57087D01*
X53220D01*
Y59916D01*
X53295D01*
Y55958D01*
X52549Y55212D01*
X52170Y54646D01*
X52037Y53977D01*
Y52211D01*
X48636D01*
Y46794D01*
X52977D01*
X53125Y46600D01*
X52877Y46101D01*
X48636D01*
Y40683D01*
X52100D01*
Y39919D01*
X51720D01*
Y33108D01*
X52100D01*
Y21126D01*
X52233Y20458D01*
X52612Y19891D01*
X53571Y18932D01*
Y13370D01*
X61602D01*
Y21402D01*
X56040D01*
X55593Y21849D01*
Y25273D01*
X59713D01*
Y32084D01*
X59333D01*
Y33108D01*
X63453D01*
Y39919D01*
X63073D01*
Y40683D01*
X66148D01*
Y41447D01*
X66563Y41725D01*
X66673Y41679D01*
X67354D01*
X67984Y41940D01*
X68466Y42422D01*
X68726Y43051D01*
Y43732D01*
X68466Y44362D01*
X67984Y44844D01*
X67354Y45104D01*
X66673D01*
X66563Y45059D01*
X66148Y45337D01*
Y46101D01*
X59147D01*
X59147Y46101D01*
X58692Y46209D01*
X55637Y49263D01*
Y52211D01*
X55530D01*
Y53254D01*
X55764Y53489D01*
X58409D01*
X59113Y52785D01*
Y50499D01*
X59147Y50330D01*
Y46794D01*
X66148D01*
Y52211D01*
X62605D01*
Y53508D01*
X62472Y54176D01*
X62094Y54742D01*
X60878Y55958D01*
Y59916D01*
X60953D01*
Y62886D01*
D02*
G37*
G36*
X140150Y50343D02*
X136500D01*
Y46693D01*
X140150D01*
Y50343D01*
D02*
G37*
G36*
X135500D02*
X131850D01*
Y46693D01*
X135500D01*
Y50343D01*
D02*
G37*
G36*
X136537Y35232D02*
X135464D01*
X134427Y34955D01*
X133498Y34418D01*
X132739Y33659D01*
X132203Y32730D01*
X131925Y31694D01*
Y30621D01*
X132203Y29585D01*
X132739Y28655D01*
X133498Y27897D01*
X134427Y27360D01*
X135464Y27083D01*
X136537D01*
X137573Y27360D01*
X138502Y27897D01*
X139261Y28655D01*
X139797Y29585D01*
X140075Y30621D01*
Y31694D01*
X139797Y32730D01*
X139261Y33659D01*
X138502Y34418D01*
X137573Y34955D01*
X136537Y35232D01*
D02*
G37*
G36*
X101039Y11591D02*
X101000D01*
Y8000D01*
X104591D01*
Y8038D01*
X104312Y9079D01*
X103773Y10012D01*
X103012Y10773D01*
X102079Y11312D01*
X101039Y11591D01*
D02*
G37*
G36*
X100000D02*
X99962D01*
X98921Y11312D01*
X97988Y10773D01*
X97227Y10012D01*
X96688Y9079D01*
X96409Y8038D01*
Y8000D01*
X100000D01*
Y11591D01*
D02*
G37*
G36*
X79385Y11476D02*
X79347D01*
Y7886D01*
X82937D01*
Y7924D01*
X82658Y8965D01*
X82120Y9898D01*
X81358Y10659D01*
X80425Y11198D01*
X79385Y11476D01*
D02*
G37*
G36*
X58125D02*
X58087D01*
Y7886D01*
X61677D01*
Y7924D01*
X61398Y8965D01*
X60860Y9898D01*
X60098Y10659D01*
X59166Y11198D01*
X58125Y11476D01*
D02*
G37*
G36*
X78347D02*
X78308D01*
X77268Y11198D01*
X76335Y10659D01*
X75573Y9898D01*
X75035Y8965D01*
X74756Y7924D01*
Y7886D01*
X78347D01*
Y11476D01*
D02*
G37*
G36*
X57087D02*
X57048D01*
X56008Y11198D01*
X55075Y10659D01*
X54313Y9898D01*
X53775Y8965D01*
X53496Y7924D01*
Y7886D01*
X57087D01*
Y11476D01*
D02*
G37*
G36*
X104591Y7000D02*
X101000D01*
Y3409D01*
X101039D01*
X102079Y3688D01*
X103012Y4227D01*
X103773Y4988D01*
X104312Y5921D01*
X104591Y6961D01*
Y7000D01*
D02*
G37*
G36*
X100000D02*
X96409D01*
Y6961D01*
X96688Y5921D01*
X97227Y4988D01*
X97988Y4227D01*
X98921Y3688D01*
X99962Y3409D01*
X100000D01*
Y7000D01*
D02*
G37*
G36*
X82937Y6886D02*
X79347D01*
Y3295D01*
X79385D01*
X80425Y3574D01*
X81358Y4113D01*
X82120Y4874D01*
X82658Y5807D01*
X82937Y6847D01*
Y6886D01*
D02*
G37*
G36*
X78347D02*
X74756D01*
Y6847D01*
X75035Y5807D01*
X75573Y4874D01*
X76335Y4113D01*
X77268Y3574D01*
X78308Y3295D01*
X78347D01*
Y6886D01*
D02*
G37*
G36*
X61677D02*
X58087D01*
Y3295D01*
X58125D01*
X59166Y3574D01*
X60098Y4113D01*
X60860Y4874D01*
X61398Y5807D01*
X61677Y6847D01*
Y6886D01*
D02*
G37*
G36*
X57087D02*
X53496D01*
Y6847D01*
X53775Y5807D01*
X54313Y4874D01*
X55075Y4113D01*
X56008Y3574D01*
X57048Y3295D01*
X57087D01*
Y6886D01*
D02*
G37*
G36*
X146486Y22185D02*
X144853D01*
X143240Y21930D01*
X141687Y21425D01*
X140232Y20684D01*
X138911Y19724D01*
X137756Y18569D01*
X136797Y17248D01*
X136055Y15793D01*
X135551Y14240D01*
X135295Y12628D01*
Y10995D01*
X135551Y9382D01*
X136055Y7829D01*
X136797Y6374D01*
X137756Y5053D01*
X138911Y3898D01*
X140232Y2938D01*
X141687Y2197D01*
X143240Y1692D01*
X144853Y1437D01*
X146486D01*
X148099Y1692D01*
X149652Y2197D01*
X151107Y2938D01*
X152427Y3898D01*
X153582Y5053D01*
X154542Y6374D01*
X155283Y7829D01*
X155788Y9382D01*
X156043Y10995D01*
Y12628D01*
X155788Y14240D01*
X155283Y15793D01*
X154542Y17248D01*
X153582Y18569D01*
X152427Y19724D01*
X151107Y20684D01*
X149652Y21425D01*
X148099Y21930D01*
X146486Y22185D01*
D02*
G37*
G36*
X12628D02*
X10995D01*
X9382Y21930D01*
X7829Y21425D01*
X6374Y20684D01*
X5053Y19724D01*
X3898Y18569D01*
X2938Y17248D01*
X2197Y15793D01*
X1692Y14240D01*
X1437Y12628D01*
Y10995D01*
X1692Y9382D01*
X2197Y7829D01*
X2938Y6374D01*
X3898Y5053D01*
X5053Y3898D01*
X6374Y2938D01*
X7829Y2197D01*
X9382Y1692D01*
X10995Y1437D01*
X12628D01*
X14240Y1692D01*
X15793Y2197D01*
X17248Y2938D01*
X18569Y3898D01*
X19724Y5053D01*
X20684Y6374D01*
X21425Y7829D01*
X21930Y9382D01*
X22185Y10995D01*
Y12628D01*
X21930Y14240D01*
X21425Y15793D01*
X20684Y17248D01*
X19724Y18569D01*
X18569Y19724D01*
X17248Y20684D01*
X15793Y21425D01*
X14240Y21930D01*
X12628Y22185D01*
D02*
G37*
%LPD*%
G36*
X75563Y146268D02*
X71232Y141937D01*
X66508D01*
Y146366D01*
X71626Y150992D01*
X75563D01*
Y146268D01*
D02*
G37*
G36*
X92492Y145874D02*
Y141937D01*
X87768D01*
X83437Y146268D01*
Y150992D01*
X87866D01*
X92492Y145874D01*
D02*
G37*
G36*
X75563Y129732D02*
Y125008D01*
X71134D01*
X66508Y130126D01*
Y134063D01*
X71232D01*
X75563Y129732D01*
D02*
G37*
G36*
X104769Y131354D02*
X112047D01*
X112254Y130854D01*
X100507Y119107D01*
X100046Y119299D01*
Y132236D01*
X102000D01*
Y133198D01*
X104769D01*
Y131354D01*
D02*
G37*
G36*
X144096Y104820D02*
Y101996D01*
X144214Y101405D01*
X144549Y100903D01*
X149636Y95816D01*
Y87254D01*
X143456Y81075D01*
X123516D01*
Y82665D01*
X138053D01*
X138645Y82783D01*
X139146Y83118D01*
X141670Y85642D01*
X141933Y85490D01*
X143145Y85165D01*
X144399D01*
X145610Y85490D01*
X146697Y86117D01*
X147584Y87004D01*
X148211Y88090D01*
X148536Y89302D01*
Y90556D01*
X148211Y91768D01*
X147584Y92854D01*
X146697Y93741D01*
X145610Y94368D01*
X144399Y94693D01*
X143145D01*
X141933Y94368D01*
X140847Y93741D01*
X139960Y92854D01*
X139333Y91768D01*
X139008Y90556D01*
Y89302D01*
X139333Y88090D01*
X139484Y87827D01*
X137413Y85756D01*
X123516D01*
Y88226D01*
X115484D01*
Y81075D01*
X106355D01*
X106164Y81537D01*
X114584Y89958D01*
X124503D01*
X125094Y90075D01*
X125596Y90410D01*
X139477Y104291D01*
X140477Y104024D01*
X141524D01*
X142535Y104295D01*
X143442Y104818D01*
X143634Y105011D01*
X144096Y104820D01*
D02*
G37*
D12*
X57087Y131504D02*
D03*
Y144496D02*
D03*
D13*
X83846Y43392D02*
D03*
Y49503D02*
D03*
X73397Y43392D02*
D03*
Y49503D02*
D03*
X71500Y116055D02*
D03*
Y109945D02*
D03*
X98500Y134945D02*
D03*
Y141055D02*
D03*
X95000Y43506D02*
D03*
Y49617D02*
D03*
X105450Y43506D02*
D03*
Y49617D02*
D03*
X62647Y43392D02*
D03*
Y49503D02*
D03*
X52137Y43392D02*
D03*
Y49503D02*
D03*
D14*
X82308Y109083D02*
D03*
X78568Y116917D02*
D03*
X86048D02*
D03*
X100260Y28793D02*
D03*
X96520Y36628D02*
D03*
X104000D02*
D03*
X78847Y28679D02*
D03*
X75106Y36513D02*
D03*
X82587D02*
D03*
X57587Y28679D02*
D03*
X53847Y36513D02*
D03*
X61327D02*
D03*
D15*
X108560Y134749D02*
D03*
Y141251D02*
D03*
X118731Y134749D02*
D03*
Y141251D02*
D03*
X57000Y101751D02*
D03*
Y95249D02*
D03*
X100000Y63500D02*
D03*
Y56998D02*
D03*
X78347Y63386D02*
D03*
Y56884D02*
D03*
X57087Y63386D02*
D03*
Y56884D02*
D03*
D17*
X71141Y129609D02*
D03*
X87859D02*
D03*
Y146391D02*
D03*
X71109Y146359D02*
D03*
D22*
X119500Y74211D02*
D03*
X83500Y99500D02*
D03*
X38000Y74211D02*
D03*
X100500Y7500D02*
D03*
X78847Y7386D02*
D03*
X57587D02*
D03*
D23*
X119500Y84211D02*
D03*
X38000D02*
D03*
X100500Y17500D02*
D03*
X78847Y17386D02*
D03*
X57587D02*
D03*
D24*
X73500Y99500D02*
D03*
D25*
X136000Y31157D02*
D03*
D26*
Y50842D02*
D03*
D29*
X88077Y70948D02*
D03*
Y73448D02*
D03*
Y75948D02*
D03*
Y78448D02*
D03*
Y80948D02*
D03*
Y83448D02*
D03*
Y85948D02*
D03*
Y88448D02*
D03*
X68983Y70948D02*
D03*
Y73448D02*
D03*
Y75948D02*
D03*
Y78448D02*
D03*
Y80948D02*
D03*
Y83448D02*
D03*
Y85948D02*
D03*
Y88448D02*
D03*
D30*
X51189Y144496D02*
X58957D01*
X13728Y107035D02*
X51189Y144496D01*
X13728Y89929D02*
Y107035D01*
X58957Y144496D02*
X68167D01*
X70030Y146359D01*
X71109D01*
X56430Y101181D02*
X57000Y101751D01*
X51181Y101181D02*
X56430D01*
X48031Y98032D02*
X51181Y101181D01*
X48031Y84242D02*
Y98032D01*
X38000Y74211D02*
X48031Y84242D01*
X143772Y70244D02*
X154331Y80803D01*
Y98032D01*
X151000Y101362D02*
X154331Y98032D01*
X151000Y101362D02*
Y108000D01*
X43751Y112784D02*
Y116819D01*
X63940Y137008D01*
X80460D01*
X87859Y129609D01*
X52559Y105795D02*
X56603Y101751D01*
X43751Y108748D02*
Y112784D01*
Y108748D02*
X46704Y105795D01*
X52559D01*
X57483Y63386D02*
X78347D01*
X57644Y7443D02*
X100443D01*
X100500Y7500D02*
X136000Y43000D01*
Y50842D01*
X14564Y70244D02*
X18531Y74211D01*
X38000D01*
X13728Y70244D02*
X14564D01*
X48825Y63386D02*
X57087D01*
X38000Y74211D02*
X48825Y63386D01*
X100397Y63500D02*
X111107Y74211D01*
X100000Y63500D02*
X100397D01*
X111107Y74211D02*
X119500D01*
X78347Y63386D02*
X99886D01*
X100000Y63500D01*
X139805Y74211D02*
X143772Y70244D01*
X119500Y74211D02*
X139805D01*
X136000Y50842D02*
X143772Y58614D01*
Y70244D01*
X78568Y116469D02*
Y116917D01*
X131000Y108000D02*
Y119077D01*
X108365Y134945D02*
X108560Y134749D01*
X98500Y134945D02*
X108365D01*
X71500Y116055D02*
X78154D01*
X78568Y116469D01*
X81895Y109945D02*
X82308Y109531D01*
X71500Y109945D02*
X81895D01*
X82308Y109083D02*
Y109531D01*
X82722Y100278D02*
X83500Y99500D01*
X82308Y109083D02*
X82722Y108669D01*
Y100278D02*
Y108669D01*
X98500Y141055D02*
X118536D01*
X87859Y146391D02*
X93194Y141055D01*
X98500D01*
X118536D02*
X118731Y141251D01*
X151000Y119077D02*
Y130077D01*
Y108000D02*
Y119077D01*
X100443Y7443D02*
X100500Y7500D01*
X57587Y7386D02*
X57644Y7443D01*
X73500Y94341D02*
Y99500D01*
Y94341D02*
X76378Y91464D01*
Y84370D02*
Y91464D01*
X75455Y83448D02*
X76378Y84370D01*
X68983Y83448D02*
X75455D01*
X74188Y49503D02*
X78847Y44844D01*
Y28679D02*
Y44844D01*
X53784Y50499D02*
Y53977D01*
X56690Y56884D01*
X57483D01*
X74890Y50499D02*
Y53823D01*
X76267Y55200D02*
Y55201D01*
X74890Y53823D02*
X76267Y55200D01*
X77950Y56884D02*
X78743D01*
X76267Y55201D02*
X77950Y56884D01*
X73792Y49898D02*
X74289D01*
X74890Y50499D01*
X53183Y49898D02*
X53784Y50499D01*
X52533Y49898D02*
X53183D01*
X99603Y56998D02*
X100397D01*
X96457Y50613D02*
Y53851D01*
X99603Y56998D01*
X95856Y50013D02*
X96457Y50613D01*
X95396Y50013D02*
X95856D01*
X103662Y50613D02*
Y53733D01*
X104658Y49617D02*
X105450D01*
X103662Y50613D02*
X104658Y49617D01*
X100397Y56998D02*
X103662Y53733D01*
X95000Y49617D02*
X95792D01*
X100260Y28793D02*
Y45149D01*
X95792Y49617D02*
X100260Y45149D01*
X82059Y50499D02*
X83055Y49503D01*
X78743Y56884D02*
X82059Y53568D01*
X83055Y49503D02*
X83846D01*
X82059Y50499D02*
Y53568D01*
X73397Y49503D02*
X74188D01*
X60859Y50499D02*
Y53508D01*
X57483Y56884D02*
X60859Y53508D01*
X61855Y49503D02*
X62647D01*
X60859Y50499D02*
X61855Y49503D01*
X57587Y28679D02*
Y44844D01*
X52929Y49503D02*
X57587Y44844D01*
X52137Y49503D02*
X52929D01*
X104996Y43506D02*
X105450D01*
X104000Y36628D02*
Y42510D01*
X104996Y43506D01*
X62323Y43392D02*
X62647D01*
X61327Y36513D02*
Y42396D01*
X62323Y43392D01*
X83583D02*
X83846D01*
X82587Y36513D02*
Y42396D01*
X83583Y43392D01*
X96520Y36628D02*
Y42510D01*
X95524Y43506D02*
X96520Y42510D01*
X95000Y43506D02*
X95524D01*
X53847Y36513D02*
Y42396D01*
X52850Y43392D02*
X53847Y42396D01*
X52137Y43392D02*
X52850D01*
X73397D02*
X74110D01*
X75106Y36513D02*
Y42396D01*
X74110Y43392D02*
X75106Y42396D01*
X96520Y21480D02*
Y36628D01*
Y21480D02*
X100500Y17500D01*
X53847Y21126D02*
X57587Y17386D01*
X53847Y21126D02*
Y36513D01*
X75106Y21126D02*
X78847Y17386D01*
X75106Y21126D02*
Y36513D01*
X19447Y84211D02*
X38000D01*
X13728Y89929D02*
X19447Y84211D01*
D31*
X60946Y100931D02*
X68983Y92894D01*
X57000Y101751D02*
X57820Y100931D01*
X60946D01*
X79134Y85433D02*
X82073Y88372D01*
X78530Y70948D02*
X79134Y71552D01*
Y85433D01*
X78530Y70948D02*
X88077D01*
X68983D02*
X78530D01*
X88002Y88372D02*
X88077Y88448D01*
X82073Y88372D02*
X88002D01*
X151181Y86614D02*
Y96457D01*
X145642Y101996D02*
X151181Y96457D01*
X144097Y79530D02*
X151181Y86614D01*
X68983Y88448D02*
Y92894D01*
X59363Y65560D02*
X64751Y70948D01*
X59363Y65265D02*
Y65560D01*
X64751Y70948D02*
X68983D01*
X57483Y63386D02*
X59363Y65265D01*
X57087Y63386D02*
X57483D01*
X105514Y79530D02*
X144097D01*
X91732Y94488D02*
Y117717D01*
X81618Y120988D02*
X88461D01*
X91732Y117717D01*
X80709Y120077D02*
Y120079D01*
X81618Y120988D01*
X78568Y118197D02*
X79178Y118807D01*
X79439D01*
X80709Y120077D01*
X78568Y116917D02*
Y118197D01*
X138053Y84211D02*
X143772Y89929D01*
X119500Y84211D02*
X138053D01*
X90610Y123169D02*
X96063Y117717D01*
X71178Y129609D02*
X77618Y123169D01*
X90610D01*
X118266Y130077D02*
X131000D01*
X103937Y85563D02*
Y115748D01*
X118266Y130077D01*
X100787Y117201D02*
X118335Y134749D01*
X100787Y85498D02*
Y117201D01*
X96063Y88214D02*
Y117717D01*
X71141Y129609D02*
X71178D01*
X58836Y73448D02*
X68983D01*
X56299Y75984D02*
X58836Y73448D01*
X88077D02*
X99432D01*
X105514Y79530D01*
X113944Y91503D02*
X124503D01*
X88077Y75948D02*
X98389D01*
X113944Y91503D01*
X145642Y101996D02*
Y114435D01*
X141000Y119077D02*
X145642Y114435D01*
X124503Y91503D02*
X141000Y108000D01*
X88077Y78448D02*
X96822D01*
X103937Y85563D01*
X93796Y85948D02*
X96063Y88214D01*
X98500Y86295D02*
Y134945D01*
X95653Y83448D02*
X98500Y86295D01*
X96237Y80948D02*
X100787Y85498D01*
X88077Y85948D02*
X93796D01*
X118335Y134749D02*
X118731D01*
X88077Y80948D02*
X96237D01*
X88077Y83448D02*
X95653D01*
X57000Y91031D02*
X62084Y85948D01*
X57000Y91031D02*
Y95249D01*
X62084Y85948D02*
X68983D01*
D32*
X53578Y77559D02*
X54417Y78397D01*
X53543Y77559D02*
X53578D01*
X54417Y78397D02*
X68932D01*
X52757Y80948D02*
X68983D01*
X51337Y79528D02*
X52757Y80948D01*
X51181Y79528D02*
X51337D01*
X60236Y75984D02*
X60254Y75966D01*
X68965D01*
X62647Y43392D02*
X67014D01*
X68932Y78397D02*
X68983Y78448D01*
X83846Y43392D02*
X87880D01*
X105450Y43506D02*
X111612D01*
X68965Y75966D02*
X68983Y75948D01*
D33*
X131000Y108000D02*
D03*
Y119077D02*
D03*
Y130077D02*
D03*
D34*
X141000Y108000D02*
D03*
X151000D02*
D03*
X141000Y119077D02*
D03*
X151000D02*
D03*
X141000Y130077D02*
D03*
X151000D02*
D03*
D35*
X143772Y89929D02*
D03*
X13728Y70244D02*
D03*
D36*
X143772Y70244D02*
D03*
X13728Y89929D02*
D03*
D37*
X145669Y11811D02*
D03*
X11811D02*
D03*
X145669Y145669D02*
D03*
X11811D02*
D03*
D38*
X91732Y94488D02*
D03*
X56299Y75984D02*
D03*
X53543Y77559D02*
D03*
X51181Y79528D02*
D03*
X60236Y75984D02*
D03*
X67014Y43392D02*
D03*
X87880D02*
D03*
X111612Y43506D02*
D03*
M02*
