G04*
G04 #@! TF.GenerationSoftware,Altium Limited,Altium Designer,22.2.1 (43)*
G04*
G04 Layer_Color=65535*
%FSLAX25Y25*%
%MOIN*%
G70*
G04*
G04 #@! TF.SameCoordinates,3B3E58CF-1C3C-4CAC-96B8-8F734E900E2C*
G04*
G04*
G04 #@! TF.FilePolarity,Positive*
G04*
G01*
G75*
%ADD10C,0.00984*%
%ADD11C,0.00787*%
G36*
X65253Y91454D02*
Y91449D01*
Y91431D01*
Y91402D01*
Y91361D01*
X65247Y91308D01*
Y91255D01*
X65241Y91191D01*
X65236Y91121D01*
X65218Y90975D01*
X65195Y90823D01*
X65165Y90671D01*
X65119Y90536D01*
Y90530D01*
X65113Y90518D01*
X65107Y90501D01*
X65095Y90478D01*
X65060Y90419D01*
X65013Y90337D01*
X64949Y90249D01*
X64867Y90156D01*
X64762Y90068D01*
X64645Y89980D01*
X64639D01*
X64627Y89969D01*
X64610Y89963D01*
X64580Y89945D01*
X64551Y89933D01*
X64510Y89916D01*
X64457Y89893D01*
X64405Y89875D01*
X64346Y89857D01*
X64276Y89834D01*
X64206Y89816D01*
X64124Y89805D01*
X63949Y89781D01*
X63750Y89770D01*
X63697D01*
X63662Y89776D01*
X63615D01*
X63563Y89781D01*
X63504Y89787D01*
X63440Y89793D01*
X63299Y89816D01*
X63153Y89846D01*
X63001Y89893D01*
X62866Y89951D01*
X62861D01*
X62849Y89963D01*
X62837Y89969D01*
X62814Y89986D01*
X62749Y90027D01*
X62679Y90091D01*
X62597Y90167D01*
X62521Y90255D01*
X62445Y90366D01*
X62381Y90489D01*
Y90495D01*
X62375Y90507D01*
X62369Y90524D01*
X62357Y90553D01*
X62346Y90589D01*
X62334Y90635D01*
X62322Y90688D01*
X62311Y90747D01*
X62293Y90811D01*
X62281Y90881D01*
X62270Y90963D01*
X62258Y91045D01*
X62246Y91138D01*
X62240Y91238D01*
X62234Y91343D01*
Y91454D01*
Y93677D01*
X62744D01*
Y91454D01*
Y91449D01*
Y91431D01*
Y91408D01*
Y91373D01*
Y91332D01*
X62749Y91285D01*
X62755Y91174D01*
X62767Y91057D01*
X62779Y90934D01*
X62802Y90817D01*
X62814Y90764D01*
X62831Y90717D01*
X62837Y90706D01*
X62849Y90676D01*
X62872Y90635D01*
X62907Y90583D01*
X62948Y90524D01*
X63007Y90460D01*
X63071Y90401D01*
X63153Y90349D01*
X63165Y90343D01*
X63194Y90331D01*
X63241Y90308D01*
X63305Y90290D01*
X63387Y90267D01*
X63481Y90244D01*
X63586Y90232D01*
X63703Y90226D01*
X63756D01*
X63797Y90232D01*
X63843D01*
X63896Y90238D01*
X64013Y90255D01*
X64148Y90290D01*
X64276Y90331D01*
X64399Y90396D01*
X64457Y90431D01*
X64504Y90478D01*
Y90483D01*
X64516Y90489D01*
X64528Y90507D01*
X64539Y90530D01*
X64563Y90559D01*
X64580Y90595D01*
X64604Y90641D01*
X64627Y90694D01*
X64645Y90758D01*
X64668Y90829D01*
X64692Y90904D01*
X64709Y90998D01*
X64721Y91098D01*
X64732Y91203D01*
X64744Y91326D01*
Y91454D01*
Y93677D01*
X65253D01*
Y91454D01*
D02*
G37*
G36*
X67687Y89834D02*
X67213D01*
Y92841D01*
X67207Y92835D01*
X67184Y92812D01*
X67143Y92782D01*
X67090Y92741D01*
X67026Y92689D01*
X66950Y92636D01*
X66862Y92572D01*
X66762Y92513D01*
X66757D01*
X66751Y92507D01*
X66716Y92484D01*
X66663Y92455D01*
X66599Y92420D01*
X66523Y92379D01*
X66441Y92344D01*
X66353Y92303D01*
X66271Y92268D01*
Y92730D01*
X66277D01*
X66289Y92736D01*
X66312Y92747D01*
X66335Y92765D01*
X66370Y92782D01*
X66411Y92800D01*
X66505Y92853D01*
X66610Y92917D01*
X66727Y92993D01*
X66844Y93081D01*
X66956Y93174D01*
X66961Y93180D01*
X66967Y93186D01*
X67002Y93221D01*
X67055Y93274D01*
X67119Y93338D01*
X67190Y93420D01*
X67260Y93508D01*
X67324Y93601D01*
X67377Y93695D01*
X67687D01*
Y89834D01*
D02*
G37*
G36*
X81708Y152794D02*
X81234D01*
Y155801D01*
X81228Y155795D01*
X81205Y155772D01*
X81164Y155742D01*
X81111Y155701D01*
X81047Y155649D01*
X80971Y155596D01*
X80883Y155532D01*
X80784Y155473D01*
X80778D01*
X80772Y155467D01*
X80737Y155444D01*
X80684Y155415D01*
X80620Y155380D01*
X80544Y155339D01*
X80462Y155304D01*
X80374Y155263D01*
X80292Y155227D01*
Y155690D01*
X80298D01*
X80310Y155695D01*
X80333Y155707D01*
X80357Y155725D01*
X80392Y155742D01*
X80433Y155760D01*
X80526Y155813D01*
X80632Y155877D01*
X80748Y155953D01*
X80866Y156041D01*
X80977Y156134D01*
X80983Y156140D01*
X80988Y156146D01*
X81023Y156181D01*
X81076Y156234D01*
X81140Y156298D01*
X81211Y156380D01*
X81281Y156468D01*
X81345Y156561D01*
X81398Y156655D01*
X81708D01*
Y152794D01*
D02*
G37*
G36*
X79596Y156187D02*
X78332D01*
Y152794D01*
X77824D01*
Y156187D01*
X76560D01*
Y156637D01*
X79596D01*
Y156187D01*
D02*
G37*
G36*
X90463Y58239D02*
X90510D01*
X90627Y58233D01*
X90750Y58221D01*
X90878Y58197D01*
X91001Y58174D01*
X91059Y58157D01*
X91112Y58139D01*
X91118D01*
X91124Y58133D01*
X91159Y58122D01*
X91206Y58092D01*
X91264Y58051D01*
X91334Y58004D01*
X91405Y57940D01*
X91475Y57864D01*
X91539Y57771D01*
X91545Y57759D01*
X91563Y57724D01*
X91592Y57671D01*
X91621Y57601D01*
X91650Y57513D01*
X91680Y57414D01*
X91697Y57308D01*
X91703Y57191D01*
Y57186D01*
Y57174D01*
Y57150D01*
X91697Y57121D01*
Y57086D01*
X91691Y57045D01*
X91668Y56951D01*
X91639Y56840D01*
X91592Y56729D01*
X91522Y56612D01*
X91481Y56554D01*
X91434Y56501D01*
X91422Y56489D01*
X91405Y56478D01*
X91387Y56454D01*
X91358Y56437D01*
X91323Y56407D01*
X91282Y56384D01*
X91235Y56355D01*
X91182Y56326D01*
X91118Y56296D01*
X91054Y56267D01*
X90978Y56238D01*
X90902Y56208D01*
X90814Y56185D01*
X90720Y56168D01*
X90621Y56150D01*
X90632Y56144D01*
X90656Y56133D01*
X90691Y56115D01*
X90732Y56091D01*
X90831Y56027D01*
X90884Y55992D01*
X90925Y55957D01*
X90937Y55945D01*
X90966Y55922D01*
X91007Y55875D01*
X91059Y55817D01*
X91124Y55740D01*
X91194Y55653D01*
X91270Y55553D01*
X91346Y55442D01*
X92013Y54401D01*
X91375D01*
X90867Y55196D01*
Y55202D01*
X90855Y55214D01*
X90843Y55232D01*
X90831Y55255D01*
X90790Y55313D01*
X90738Y55389D01*
X90679Y55477D01*
X90615Y55565D01*
X90556Y55647D01*
X90498Y55723D01*
X90492Y55729D01*
X90474Y55752D01*
X90445Y55787D01*
X90416Y55828D01*
X90328Y55910D01*
X90287Y55951D01*
X90241Y55980D01*
X90235Y55986D01*
X90223Y55992D01*
X90200Y56004D01*
X90170Y56021D01*
X90100Y56056D01*
X90012Y56086D01*
X90007D01*
X89995Y56091D01*
X89971D01*
X89942Y56097D01*
X89901Y56103D01*
X89854D01*
X89796Y56109D01*
X89141D01*
Y54401D01*
X88632D01*
Y58244D01*
X90416D01*
X90463Y58239D01*
D02*
G37*
G36*
X93634Y58256D02*
X93680D01*
X93727Y58244D01*
X93844Y58227D01*
X93973Y58192D01*
X94107Y58139D01*
X94178Y58104D01*
X94242Y58069D01*
X94306Y58022D01*
X94365Y57969D01*
X94371Y57964D01*
X94376Y57958D01*
X94394Y57940D01*
X94412Y57917D01*
X94435Y57888D01*
X94464Y57852D01*
X94523Y57771D01*
X94575Y57665D01*
X94628Y57542D01*
X94663Y57408D01*
X94669Y57332D01*
X94675Y57256D01*
Y57244D01*
Y57209D01*
X94669Y57162D01*
X94657Y57098D01*
X94640Y57022D01*
X94616Y56946D01*
X94581Y56864D01*
X94534Y56788D01*
X94529Y56782D01*
X94511Y56758D01*
X94476Y56723D01*
X94429Y56677D01*
X94371Y56630D01*
X94295Y56583D01*
X94207Y56530D01*
X94107Y56489D01*
X94113D01*
X94125Y56484D01*
X94143Y56478D01*
X94166Y56466D01*
X94230Y56437D01*
X94306Y56402D01*
X94394Y56349D01*
X94482Y56285D01*
X94569Y56203D01*
X94646Y56115D01*
X94651Y56103D01*
X94675Y56068D01*
X94704Y56015D01*
X94739Y55939D01*
X94774Y55852D01*
X94804Y55746D01*
X94827Y55629D01*
X94833Y55501D01*
Y55495D01*
Y55477D01*
Y55454D01*
X94827Y55419D01*
X94821Y55378D01*
X94815Y55325D01*
X94792Y55208D01*
X94745Y55080D01*
X94722Y55009D01*
X94687Y54939D01*
X94646Y54869D01*
X94599Y54799D01*
X94546Y54734D01*
X94482Y54670D01*
X94476Y54664D01*
X94464Y54658D01*
X94447Y54641D01*
X94417Y54617D01*
X94382Y54594D01*
X94341Y54565D01*
X94295Y54535D01*
X94236Y54506D01*
X94172Y54471D01*
X94102Y54442D01*
X94025Y54413D01*
X93944Y54389D01*
X93862Y54366D01*
X93768Y54348D01*
X93669Y54342D01*
X93563Y54337D01*
X93511D01*
X93470Y54342D01*
X93423Y54348D01*
X93364Y54354D01*
X93306Y54366D01*
X93236Y54378D01*
X93089Y54418D01*
X93013Y54448D01*
X92937Y54477D01*
X92861Y54518D01*
X92785Y54559D01*
X92715Y54611D01*
X92645Y54670D01*
X92639Y54676D01*
X92627Y54688D01*
X92616Y54705D01*
X92592Y54729D01*
X92563Y54764D01*
X92534Y54804D01*
X92505Y54851D01*
X92475Y54904D01*
X92440Y54962D01*
X92411Y55027D01*
X92352Y55167D01*
X92329Y55249D01*
X92317Y55331D01*
X92306Y55419D01*
X92300Y55512D01*
Y55518D01*
Y55530D01*
Y55547D01*
X92306Y55577D01*
Y55606D01*
X92311Y55647D01*
X92323Y55729D01*
X92347Y55828D01*
X92382Y55934D01*
X92423Y56039D01*
X92487Y56138D01*
Y56144D01*
X92499Y56150D01*
X92522Y56179D01*
X92569Y56226D01*
X92627Y56279D01*
X92703Y56337D01*
X92797Y56396D01*
X92908Y56448D01*
X93031Y56489D01*
X93025D01*
X93019Y56495D01*
X92984Y56507D01*
X92931Y56536D01*
X92867Y56565D01*
X92791Y56612D01*
X92721Y56665D01*
X92651Y56723D01*
X92592Y56793D01*
X92586Y56805D01*
X92569Y56829D01*
X92545Y56870D01*
X92522Y56928D01*
X92499Y56998D01*
X92475Y57080D01*
X92458Y57168D01*
X92452Y57267D01*
Y57273D01*
Y57285D01*
Y57308D01*
X92458Y57338D01*
X92463Y57373D01*
X92469Y57414D01*
X92487Y57513D01*
X92522Y57624D01*
X92580Y57741D01*
X92610Y57806D01*
X92651Y57864D01*
X92698Y57923D01*
X92750Y57975D01*
X92756Y57981D01*
X92762Y57987D01*
X92779Y58004D01*
X92803Y58022D01*
X92838Y58040D01*
X92873Y58069D01*
X92914Y58092D01*
X92967Y58122D01*
X93078Y58174D01*
X93218Y58215D01*
X93376Y58250D01*
X93458Y58256D01*
X93552Y58262D01*
X93598D01*
X93634Y58256D01*
D02*
G37*
G36*
X111362Y57806D02*
X111356Y57800D01*
X111345Y57788D01*
X111327Y57765D01*
X111298Y57735D01*
X111269Y57694D01*
X111228Y57648D01*
X111181Y57589D01*
X111134Y57531D01*
X111082Y57460D01*
X111023Y57379D01*
X110959Y57297D01*
X110900Y57203D01*
X110836Y57104D01*
X110766Y56998D01*
X110701Y56881D01*
X110631Y56764D01*
X110625Y56758D01*
X110614Y56735D01*
X110596Y56700D01*
X110573Y56653D01*
X110543Y56595D01*
X110508Y56524D01*
X110467Y56442D01*
X110426Y56355D01*
X110385Y56261D01*
X110339Y56156D01*
X110292Y56045D01*
X110245Y55928D01*
X110157Y55688D01*
X110075Y55431D01*
Y55425D01*
X110070Y55407D01*
X110064Y55384D01*
X110052Y55349D01*
X110040Y55302D01*
X110029Y55249D01*
X110017Y55185D01*
X109999Y55120D01*
X109988Y55044D01*
X109970Y54962D01*
X109941Y54787D01*
X109917Y54588D01*
X109900Y54378D01*
X109414D01*
Y54383D01*
Y54401D01*
Y54424D01*
X109420Y54459D01*
Y54500D01*
X109426Y54553D01*
X109432Y54617D01*
X109438Y54682D01*
X109449Y54758D01*
X109461Y54845D01*
X109473Y54933D01*
X109490Y55027D01*
X109508Y55132D01*
X109531Y55237D01*
X109590Y55471D01*
Y55477D01*
X109596Y55501D01*
X109607Y55536D01*
X109619Y55583D01*
X109637Y55641D01*
X109660Y55705D01*
X109683Y55782D01*
X109713Y55869D01*
X109748Y55957D01*
X109783Y56056D01*
X109865Y56267D01*
X109964Y56489D01*
X110075Y56712D01*
X110081Y56717D01*
X110093Y56741D01*
X110110Y56770D01*
X110134Y56811D01*
X110163Y56864D01*
X110198Y56922D01*
X110239Y56987D01*
X110280Y57063D01*
X110385Y57221D01*
X110502Y57390D01*
X110625Y57560D01*
X110760Y57724D01*
X108876D01*
Y58174D01*
X111362D01*
Y57806D01*
D02*
G37*
G36*
X107004Y58215D02*
X107051D01*
X107168Y58209D01*
X107291Y58197D01*
X107420Y58174D01*
X107542Y58151D01*
X107601Y58133D01*
X107653Y58116D01*
X107659D01*
X107665Y58110D01*
X107700Y58098D01*
X107747Y58069D01*
X107806Y58028D01*
X107876Y57981D01*
X107946Y57917D01*
X108016Y57841D01*
X108080Y57747D01*
X108086Y57735D01*
X108104Y57700D01*
X108133Y57648D01*
X108162Y57577D01*
X108192Y57490D01*
X108221Y57390D01*
X108238Y57285D01*
X108244Y57168D01*
Y57162D01*
Y57150D01*
Y57127D01*
X108238Y57098D01*
Y57063D01*
X108233Y57022D01*
X108209Y56928D01*
X108180Y56817D01*
X108133Y56706D01*
X108063Y56589D01*
X108022Y56530D01*
X107975Y56478D01*
X107964Y56466D01*
X107946Y56454D01*
X107928Y56431D01*
X107899Y56413D01*
X107864Y56384D01*
X107823Y56361D01*
X107776Y56331D01*
X107724Y56302D01*
X107659Y56273D01*
X107595Y56244D01*
X107519Y56214D01*
X107443Y56185D01*
X107355Y56162D01*
X107262Y56144D01*
X107162Y56127D01*
X107174Y56121D01*
X107197Y56109D01*
X107232Y56091D01*
X107273Y56068D01*
X107373Y56004D01*
X107425Y55969D01*
X107466Y55934D01*
X107478Y55922D01*
X107507Y55898D01*
X107548Y55852D01*
X107601Y55793D01*
X107665Y55717D01*
X107735Y55629D01*
X107811Y55530D01*
X107887Y55419D01*
X108554Y54378D01*
X107917D01*
X107408Y55173D01*
Y55179D01*
X107396Y55191D01*
X107384Y55208D01*
X107373Y55232D01*
X107332Y55290D01*
X107279Y55366D01*
X107221Y55454D01*
X107156Y55542D01*
X107098Y55624D01*
X107039Y55700D01*
X107033Y55705D01*
X107016Y55729D01*
X106987Y55764D01*
X106957Y55805D01*
X106870Y55887D01*
X106829Y55928D01*
X106782Y55957D01*
X106776Y55963D01*
X106764Y55969D01*
X106741Y55980D01*
X106712Y55998D01*
X106641Y56033D01*
X106554Y56062D01*
X106548D01*
X106536Y56068D01*
X106513D01*
X106483Y56074D01*
X106442Y56080D01*
X106396D01*
X106337Y56086D01*
X105682D01*
Y54378D01*
X105173D01*
Y58221D01*
X106957D01*
X107004Y58215D01*
D02*
G37*
G36*
X50831Y57862D02*
X50866D01*
X50913Y57857D01*
X51019Y57839D01*
X51135Y57804D01*
X51258Y57757D01*
X51381Y57699D01*
X51440Y57658D01*
X51498Y57611D01*
X51504D01*
X51510Y57599D01*
X51545Y57564D01*
X51592Y57506D01*
X51650Y57429D01*
X51715Y57330D01*
X51767Y57213D01*
X51820Y57073D01*
X51849Y56915D01*
X51381Y56880D01*
Y56885D01*
Y56891D01*
X51370Y56926D01*
X51352Y56973D01*
X51334Y57032D01*
X51276Y57166D01*
X51241Y57225D01*
X51200Y57277D01*
X51194Y57289D01*
X51165Y57312D01*
X51124Y57342D01*
X51071Y57383D01*
X51001Y57418D01*
X50919Y57453D01*
X50826Y57476D01*
X50726Y57482D01*
X50685D01*
X50644Y57476D01*
X50591Y57464D01*
X50527Y57453D01*
X50457Y57429D01*
X50393Y57394D01*
X50322Y57353D01*
X50311Y57348D01*
X50287Y57324D01*
X50246Y57283D01*
X50200Y57231D01*
X50141Y57166D01*
X50082Y57084D01*
X50024Y56985D01*
X49971Y56874D01*
Y56868D01*
X49966Y56862D01*
X49960Y56839D01*
X49954Y56815D01*
X49942Y56786D01*
X49930Y56745D01*
X49919Y56698D01*
X49907Y56646D01*
X49895Y56587D01*
X49884Y56523D01*
X49872Y56447D01*
X49860Y56371D01*
X49854Y56283D01*
X49848Y56189D01*
X49843Y56090D01*
Y55990D01*
X49848Y55996D01*
X49872Y56025D01*
X49907Y56072D01*
X49960Y56131D01*
X50018Y56195D01*
X50088Y56259D01*
X50170Y56318D01*
X50258Y56371D01*
X50270Y56376D01*
X50299Y56388D01*
X50352Y56411D01*
X50416Y56435D01*
X50492Y56458D01*
X50580Y56482D01*
X50673Y56493D01*
X50773Y56499D01*
X50820D01*
X50855Y56493D01*
X50896Y56488D01*
X50942Y56482D01*
X51054Y56458D01*
X51176Y56411D01*
X51247Y56388D01*
X51311Y56353D01*
X51381Y56312D01*
X51451Y56265D01*
X51516Y56213D01*
X51580Y56148D01*
X51586Y56142D01*
X51592Y56131D01*
X51609Y56113D01*
X51633Y56084D01*
X51656Y56049D01*
X51685Y56008D01*
X51715Y55961D01*
X51750Y55908D01*
X51779Y55844D01*
X51808Y55780D01*
X51837Y55704D01*
X51861Y55628D01*
X51884Y55540D01*
X51902Y55452D01*
X51908Y55353D01*
X51913Y55253D01*
Y55247D01*
Y55236D01*
Y55218D01*
Y55195D01*
X51908Y55160D01*
Y55124D01*
X51896Y55031D01*
X51873Y54931D01*
X51849Y54814D01*
X51808Y54698D01*
X51756Y54580D01*
Y54575D01*
X51750Y54569D01*
X51738Y54551D01*
X51726Y54528D01*
X51691Y54475D01*
X51644Y54405D01*
X51580Y54329D01*
X51504Y54253D01*
X51422Y54177D01*
X51323Y54107D01*
X51311Y54101D01*
X51276Y54083D01*
X51217Y54054D01*
X51147Y54025D01*
X51054Y53996D01*
X50948Y53966D01*
X50831Y53949D01*
X50708Y53943D01*
X50685D01*
X50650Y53949D01*
X50609D01*
X50562Y53954D01*
X50504Y53966D01*
X50439Y53978D01*
X50369Y53996D01*
X50293Y54019D01*
X50211Y54048D01*
X50135Y54083D01*
X50053Y54124D01*
X49971Y54177D01*
X49889Y54235D01*
X49813Y54300D01*
X49743Y54376D01*
X49737Y54382D01*
X49726Y54399D01*
X49708Y54422D01*
X49685Y54458D01*
X49656Y54504D01*
X49626Y54563D01*
X49591Y54633D01*
X49562Y54715D01*
X49527Y54809D01*
X49492Y54914D01*
X49462Y55031D01*
X49433Y55160D01*
X49410Y55300D01*
X49392Y55458D01*
X49380Y55622D01*
X49375Y55803D01*
Y55809D01*
Y55815D01*
Y55832D01*
Y55850D01*
Y55908D01*
X49380Y55984D01*
X49386Y56078D01*
X49398Y56183D01*
X49410Y56300D01*
X49427Y56423D01*
X49445Y56558D01*
X49474Y56692D01*
X49509Y56827D01*
X49550Y56956D01*
X49597Y57090D01*
X49650Y57207D01*
X49714Y57324D01*
X49784Y57424D01*
X49790Y57429D01*
X49802Y57441D01*
X49819Y57464D01*
X49848Y57494D01*
X49889Y57529D01*
X49930Y57564D01*
X49983Y57605D01*
X50042Y57646D01*
X50106Y57687D01*
X50182Y57728D01*
X50258Y57763D01*
X50346Y57798D01*
X50439Y57827D01*
X50539Y57851D01*
X50644Y57862D01*
X50755Y57868D01*
X50796D01*
X50831Y57862D01*
D02*
G37*
G36*
X47555Y57845D02*
X47602D01*
X47719Y57839D01*
X47842Y57827D01*
X47971Y57804D01*
X48094Y57780D01*
X48152Y57763D01*
X48205Y57745D01*
X48210D01*
X48216Y57740D01*
X48251Y57728D01*
X48298Y57699D01*
X48357Y57658D01*
X48427Y57611D01*
X48497Y57546D01*
X48567Y57470D01*
X48632Y57377D01*
X48638Y57365D01*
X48655Y57330D01*
X48684Y57277D01*
X48714Y57207D01*
X48743Y57119D01*
X48772Y57020D01*
X48790Y56915D01*
X48796Y56798D01*
Y56792D01*
Y56780D01*
Y56757D01*
X48790Y56727D01*
Y56692D01*
X48784Y56651D01*
X48760Y56558D01*
X48731Y56447D01*
X48684Y56336D01*
X48614Y56218D01*
X48573Y56160D01*
X48526Y56107D01*
X48515Y56096D01*
X48497Y56084D01*
X48480Y56060D01*
X48450Y56043D01*
X48415Y56014D01*
X48374Y55990D01*
X48327Y55961D01*
X48275Y55932D01*
X48210Y55903D01*
X48146Y55873D01*
X48070Y55844D01*
X47994Y55815D01*
X47906Y55791D01*
X47813Y55774D01*
X47713Y55756D01*
X47725Y55751D01*
X47748Y55739D01*
X47783Y55721D01*
X47824Y55698D01*
X47924Y55633D01*
X47976Y55598D01*
X48017Y55563D01*
X48029Y55552D01*
X48058Y55528D01*
X48099Y55481D01*
X48152Y55423D01*
X48216Y55347D01*
X48287Y55259D01*
X48363Y55160D01*
X48439Y55049D01*
X49106Y54007D01*
X48468D01*
X47959Y54803D01*
Y54809D01*
X47947Y54820D01*
X47936Y54838D01*
X47924Y54861D01*
X47883Y54920D01*
X47830Y54996D01*
X47772Y55084D01*
X47707Y55171D01*
X47649Y55253D01*
X47590Y55329D01*
X47585Y55335D01*
X47567Y55358D01*
X47538Y55394D01*
X47508Y55435D01*
X47421Y55516D01*
X47380Y55557D01*
X47333Y55587D01*
X47327Y55593D01*
X47315Y55598D01*
X47292Y55610D01*
X47263Y55628D01*
X47193Y55663D01*
X47105Y55692D01*
X47099D01*
X47087Y55698D01*
X47064D01*
X47035Y55704D01*
X46994Y55709D01*
X46947D01*
X46888Y55715D01*
X46233D01*
Y54007D01*
X45724D01*
Y57851D01*
X47508D01*
X47555Y57845D01*
D02*
G37*
G36*
X68282Y57350D02*
X66750D01*
X66539Y56315D01*
X66545Y56321D01*
X66557Y56327D01*
X66574Y56338D01*
X66597Y56356D01*
X66633Y56374D01*
X66668Y56391D01*
X66761Y56438D01*
X66867Y56485D01*
X66989Y56520D01*
X67124Y56549D01*
X67264Y56561D01*
X67311D01*
X67346Y56555D01*
X67393Y56549D01*
X67440Y56543D01*
X67498Y56532D01*
X67557Y56520D01*
X67691Y56473D01*
X67762Y56450D01*
X67832Y56415D01*
X67908Y56374D01*
X67978Y56327D01*
X68048Y56274D01*
X68113Y56210D01*
X68119Y56204D01*
X68130Y56192D01*
X68148Y56175D01*
X68165Y56145D01*
X68195Y56110D01*
X68224Y56069D01*
X68253Y56023D01*
X68288Y55970D01*
X68323Y55905D01*
X68353Y55841D01*
X68382Y55765D01*
X68411Y55689D01*
X68428Y55601D01*
X68446Y55514D01*
X68458Y55414D01*
X68464Y55315D01*
Y55309D01*
Y55291D01*
Y55262D01*
X68458Y55227D01*
X68452Y55180D01*
X68446Y55128D01*
X68440Y55069D01*
X68428Y55005D01*
X68388Y54864D01*
X68335Y54718D01*
X68300Y54636D01*
X68259Y54560D01*
X68212Y54484D01*
X68159Y54414D01*
X68154Y54408D01*
X68142Y54396D01*
X68119Y54373D01*
X68089Y54344D01*
X68054Y54308D01*
X68007Y54268D01*
X67955Y54227D01*
X67890Y54186D01*
X67826Y54139D01*
X67750Y54098D01*
X67662Y54057D01*
X67574Y54022D01*
X67475Y53993D01*
X67375Y53969D01*
X67264Y53957D01*
X67147Y53952D01*
X67095D01*
X67060Y53957D01*
X67019Y53963D01*
X66966Y53969D01*
X66908Y53975D01*
X66843Y53987D01*
X66709Y54022D01*
X66568Y54075D01*
X66498Y54110D01*
X66428Y54150D01*
X66358Y54191D01*
X66293Y54244D01*
X66287Y54250D01*
X66282Y54256D01*
X66264Y54273D01*
X66241Y54297D01*
X66217Y54326D01*
X66188Y54361D01*
X66159Y54402D01*
X66124Y54449D01*
X66059Y54560D01*
X65995Y54695D01*
X65948Y54847D01*
X65931Y54934D01*
X65919Y55022D01*
X66416Y55057D01*
Y55051D01*
Y55040D01*
X66422Y55022D01*
X66428Y54999D01*
X66445Y54934D01*
X66469Y54852D01*
X66498Y54765D01*
X66545Y54677D01*
X66597Y54589D01*
X66668Y54513D01*
X66679Y54507D01*
X66703Y54484D01*
X66744Y54461D01*
X66802Y54426D01*
X66872Y54396D01*
X66954Y54367D01*
X67048Y54344D01*
X67147Y54338D01*
X67182D01*
X67206Y54344D01*
X67270Y54349D01*
X67352Y54367D01*
X67440Y54402D01*
X67539Y54443D01*
X67633Y54507D01*
X67680Y54542D01*
X67726Y54589D01*
Y54595D01*
X67738Y54601D01*
X67762Y54636D01*
X67803Y54695D01*
X67844Y54771D01*
X67884Y54870D01*
X67925Y54987D01*
X67949Y55122D01*
X67961Y55274D01*
Y55280D01*
Y55291D01*
Y55315D01*
X67955Y55338D01*
Y55373D01*
X67949Y55414D01*
X67931Y55508D01*
X67908Y55607D01*
X67867Y55712D01*
X67808Y55818D01*
X67732Y55911D01*
X67721Y55923D01*
X67691Y55946D01*
X67645Y55987D01*
X67574Y56028D01*
X67493Y56069D01*
X67387Y56110D01*
X67270Y56134D01*
X67141Y56145D01*
X67101D01*
X67060Y56139D01*
X67001Y56134D01*
X66937Y56116D01*
X66867Y56099D01*
X66796Y56069D01*
X66726Y56034D01*
X66720Y56028D01*
X66697Y56017D01*
X66662Y55993D01*
X66621Y55964D01*
X66580Y55923D01*
X66533Y55876D01*
X66486Y55824D01*
X66445Y55765D01*
X66001Y55830D01*
X66375Y57801D01*
X68282D01*
Y57350D01*
D02*
G37*
G36*
X64076Y57854D02*
X64123D01*
X64240Y57848D01*
X64363Y57836D01*
X64491Y57813D01*
X64614Y57789D01*
X64673Y57772D01*
X64726Y57754D01*
X64731D01*
X64737Y57748D01*
X64772Y57737D01*
X64819Y57707D01*
X64878Y57666D01*
X64948Y57620D01*
X65018Y57555D01*
X65088Y57479D01*
X65153Y57386D01*
X65158Y57374D01*
X65176Y57339D01*
X65205Y57286D01*
X65234Y57216D01*
X65264Y57128D01*
X65293Y57029D01*
X65311Y56923D01*
X65316Y56806D01*
Y56801D01*
Y56789D01*
Y56766D01*
X65311Y56736D01*
Y56701D01*
X65305Y56660D01*
X65281Y56567D01*
X65252Y56455D01*
X65205Y56344D01*
X65135Y56227D01*
X65094Y56169D01*
X65047Y56116D01*
X65035Y56104D01*
X65018Y56093D01*
X65000Y56069D01*
X64971Y56052D01*
X64936Y56023D01*
X64895Y55999D01*
X64848Y55970D01*
X64796Y55941D01*
X64731Y55911D01*
X64667Y55882D01*
X64591Y55853D01*
X64515Y55824D01*
X64427Y55800D01*
X64333Y55783D01*
X64234Y55765D01*
X64246Y55759D01*
X64269Y55748D01*
X64304Y55730D01*
X64345Y55707D01*
X64445Y55642D01*
X64497Y55607D01*
X64538Y55572D01*
X64550Y55560D01*
X64579Y55537D01*
X64620Y55490D01*
X64673Y55432D01*
X64737Y55356D01*
X64807Y55268D01*
X64883Y55168D01*
X64960Y55057D01*
X65626Y54016D01*
X64989D01*
X64480Y54812D01*
Y54817D01*
X64468Y54829D01*
X64456Y54847D01*
X64445Y54870D01*
X64404Y54929D01*
X64351Y55005D01*
X64293Y55092D01*
X64228Y55180D01*
X64170Y55262D01*
X64111Y55338D01*
X64105Y55344D01*
X64088Y55367D01*
X64059Y55402D01*
X64029Y55443D01*
X63942Y55525D01*
X63901Y55566D01*
X63854Y55595D01*
X63848Y55601D01*
X63836Y55607D01*
X63813Y55619D01*
X63784Y55636D01*
X63713Y55672D01*
X63626Y55701D01*
X63620D01*
X63608Y55707D01*
X63585D01*
X63556Y55712D01*
X63515Y55718D01*
X63468D01*
X63409Y55724D01*
X62754D01*
Y54016D01*
X62245D01*
Y57859D01*
X64029D01*
X64076Y57854D01*
D02*
G37*
G36*
X72263Y58474D02*
X73182D01*
Y58000D01*
X72263D01*
Y56333D01*
X71830D01*
X69344Y58088D01*
Y58474D01*
X71830D01*
Y58994D01*
X72263D01*
Y58474D01*
D02*
G37*
G36*
X73182Y55560D02*
X72386Y55051D01*
X72380D01*
X72368Y55040D01*
X72351Y55028D01*
X72328Y55016D01*
X72269Y54975D01*
X72193Y54923D01*
X72105Y54864D01*
X72017Y54800D01*
X71935Y54741D01*
X71860Y54683D01*
X71854Y54677D01*
X71830Y54659D01*
X71795Y54630D01*
X71754Y54601D01*
X71672Y54513D01*
X71631Y54472D01*
X71602Y54426D01*
X71596Y54420D01*
X71590Y54408D01*
X71579Y54384D01*
X71561Y54355D01*
X71526Y54285D01*
X71497Y54197D01*
Y54191D01*
X71491Y54180D01*
Y54156D01*
X71485Y54127D01*
X71479Y54086D01*
Y54039D01*
X71473Y53981D01*
Y53326D01*
X73182D01*
Y52817D01*
X69338D01*
Y54601D01*
X69344Y54648D01*
Y54695D01*
X69350Y54812D01*
X69362Y54934D01*
X69385Y55063D01*
X69408Y55186D01*
X69426Y55244D01*
X69443Y55297D01*
Y55303D01*
X69449Y55309D01*
X69461Y55344D01*
X69490Y55391D01*
X69531Y55449D01*
X69578Y55519D01*
X69642Y55590D01*
X69718Y55660D01*
X69812Y55724D01*
X69824Y55730D01*
X69859Y55748D01*
X69911Y55777D01*
X69982Y55806D01*
X70069Y55835D01*
X70169Y55865D01*
X70274Y55882D01*
X70391Y55888D01*
X70397D01*
X70409D01*
X70432D01*
X70461Y55882D01*
X70496D01*
X70537Y55876D01*
X70631Y55853D01*
X70742Y55824D01*
X70853Y55777D01*
X70970Y55707D01*
X71029Y55666D01*
X71081Y55619D01*
X71093Y55607D01*
X71105Y55590D01*
X71128Y55572D01*
X71146Y55543D01*
X71175Y55508D01*
X71198Y55467D01*
X71228Y55420D01*
X71257Y55367D01*
X71286Y55303D01*
X71315Y55239D01*
X71345Y55163D01*
X71374Y55086D01*
X71397Y54999D01*
X71415Y54905D01*
X71432Y54806D01*
X71438Y54817D01*
X71450Y54841D01*
X71468Y54876D01*
X71491Y54917D01*
X71555Y55016D01*
X71590Y55069D01*
X71626Y55110D01*
X71637Y55122D01*
X71661Y55151D01*
X71707Y55192D01*
X71766Y55244D01*
X71842Y55309D01*
X71930Y55379D01*
X72029Y55455D01*
X72140Y55531D01*
X73182Y56198D01*
Y55560D01*
D02*
G37*
G36*
X86278Y58994D02*
X86325Y58988D01*
X86372Y58983D01*
X86431Y58971D01*
X86489Y58953D01*
X86624Y58912D01*
X86700Y58883D01*
X86770Y58842D01*
X86840Y58801D01*
X86910Y58754D01*
X86980Y58696D01*
X87051Y58632D01*
X87056Y58626D01*
X87068Y58614D01*
X87080Y58596D01*
X87103Y58567D01*
X87133Y58532D01*
X87162Y58485D01*
X87191Y58433D01*
X87220Y58380D01*
X87255Y58316D01*
X87285Y58245D01*
X87314Y58170D01*
X87343Y58088D01*
X87366Y58000D01*
X87378Y57906D01*
X87390Y57807D01*
X87396Y57707D01*
Y57661D01*
X87390Y57625D01*
X87384Y57579D01*
X87378Y57532D01*
X87372Y57473D01*
X87361Y57415D01*
X87326Y57280D01*
X87267Y57140D01*
X87238Y57070D01*
X87197Y57005D01*
X87150Y56935D01*
X87097Y56871D01*
X87091Y56865D01*
X87086Y56859D01*
X87068Y56841D01*
X87045Y56818D01*
X87010Y56795D01*
X86975Y56766D01*
X86934Y56730D01*
X86887Y56701D01*
X86770Y56631D01*
X86635Y56572D01*
X86483Y56520D01*
X86401Y56502D01*
X86313Y56490D01*
X86249Y56964D01*
X86255D01*
X86267Y56970D01*
X86290D01*
X86313Y56982D01*
X86384Y56999D01*
X86471Y57029D01*
X86565Y57064D01*
X86664Y57111D01*
X86752Y57169D01*
X86828Y57234D01*
X86834Y57245D01*
X86857Y57269D01*
X86881Y57310D01*
X86916Y57368D01*
X86945Y57432D01*
X86975Y57514D01*
X86998Y57608D01*
X87004Y57707D01*
Y57742D01*
X86998Y57766D01*
X86992Y57824D01*
X86975Y57900D01*
X86945Y57994D01*
X86910Y58088D01*
X86852Y58181D01*
X86776Y58269D01*
X86764Y58281D01*
X86735Y58304D01*
X86688Y58339D01*
X86618Y58386D01*
X86536Y58427D01*
X86436Y58462D01*
X86325Y58485D01*
X86202Y58497D01*
X86197D01*
X86191D01*
X86173D01*
X86150Y58491D01*
X86091Y58485D01*
X86015Y58468D01*
X85933Y58444D01*
X85840Y58403D01*
X85752Y58351D01*
X85670Y58281D01*
X85658Y58269D01*
X85635Y58245D01*
X85606Y58199D01*
X85565Y58134D01*
X85524Y58058D01*
X85495Y57965D01*
X85471Y57865D01*
X85459Y57748D01*
Y57696D01*
X85465Y57655D01*
X85471Y57608D01*
X85477Y57549D01*
X85489Y57485D01*
X85506Y57415D01*
X85091Y57468D01*
Y57497D01*
X85097Y57520D01*
Y57596D01*
X85091Y57649D01*
X85079Y57725D01*
X85062Y57807D01*
X85032Y57894D01*
X84997Y57988D01*
X84945Y58082D01*
X84939Y58093D01*
X84915Y58123D01*
X84874Y58158D01*
X84822Y58205D01*
X84757Y58251D01*
X84676Y58286D01*
X84576Y58316D01*
X84459Y58327D01*
X84453D01*
X84447D01*
X84418D01*
X84371Y58316D01*
X84307Y58304D01*
X84243Y58286D01*
X84172Y58251D01*
X84096Y58210D01*
X84032Y58152D01*
X84026Y58146D01*
X84003Y58123D01*
X83973Y58082D01*
X83944Y58029D01*
X83909Y57965D01*
X83886Y57889D01*
X83862Y57801D01*
X83856Y57701D01*
Y57655D01*
X83868Y57602D01*
X83880Y57543D01*
X83897Y57468D01*
X83933Y57391D01*
X83973Y57315D01*
X84032Y57239D01*
X84038Y57234D01*
X84061Y57210D01*
X84102Y57181D01*
X84161Y57146D01*
X84231Y57105D01*
X84319Y57070D01*
X84424Y57035D01*
X84547Y57011D01*
X84465Y56537D01*
X84459D01*
X84442Y56543D01*
X84418Y56549D01*
X84389Y56555D01*
X84348Y56567D01*
X84301Y56578D01*
X84196Y56619D01*
X84079Y56666D01*
X83956Y56736D01*
X83839Y56818D01*
X83734Y56923D01*
X83728Y56929D01*
X83722Y56935D01*
X83710Y56953D01*
X83693Y56982D01*
X83675Y57011D01*
X83652Y57046D01*
X83599Y57134D01*
X83552Y57245D01*
X83511Y57380D01*
X83482Y57526D01*
X83470Y57608D01*
Y57742D01*
X83476Y57801D01*
X83488Y57877D01*
X83505Y57965D01*
X83529Y58064D01*
X83564Y58164D01*
X83611Y58263D01*
Y58269D01*
X83617Y58275D01*
X83634Y58310D01*
X83663Y58357D01*
X83704Y58415D01*
X83757Y58479D01*
X83821Y58550D01*
X83897Y58614D01*
X83979Y58673D01*
X83991Y58678D01*
X84020Y58696D01*
X84067Y58719D01*
X84126Y58743D01*
X84202Y58766D01*
X84284Y58790D01*
X84371Y58807D01*
X84471Y58813D01*
X84482D01*
X84512D01*
X84558Y58807D01*
X84617Y58795D01*
X84687Y58778D01*
X84763Y58754D01*
X84845Y58725D01*
X84921Y58678D01*
X84933Y58673D01*
X84956Y58655D01*
X84991Y58620D01*
X85038Y58579D01*
X85091Y58521D01*
X85144Y58456D01*
X85202Y58374D01*
X85249Y58281D01*
Y58286D01*
X85255Y58298D01*
Y58316D01*
X85266Y58339D01*
X85284Y58398D01*
X85319Y58474D01*
X85360Y58556D01*
X85418Y58643D01*
X85489Y58731D01*
X85576Y58807D01*
X85588Y58813D01*
X85623Y58836D01*
X85676Y58866D01*
X85746Y58907D01*
X85834Y58942D01*
X85939Y58971D01*
X86062Y58994D01*
X86197Y59000D01*
X86202D01*
X86220D01*
X86243D01*
X86278Y58994D01*
D02*
G37*
G36*
X87331Y55554D02*
X86536Y55046D01*
X86530D01*
X86518Y55034D01*
X86501Y55022D01*
X86477Y55010D01*
X86419Y54970D01*
X86343Y54917D01*
X86255Y54858D01*
X86167Y54794D01*
X86085Y54735D01*
X86009Y54677D01*
X86003Y54671D01*
X85980Y54654D01*
X85945Y54624D01*
X85904Y54595D01*
X85822Y54507D01*
X85781Y54466D01*
X85752Y54420D01*
X85746Y54414D01*
X85740Y54402D01*
X85729Y54379D01*
X85711Y54349D01*
X85676Y54279D01*
X85647Y54191D01*
Y54186D01*
X85641Y54174D01*
Y54150D01*
X85635Y54121D01*
X85629Y54080D01*
Y54033D01*
X85623Y53975D01*
Y53320D01*
X87331D01*
Y52811D01*
X83488D01*
Y54595D01*
X83494Y54642D01*
Y54689D01*
X83500Y54806D01*
X83511Y54929D01*
X83535Y55057D01*
X83558Y55180D01*
X83576Y55239D01*
X83593Y55291D01*
Y55297D01*
X83599Y55303D01*
X83611Y55338D01*
X83640Y55385D01*
X83681Y55443D01*
X83728Y55514D01*
X83792Y55584D01*
X83868Y55654D01*
X83962Y55718D01*
X83973Y55724D01*
X84009Y55742D01*
X84061Y55771D01*
X84131Y55800D01*
X84219Y55830D01*
X84319Y55859D01*
X84424Y55876D01*
X84541Y55882D01*
X84547D01*
X84558D01*
X84582D01*
X84611Y55876D01*
X84646D01*
X84687Y55870D01*
X84781Y55847D01*
X84892Y55818D01*
X85003Y55771D01*
X85120Y55701D01*
X85179Y55660D01*
X85231Y55613D01*
X85243Y55601D01*
X85255Y55584D01*
X85278Y55566D01*
X85296Y55537D01*
X85325Y55502D01*
X85348Y55461D01*
X85378Y55414D01*
X85407Y55361D01*
X85436Y55297D01*
X85465Y55233D01*
X85495Y55157D01*
X85524Y55081D01*
X85547Y54993D01*
X85565Y54899D01*
X85582Y54800D01*
X85588Y54812D01*
X85600Y54835D01*
X85617Y54870D01*
X85641Y54911D01*
X85705Y55010D01*
X85740Y55063D01*
X85775Y55104D01*
X85787Y55116D01*
X85810Y55145D01*
X85857Y55186D01*
X85916Y55239D01*
X85992Y55303D01*
X86080Y55373D01*
X86179Y55449D01*
X86290Y55525D01*
X87331Y56192D01*
Y55554D01*
D02*
G37*
G36*
X73613Y123185D02*
X73660Y123179D01*
X73713Y123173D01*
X73771Y123167D01*
X73836Y123149D01*
X73976Y123114D01*
X74122Y123062D01*
X74198Y123027D01*
X74269Y122986D01*
X74333Y122933D01*
X74397Y122880D01*
X74403Y122874D01*
X74409Y122869D01*
X74426Y122851D01*
X74450Y122828D01*
X74473Y122792D01*
X74502Y122757D01*
X74561Y122670D01*
X74620Y122558D01*
X74672Y122430D01*
X74713Y122284D01*
X74719Y122202D01*
X74725Y122120D01*
Y122108D01*
Y122079D01*
X74719Y122032D01*
X74713Y121974D01*
X74701Y121903D01*
X74684Y121827D01*
X74660Y121745D01*
X74625Y121663D01*
X74620Y121652D01*
X74608Y121623D01*
X74584Y121582D01*
X74549Y121523D01*
X74508Y121453D01*
X74456Y121371D01*
X74385Y121289D01*
X74309Y121195D01*
X74298Y121184D01*
X74269Y121149D01*
X74216Y121096D01*
X74181Y121061D01*
X74140Y121020D01*
X74093Y120973D01*
X74035Y120921D01*
X73976Y120868D01*
X73912Y120803D01*
X73841Y120739D01*
X73760Y120669D01*
X73678Y120599D01*
X73584Y120517D01*
X73578Y120511D01*
X73567Y120499D01*
X73543Y120482D01*
X73514Y120458D01*
X73444Y120400D01*
X73356Y120324D01*
X73268Y120242D01*
X73175Y120160D01*
X73098Y120090D01*
X73069Y120061D01*
X73040Y120031D01*
X73034Y120026D01*
X73022Y120008D01*
X72999Y119984D01*
X72970Y119949D01*
X72905Y119873D01*
X72841Y119780D01*
X74731D01*
Y119329D01*
X72186D01*
Y119335D01*
Y119359D01*
Y119394D01*
X72192Y119435D01*
X72198Y119481D01*
X72203Y119534D01*
X72221Y119593D01*
X72238Y119651D01*
Y119657D01*
X72244Y119663D01*
X72256Y119698D01*
X72280Y119745D01*
X72315Y119815D01*
X72356Y119891D01*
X72414Y119979D01*
X72473Y120066D01*
X72549Y120160D01*
Y120166D01*
X72560Y120172D01*
X72589Y120207D01*
X72636Y120259D01*
X72707Y120330D01*
X72794Y120412D01*
X72900Y120511D01*
X73028Y120622D01*
X73169Y120745D01*
X73175Y120751D01*
X73198Y120768D01*
X73227Y120792D01*
X73268Y120833D01*
X73321Y120874D01*
X73379Y120926D01*
X73508Y121037D01*
X73648Y121172D01*
X73789Y121307D01*
X73859Y121371D01*
X73918Y121435D01*
X73970Y121500D01*
X74017Y121558D01*
Y121564D01*
X74029Y121570D01*
X74040Y121587D01*
X74052Y121611D01*
X74087Y121669D01*
X74128Y121745D01*
X74169Y121833D01*
X74204Y121927D01*
X74227Y122032D01*
X74239Y122132D01*
Y122137D01*
Y122143D01*
X74233Y122178D01*
X74227Y122231D01*
X74216Y122295D01*
X74187Y122371D01*
X74151Y122447D01*
X74105Y122529D01*
X74035Y122605D01*
X74023Y122611D01*
X73999Y122635D01*
X73953Y122664D01*
X73894Y122705D01*
X73818Y122740D01*
X73730Y122769D01*
X73625Y122792D01*
X73508Y122798D01*
X73473D01*
X73449Y122792D01*
X73391Y122787D01*
X73315Y122775D01*
X73227Y122746D01*
X73134Y122711D01*
X73046Y122658D01*
X72964Y122588D01*
X72958Y122576D01*
X72935Y122553D01*
X72900Y122506D01*
X72865Y122441D01*
X72824Y122360D01*
X72794Y122266D01*
X72771Y122155D01*
X72759Y122026D01*
X72274Y122079D01*
Y122085D01*
Y122102D01*
X72280Y122132D01*
X72285Y122167D01*
X72297Y122213D01*
X72303Y122266D01*
X72338Y122383D01*
X72385Y122518D01*
X72449Y122652D01*
X72537Y122787D01*
X72584Y122845D01*
X72642Y122904D01*
X72648Y122909D01*
X72660Y122915D01*
X72677Y122933D01*
X72701Y122950D01*
X72736Y122968D01*
X72777Y122997D01*
X72824Y123021D01*
X72876Y123050D01*
X72935Y123073D01*
X72999Y123103D01*
X73075Y123126D01*
X73151Y123143D01*
X73327Y123179D01*
X73420Y123185D01*
X73520Y123190D01*
X73572D01*
X73613Y123185D01*
D02*
G37*
G36*
X70407Y123167D02*
X70454D01*
X70571Y123161D01*
X70694Y123149D01*
X70823Y123126D01*
X70946Y123103D01*
X71004Y123085D01*
X71057Y123067D01*
X71063D01*
X71069Y123062D01*
X71104Y123050D01*
X71150Y123021D01*
X71209Y122980D01*
X71279Y122933D01*
X71349Y122869D01*
X71420Y122792D01*
X71484Y122699D01*
X71490Y122687D01*
X71507Y122652D01*
X71536Y122599D01*
X71566Y122529D01*
X71595Y122441D01*
X71624Y122342D01*
X71642Y122237D01*
X71648Y122120D01*
Y122114D01*
Y122102D01*
Y122079D01*
X71642Y122050D01*
Y122014D01*
X71636Y121974D01*
X71613Y121880D01*
X71583Y121769D01*
X71536Y121658D01*
X71466Y121541D01*
X71425Y121482D01*
X71379Y121430D01*
X71367Y121418D01*
X71349Y121406D01*
X71332Y121383D01*
X71302Y121365D01*
X71267Y121336D01*
X71227Y121312D01*
X71180Y121283D01*
X71127Y121254D01*
X71063Y121225D01*
X70998Y121195D01*
X70922Y121166D01*
X70846Y121137D01*
X70758Y121114D01*
X70665Y121096D01*
X70565Y121079D01*
X70577Y121073D01*
X70600Y121061D01*
X70636Y121043D01*
X70677Y121020D01*
X70776Y120956D01*
X70829Y120921D01*
X70870Y120885D01*
X70881Y120874D01*
X70911Y120850D01*
X70951Y120803D01*
X71004Y120745D01*
X71069Y120669D01*
X71139Y120581D01*
X71215Y120482D01*
X71291Y120371D01*
X71958Y119329D01*
X71320D01*
X70811Y120125D01*
Y120131D01*
X70799Y120142D01*
X70788Y120160D01*
X70776Y120183D01*
X70735Y120242D01*
X70682Y120318D01*
X70624Y120406D01*
X70560Y120493D01*
X70501Y120575D01*
X70443Y120651D01*
X70437Y120657D01*
X70419Y120681D01*
X70390Y120716D01*
X70361Y120757D01*
X70273Y120839D01*
X70232Y120880D01*
X70185Y120909D01*
X70179Y120915D01*
X70168Y120921D01*
X70144Y120932D01*
X70115Y120950D01*
X70045Y120985D01*
X69957Y121014D01*
X69951D01*
X69940Y121020D01*
X69916D01*
X69887Y121026D01*
X69846Y121032D01*
X69799D01*
X69741Y121037D01*
X69085D01*
Y119329D01*
X68576D01*
Y123173D01*
X70361D01*
X70407Y123167D01*
D02*
G37*
G36*
X100827Y145616D02*
X100353D01*
Y148623D01*
X100347Y148617D01*
X100324Y148594D01*
X100283Y148565D01*
X100230Y148524D01*
X100166Y148471D01*
X100090Y148419D01*
X100002Y148354D01*
X99903Y148296D01*
X99897D01*
X99891Y148290D01*
X99856Y148266D01*
X99803Y148237D01*
X99739Y148202D01*
X99663Y148161D01*
X99581Y148126D01*
X99493Y148085D01*
X99411Y148050D01*
Y148512D01*
X99417D01*
X99429Y148518D01*
X99452Y148530D01*
X99476Y148547D01*
X99511Y148565D01*
X99552Y148582D01*
X99645Y148635D01*
X99751Y148699D01*
X99868Y148775D01*
X99985Y148863D01*
X100096Y148957D01*
X100102Y148963D01*
X100108Y148969D01*
X100143Y149004D01*
X100195Y149056D01*
X100260Y149121D01*
X100330Y149203D01*
X100400Y149290D01*
X100464Y149384D01*
X100517Y149477D01*
X100827D01*
Y145616D01*
D02*
G37*
G36*
X97206Y149454D02*
X97253D01*
X97370Y149448D01*
X97492Y149436D01*
X97621Y149413D01*
X97744Y149390D01*
X97803Y149372D01*
X97855Y149355D01*
X97861D01*
X97867Y149349D01*
X97902Y149337D01*
X97949Y149308D01*
X98007Y149267D01*
X98077Y149220D01*
X98148Y149156D01*
X98218Y149080D01*
X98282Y148986D01*
X98288Y148974D01*
X98306Y148939D01*
X98335Y148887D01*
X98364Y148816D01*
X98393Y148729D01*
X98423Y148629D01*
X98440Y148524D01*
X98446Y148407D01*
Y148401D01*
Y148389D01*
Y148366D01*
X98440Y148337D01*
Y148302D01*
X98434Y148261D01*
X98411Y148167D01*
X98382Y148056D01*
X98335Y147945D01*
X98265Y147828D01*
X98224Y147769D01*
X98177Y147717D01*
X98165Y147705D01*
X98148Y147693D01*
X98130Y147670D01*
X98101Y147652D01*
X98066Y147623D01*
X98025Y147600D01*
X97978Y147570D01*
X97925Y147541D01*
X97861Y147512D01*
X97797Y147483D01*
X97721Y147453D01*
X97645Y147424D01*
X97557Y147401D01*
X97463Y147383D01*
X97364Y147366D01*
X97376Y147360D01*
X97399Y147348D01*
X97434Y147330D01*
X97475Y147307D01*
X97574Y147243D01*
X97627Y147208D01*
X97668Y147172D01*
X97680Y147161D01*
X97709Y147137D01*
X97750Y147091D01*
X97803Y147032D01*
X97867Y146956D01*
X97937Y146868D01*
X98013Y146769D01*
X98089Y146658D01*
X98756Y145616D01*
X98119D01*
X97610Y146412D01*
Y146418D01*
X97598Y146430D01*
X97586Y146447D01*
X97574Y146470D01*
X97534Y146529D01*
X97481Y146605D01*
X97422Y146693D01*
X97358Y146781D01*
X97299Y146862D01*
X97241Y146939D01*
X97235Y146944D01*
X97218Y146968D01*
X97188Y147003D01*
X97159Y147044D01*
X97071Y147126D01*
X97030Y147167D01*
X96984Y147196D01*
X96978Y147202D01*
X96966Y147208D01*
X96943Y147219D01*
X96913Y147237D01*
X96843Y147272D01*
X96755Y147301D01*
X96750D01*
X96738Y147307D01*
X96715D01*
X96685Y147313D01*
X96644Y147319D01*
X96597D01*
X96539Y147325D01*
X95884D01*
Y145616D01*
X95375D01*
Y149460D01*
X97159D01*
X97206Y149454D01*
D02*
G37*
G36*
X121951Y120386D02*
X120419D01*
X120208Y119350D01*
X120214Y119356D01*
X120226Y119362D01*
X120243Y119374D01*
X120266Y119391D01*
X120302Y119409D01*
X120337Y119426D01*
X120430Y119473D01*
X120536Y119520D01*
X120659Y119555D01*
X120793Y119584D01*
X120933Y119596D01*
X120980D01*
X121015Y119590D01*
X121062Y119584D01*
X121109Y119578D01*
X121167Y119567D01*
X121226Y119555D01*
X121361Y119508D01*
X121431Y119485D01*
X121501Y119450D01*
X121577Y119409D01*
X121647Y119362D01*
X121717Y119309D01*
X121782Y119245D01*
X121788Y119239D01*
X121799Y119227D01*
X121817Y119210D01*
X121834Y119181D01*
X121864Y119146D01*
X121893Y119105D01*
X121922Y119058D01*
X121957Y119005D01*
X121992Y118941D01*
X122021Y118876D01*
X122051Y118800D01*
X122080Y118724D01*
X122098Y118637D01*
X122115Y118549D01*
X122127Y118449D01*
X122133Y118350D01*
Y118344D01*
Y118326D01*
Y118297D01*
X122127Y118262D01*
X122121Y118215D01*
X122115Y118163D01*
X122109Y118104D01*
X122098Y118040D01*
X122057Y117899D01*
X122004Y117753D01*
X121969Y117671D01*
X121928Y117595D01*
X121881Y117519D01*
X121828Y117449D01*
X121823Y117443D01*
X121811Y117431D01*
X121788Y117408D01*
X121758Y117379D01*
X121723Y117344D01*
X121676Y117303D01*
X121624Y117262D01*
X121559Y117221D01*
X121495Y117174D01*
X121419Y117133D01*
X121331Y117092D01*
X121244Y117057D01*
X121144Y117028D01*
X121045Y117004D01*
X120933Y116993D01*
X120816Y116987D01*
X120764D01*
X120729Y116993D01*
X120688Y116999D01*
X120635Y117004D01*
X120577Y117010D01*
X120512Y117022D01*
X120378Y117057D01*
X120237Y117110D01*
X120167Y117145D01*
X120097Y117186D01*
X120027Y117227D01*
X119962Y117279D01*
X119957Y117285D01*
X119951Y117291D01*
X119933Y117309D01*
X119910Y117332D01*
X119886Y117361D01*
X119857Y117396D01*
X119828Y117437D01*
X119793Y117484D01*
X119728Y117595D01*
X119664Y117730D01*
X119617Y117882D01*
X119600Y117970D01*
X119588Y118057D01*
X120085Y118093D01*
Y118087D01*
Y118075D01*
X120091Y118057D01*
X120097Y118034D01*
X120114Y117970D01*
X120138Y117888D01*
X120167Y117800D01*
X120214Y117712D01*
X120266Y117624D01*
X120337Y117548D01*
X120348Y117543D01*
X120372Y117519D01*
X120413Y117496D01*
X120471Y117461D01*
X120542Y117431D01*
X120623Y117402D01*
X120717Y117379D01*
X120816Y117373D01*
X120852D01*
X120875Y117379D01*
X120939Y117385D01*
X121021Y117402D01*
X121109Y117437D01*
X121208Y117478D01*
X121302Y117543D01*
X121349Y117578D01*
X121396Y117624D01*
Y117630D01*
X121407Y117636D01*
X121431Y117671D01*
X121472Y117730D01*
X121513Y117806D01*
X121554Y117905D01*
X121595Y118022D01*
X121618Y118157D01*
X121630Y118309D01*
Y118315D01*
Y118326D01*
Y118350D01*
X121624Y118373D01*
Y118408D01*
X121618Y118449D01*
X121600Y118543D01*
X121577Y118642D01*
X121536Y118748D01*
X121477Y118853D01*
X121401Y118947D01*
X121390Y118958D01*
X121361Y118982D01*
X121314Y119023D01*
X121244Y119064D01*
X121162Y119105D01*
X121056Y119146D01*
X120939Y119169D01*
X120811Y119181D01*
X120770D01*
X120729Y119175D01*
X120670Y119169D01*
X120606Y119151D01*
X120536Y119134D01*
X120465Y119105D01*
X120395Y119069D01*
X120389Y119064D01*
X120366Y119052D01*
X120331Y119028D01*
X120290Y118999D01*
X120249Y118958D01*
X120202Y118912D01*
X120155Y118859D01*
X120114Y118800D01*
X119670Y118865D01*
X120044Y120836D01*
X121951D01*
Y120386D01*
D02*
G37*
G36*
X117862Y120889D02*
X117956Y120883D01*
X118055Y120877D01*
X118149Y120865D01*
X118231Y120854D01*
X118242D01*
X118278Y120842D01*
X118330Y120830D01*
X118394Y120813D01*
X118471Y120789D01*
X118547Y120760D01*
X118629Y120719D01*
X118705Y120672D01*
X118710Y120667D01*
X118740Y120649D01*
X118775Y120620D01*
X118816Y120579D01*
X118862Y120526D01*
X118915Y120462D01*
X118968Y120391D01*
X119015Y120304D01*
X119020Y120292D01*
X119032Y120263D01*
X119050Y120216D01*
X119073Y120152D01*
X119097Y120076D01*
X119114Y119988D01*
X119126Y119888D01*
X119132Y119783D01*
Y119777D01*
Y119760D01*
Y119736D01*
X119126Y119701D01*
X119120Y119660D01*
X119114Y119608D01*
X119108Y119555D01*
X119091Y119497D01*
X119056Y119362D01*
X118997Y119227D01*
X118962Y119157D01*
X118921Y119087D01*
X118874Y119017D01*
X118816Y118952D01*
X118810Y118947D01*
X118798Y118941D01*
X118781Y118923D01*
X118757Y118900D01*
X118716Y118876D01*
X118675Y118847D01*
X118623Y118818D01*
X118558Y118789D01*
X118488Y118754D01*
X118406Y118724D01*
X118313Y118695D01*
X118213Y118672D01*
X118096Y118648D01*
X117973Y118631D01*
X117839Y118625D01*
X117692Y118619D01*
X116710D01*
Y117051D01*
X116201D01*
Y120895D01*
X117774D01*
X117862Y120889D01*
D02*
G37*
G36*
X121571Y107302D02*
X122092D01*
Y106870D01*
X121571D01*
Y105951D01*
X121097D01*
Y106870D01*
X119430D01*
Y107302D01*
X121185Y109789D01*
X121571D01*
Y107302D01*
D02*
G37*
G36*
X117862Y109789D02*
X117956Y109783D01*
X118055Y109777D01*
X118149Y109765D01*
X118231Y109754D01*
X118242D01*
X118278Y109742D01*
X118330Y109730D01*
X118394Y109713D01*
X118471Y109689D01*
X118547Y109660D01*
X118629Y109619D01*
X118705Y109572D01*
X118710Y109566D01*
X118740Y109549D01*
X118775Y109520D01*
X118816Y109479D01*
X118862Y109426D01*
X118915Y109362D01*
X118968Y109292D01*
X119015Y109204D01*
X119020Y109192D01*
X119032Y109163D01*
X119050Y109116D01*
X119073Y109052D01*
X119097Y108976D01*
X119114Y108888D01*
X119126Y108788D01*
X119132Y108683D01*
Y108677D01*
Y108660D01*
Y108636D01*
X119126Y108601D01*
X119120Y108560D01*
X119114Y108508D01*
X119108Y108455D01*
X119091Y108396D01*
X119056Y108262D01*
X118997Y108127D01*
X118962Y108057D01*
X118921Y107987D01*
X118874Y107917D01*
X118816Y107852D01*
X118810Y107847D01*
X118798Y107841D01*
X118781Y107823D01*
X118757Y107800D01*
X118716Y107776D01*
X118675Y107747D01*
X118623Y107718D01*
X118558Y107689D01*
X118488Y107653D01*
X118406Y107624D01*
X118313Y107595D01*
X118213Y107572D01*
X118096Y107548D01*
X117973Y107531D01*
X117839Y107525D01*
X117692Y107519D01*
X116710D01*
Y105951D01*
X116201D01*
Y109795D01*
X117774D01*
X117862Y109789D01*
D02*
G37*
G36*
X121366Y128051D02*
X120893D01*
Y131058D01*
X120887Y131052D01*
X120863Y131029D01*
X120822Y131000D01*
X120770Y130959D01*
X120705Y130906D01*
X120629Y130853D01*
X120542Y130789D01*
X120442Y130730D01*
X120436D01*
X120430Y130725D01*
X120395Y130701D01*
X120343Y130672D01*
X120278Y130637D01*
X120202Y130596D01*
X120120Y130561D01*
X120033Y130520D01*
X119951Y130485D01*
Y130947D01*
X119957D01*
X119968Y130953D01*
X119992Y130965D01*
X120015Y130982D01*
X120050Y131000D01*
X120091Y131017D01*
X120185Y131070D01*
X120290Y131134D01*
X120407Y131210D01*
X120524Y131298D01*
X120635Y131392D01*
X120641Y131397D01*
X120647Y131403D01*
X120682Y131438D01*
X120735Y131491D01*
X120799Y131555D01*
X120869Y131637D01*
X120939Y131725D01*
X121004Y131819D01*
X121056Y131912D01*
X121366D01*
Y128051D01*
D02*
G37*
G36*
X117862Y131889D02*
X117956Y131883D01*
X118055Y131877D01*
X118149Y131865D01*
X118231Y131854D01*
X118242D01*
X118278Y131842D01*
X118330Y131830D01*
X118394Y131813D01*
X118471Y131789D01*
X118547Y131760D01*
X118629Y131719D01*
X118705Y131672D01*
X118710Y131667D01*
X118740Y131649D01*
X118775Y131620D01*
X118816Y131579D01*
X118862Y131526D01*
X118915Y131462D01*
X118968Y131392D01*
X119015Y131304D01*
X119020Y131292D01*
X119032Y131263D01*
X119050Y131216D01*
X119073Y131152D01*
X119097Y131076D01*
X119114Y130988D01*
X119126Y130888D01*
X119132Y130783D01*
Y130777D01*
Y130760D01*
Y130736D01*
X119126Y130701D01*
X119120Y130660D01*
X119114Y130608D01*
X119108Y130555D01*
X119091Y130497D01*
X119056Y130362D01*
X118997Y130227D01*
X118962Y130157D01*
X118921Y130087D01*
X118874Y130017D01*
X118816Y129952D01*
X118810Y129947D01*
X118798Y129941D01*
X118781Y129923D01*
X118757Y129900D01*
X118716Y129876D01*
X118675Y129847D01*
X118623Y129818D01*
X118558Y129789D01*
X118488Y129753D01*
X118406Y129724D01*
X118313Y129695D01*
X118213Y129672D01*
X118096Y129648D01*
X117973Y129631D01*
X117839Y129625D01*
X117692Y129619D01*
X116710D01*
Y128051D01*
X116201D01*
Y131895D01*
X117774D01*
X117862Y131889D01*
D02*
G37*
G36*
X95933Y25702D02*
Y25696D01*
Y25679D01*
Y25655D01*
Y25620D01*
X95927Y25579D01*
Y25533D01*
X95921Y25427D01*
X95904Y25304D01*
X95886Y25182D01*
X95857Y25059D01*
X95816Y24953D01*
X95810Y24942D01*
X95793Y24913D01*
X95763Y24866D01*
X95728Y24807D01*
X95676Y24737D01*
X95611Y24673D01*
X95530Y24608D01*
X95442Y24550D01*
X95430Y24544D01*
X95395Y24526D01*
X95342Y24509D01*
X95272Y24486D01*
X95184Y24456D01*
X95085Y24439D01*
X94968Y24421D01*
X94845Y24415D01*
X94798D01*
X94763Y24421D01*
X94722Y24427D01*
X94670Y24433D01*
X94558Y24450D01*
X94436Y24486D01*
X94307Y24538D01*
X94243Y24567D01*
X94184Y24608D01*
X94125Y24649D01*
X94073Y24702D01*
Y24708D01*
X94061Y24714D01*
X94049Y24731D01*
X94032Y24755D01*
X94008Y24790D01*
X93991Y24825D01*
X93962Y24872D01*
X93938Y24918D01*
X93915Y24977D01*
X93892Y25041D01*
X93868Y25111D01*
X93850Y25193D01*
X93833Y25275D01*
X93821Y25369D01*
X93815Y25462D01*
Y25568D01*
X94272Y25632D01*
Y25626D01*
Y25615D01*
Y25591D01*
X94278Y25562D01*
Y25527D01*
X94283Y25486D01*
X94301Y25392D01*
X94318Y25287D01*
X94348Y25188D01*
X94389Y25100D01*
X94412Y25059D01*
X94436Y25024D01*
X94441Y25018D01*
X94465Y25000D01*
X94494Y24971D01*
X94541Y24948D01*
X94599Y24918D01*
X94670Y24889D01*
X94751Y24872D01*
X94845Y24866D01*
X94880D01*
X94915Y24872D01*
X94956Y24877D01*
X95009Y24889D01*
X95067Y24901D01*
X95120Y24924D01*
X95173Y24953D01*
X95179Y24959D01*
X95196Y24971D01*
X95219Y24989D01*
X95249Y25018D01*
X95284Y25047D01*
X95313Y25088D01*
X95342Y25135D01*
X95366Y25188D01*
Y25193D01*
X95377Y25217D01*
X95383Y25252D01*
X95395Y25304D01*
X95407Y25375D01*
X95412Y25457D01*
X95424Y25556D01*
Y25673D01*
Y28323D01*
X95933D01*
Y25702D01*
D02*
G37*
G36*
X97899Y28335D02*
X97945D01*
X97992Y28323D01*
X98109Y28306D01*
X98238Y28270D01*
X98373Y28218D01*
X98443Y28183D01*
X98507Y28148D01*
X98571Y28101D01*
X98630Y28048D01*
X98636Y28042D01*
X98642Y28036D01*
X98659Y28019D01*
X98677Y27995D01*
X98700Y27966D01*
X98729Y27931D01*
X98788Y27849D01*
X98841Y27744D01*
X98893Y27621D01*
X98928Y27487D01*
X98934Y27411D01*
X98940Y27334D01*
Y27323D01*
Y27288D01*
X98934Y27241D01*
X98922Y27176D01*
X98905Y27100D01*
X98882Y27024D01*
X98846Y26943D01*
X98800Y26866D01*
X98794Y26861D01*
X98776Y26837D01*
X98741Y26802D01*
X98694Y26755D01*
X98636Y26708D01*
X98560Y26662D01*
X98472Y26609D01*
X98373Y26568D01*
X98378D01*
X98390Y26562D01*
X98408Y26556D01*
X98431Y26545D01*
X98495Y26515D01*
X98571Y26480D01*
X98659Y26428D01*
X98747Y26363D01*
X98835Y26281D01*
X98911Y26194D01*
X98917Y26182D01*
X98940Y26147D01*
X98969Y26094D01*
X99004Y26018D01*
X99040Y25930D01*
X99069Y25825D01*
X99092Y25708D01*
X99098Y25579D01*
Y25574D01*
Y25556D01*
Y25533D01*
X99092Y25497D01*
X99086Y25457D01*
X99080Y25404D01*
X99057Y25287D01*
X99010Y25158D01*
X98987Y25088D01*
X98952Y25018D01*
X98911Y24948D01*
X98864Y24877D01*
X98811Y24813D01*
X98747Y24749D01*
X98741Y24743D01*
X98729Y24737D01*
X98712Y24720D01*
X98683Y24696D01*
X98647Y24673D01*
X98607Y24643D01*
X98560Y24614D01*
X98501Y24585D01*
X98437Y24550D01*
X98367Y24521D01*
X98291Y24491D01*
X98209Y24468D01*
X98127Y24444D01*
X98033Y24427D01*
X97934Y24421D01*
X97829Y24415D01*
X97776D01*
X97735Y24421D01*
X97688Y24427D01*
X97630Y24433D01*
X97571Y24444D01*
X97501Y24456D01*
X97355Y24497D01*
X97279Y24526D01*
X97203Y24556D01*
X97127Y24597D01*
X97050Y24638D01*
X96980Y24690D01*
X96910Y24749D01*
X96904Y24755D01*
X96892Y24766D01*
X96881Y24784D01*
X96857Y24807D01*
X96828Y24842D01*
X96799Y24883D01*
X96770Y24930D01*
X96740Y24983D01*
X96705Y25041D01*
X96676Y25106D01*
X96618Y25246D01*
X96594Y25328D01*
X96583Y25410D01*
X96571Y25497D01*
X96565Y25591D01*
Y25597D01*
Y25609D01*
Y25626D01*
X96571Y25655D01*
Y25685D01*
X96577Y25726D01*
X96588Y25808D01*
X96612Y25907D01*
X96647Y26012D01*
X96688Y26118D01*
X96752Y26217D01*
Y26223D01*
X96764Y26229D01*
X96787Y26258D01*
X96834Y26305D01*
X96892Y26357D01*
X96969Y26416D01*
X97062Y26474D01*
X97173Y26527D01*
X97296Y26568D01*
X97290D01*
X97285Y26574D01*
X97249Y26586D01*
X97197Y26615D01*
X97132Y26644D01*
X97056Y26691D01*
X96986Y26744D01*
X96916Y26802D01*
X96857Y26872D01*
X96852Y26884D01*
X96834Y26907D01*
X96811Y26948D01*
X96787Y27007D01*
X96764Y27077D01*
X96740Y27159D01*
X96723Y27247D01*
X96717Y27346D01*
Y27352D01*
Y27364D01*
Y27387D01*
X96723Y27416D01*
X96729Y27451D01*
X96735Y27492D01*
X96752Y27592D01*
X96787Y27703D01*
X96846Y27820D01*
X96875Y27884D01*
X96916Y27943D01*
X96963Y28001D01*
X97015Y28054D01*
X97021Y28060D01*
X97027Y28066D01*
X97045Y28083D01*
X97068Y28101D01*
X97103Y28118D01*
X97138Y28148D01*
X97179Y28171D01*
X97232Y28200D01*
X97343Y28253D01*
X97483Y28294D01*
X97641Y28329D01*
X97723Y28335D01*
X97817Y28341D01*
X97864D01*
X97899Y28335D01*
D02*
G37*
G36*
X123498Y99727D02*
Y99721D01*
Y99703D01*
Y99680D01*
Y99645D01*
X123492Y99604D01*
Y99557D01*
X123486Y99452D01*
X123469Y99329D01*
X123451Y99206D01*
X123422Y99083D01*
X123381Y98978D01*
X123375Y98966D01*
X123358Y98937D01*
X123328Y98890D01*
X123293Y98832D01*
X123241Y98761D01*
X123176Y98697D01*
X123094Y98633D01*
X123007Y98574D01*
X122995Y98568D01*
X122960Y98551D01*
X122907Y98533D01*
X122837Y98510D01*
X122749Y98481D01*
X122650Y98463D01*
X122533Y98446D01*
X122410Y98440D01*
X122363D01*
X122328Y98446D01*
X122287Y98452D01*
X122234Y98457D01*
X122123Y98475D01*
X122000Y98510D01*
X121872Y98563D01*
X121807Y98592D01*
X121749Y98633D01*
X121690Y98674D01*
X121638Y98726D01*
Y98732D01*
X121626Y98738D01*
X121614Y98756D01*
X121597Y98779D01*
X121573Y98814D01*
X121556Y98849D01*
X121527Y98896D01*
X121503Y98943D01*
X121480Y99001D01*
X121456Y99066D01*
X121433Y99136D01*
X121415Y99218D01*
X121398Y99300D01*
X121386Y99393D01*
X121380Y99487D01*
Y99592D01*
X121837Y99657D01*
Y99651D01*
Y99639D01*
Y99616D01*
X121843Y99586D01*
Y99551D01*
X121848Y99510D01*
X121866Y99417D01*
X121883Y99312D01*
X121913Y99212D01*
X121954Y99124D01*
X121977Y99083D01*
X122000Y99048D01*
X122006Y99042D01*
X122030Y99025D01*
X122059Y98996D01*
X122106Y98972D01*
X122164Y98943D01*
X122234Y98914D01*
X122316Y98896D01*
X122410Y98890D01*
X122445D01*
X122480Y98896D01*
X122521Y98902D01*
X122574Y98914D01*
X122632Y98925D01*
X122685Y98949D01*
X122738Y98978D01*
X122743Y98984D01*
X122761Y98996D01*
X122784Y99013D01*
X122814Y99042D01*
X122849Y99072D01*
X122878Y99112D01*
X122907Y99159D01*
X122931Y99212D01*
Y99218D01*
X122942Y99241D01*
X122948Y99276D01*
X122960Y99329D01*
X122971Y99399D01*
X122977Y99481D01*
X122989Y99581D01*
Y99698D01*
Y102348D01*
X123498D01*
Y99727D01*
D02*
G37*
G36*
X126651Y101932D02*
X126645Y101926D01*
X126634Y101915D01*
X126616Y101891D01*
X126587Y101862D01*
X126558Y101821D01*
X126517Y101774D01*
X126470Y101716D01*
X126423Y101657D01*
X126370Y101587D01*
X126312Y101505D01*
X126248Y101423D01*
X126189Y101330D01*
X126125Y101230D01*
X126055Y101125D01*
X125990Y101008D01*
X125920Y100891D01*
X125914Y100885D01*
X125902Y100862D01*
X125885Y100827D01*
X125861Y100780D01*
X125832Y100721D01*
X125797Y100651D01*
X125756Y100569D01*
X125715Y100481D01*
X125674Y100388D01*
X125627Y100283D01*
X125581Y100171D01*
X125534Y100054D01*
X125446Y99814D01*
X125364Y99557D01*
Y99551D01*
X125358Y99534D01*
X125353Y99510D01*
X125341Y99475D01*
X125329Y99428D01*
X125317Y99376D01*
X125306Y99312D01*
X125288Y99247D01*
X125276Y99171D01*
X125259Y99089D01*
X125230Y98914D01*
X125206Y98715D01*
X125189Y98504D01*
X124703D01*
Y98510D01*
Y98527D01*
Y98551D01*
X124709Y98586D01*
Y98627D01*
X124715Y98680D01*
X124721Y98744D01*
X124726Y98808D01*
X124738Y98884D01*
X124750Y98972D01*
X124762Y99060D01*
X124779Y99154D01*
X124797Y99259D01*
X124820Y99364D01*
X124879Y99598D01*
Y99604D01*
X124884Y99627D01*
X124896Y99663D01*
X124908Y99709D01*
X124925Y99768D01*
X124949Y99832D01*
X124972Y99908D01*
X125002Y99996D01*
X125037Y100084D01*
X125072Y100183D01*
X125154Y100394D01*
X125253Y100616D01*
X125364Y100838D01*
X125370Y100844D01*
X125382Y100868D01*
X125399Y100897D01*
X125423Y100938D01*
X125452Y100990D01*
X125487Y101049D01*
X125528Y101113D01*
X125569Y101189D01*
X125674Y101347D01*
X125791Y101517D01*
X125914Y101687D01*
X126049Y101850D01*
X124165D01*
Y102301D01*
X126651D01*
Y101932D01*
D02*
G37*
G36*
X94467Y101957D02*
X94502D01*
X94548Y101951D01*
X94654Y101933D01*
X94771Y101898D01*
X94894Y101851D01*
X95016Y101793D01*
X95075Y101752D01*
X95134Y101705D01*
X95139D01*
X95145Y101694D01*
X95180Y101658D01*
X95227Y101600D01*
X95286Y101524D01*
X95350Y101425D01*
X95403Y101307D01*
X95455Y101167D01*
X95485Y101009D01*
X95016Y100974D01*
Y100980D01*
Y100986D01*
X95005Y101021D01*
X94987Y101068D01*
X94970Y101126D01*
X94911Y101261D01*
X94876Y101319D01*
X94835Y101372D01*
X94829Y101383D01*
X94800Y101407D01*
X94759Y101436D01*
X94706Y101477D01*
X94636Y101512D01*
X94554Y101547D01*
X94461Y101571D01*
X94361Y101577D01*
X94320D01*
X94279Y101571D01*
X94227Y101559D01*
X94162Y101547D01*
X94092Y101524D01*
X94028Y101489D01*
X93958Y101448D01*
X93946Y101442D01*
X93923Y101419D01*
X93882Y101378D01*
X93835Y101325D01*
X93776Y101261D01*
X93718Y101179D01*
X93659Y101079D01*
X93607Y100968D01*
Y100962D01*
X93601Y100956D01*
X93595Y100933D01*
X93589Y100910D01*
X93577Y100880D01*
X93566Y100839D01*
X93554Y100793D01*
X93542Y100740D01*
X93531Y100681D01*
X93519Y100617D01*
X93507Y100541D01*
X93496Y100465D01*
X93490Y100377D01*
X93484Y100284D01*
X93478Y100184D01*
Y100085D01*
X93484Y100091D01*
X93507Y100120D01*
X93542Y100167D01*
X93595Y100225D01*
X93653Y100290D01*
X93724Y100354D01*
X93805Y100412D01*
X93893Y100465D01*
X93905Y100471D01*
X93934Y100483D01*
X93987Y100506D01*
X94051Y100529D01*
X94127Y100553D01*
X94215Y100576D01*
X94309Y100588D01*
X94408Y100594D01*
X94455D01*
X94490Y100588D01*
X94531Y100582D01*
X94578Y100576D01*
X94689Y100553D01*
X94812Y100506D01*
X94882Y100483D01*
X94946Y100447D01*
X95016Y100407D01*
X95087Y100360D01*
X95151Y100307D01*
X95215Y100243D01*
X95221Y100237D01*
X95227Y100225D01*
X95245Y100208D01*
X95268Y100178D01*
X95291Y100143D01*
X95321Y100102D01*
X95350Y100056D01*
X95385Y100003D01*
X95414Y99939D01*
X95443Y99874D01*
X95473Y99798D01*
X95496Y99722D01*
X95520Y99634D01*
X95537Y99547D01*
X95543Y99447D01*
X95549Y99348D01*
Y99342D01*
Y99330D01*
Y99313D01*
Y99289D01*
X95543Y99254D01*
Y99219D01*
X95531Y99125D01*
X95508Y99026D01*
X95485Y98909D01*
X95443Y98792D01*
X95391Y98675D01*
Y98669D01*
X95385Y98663D01*
X95373Y98646D01*
X95362Y98622D01*
X95327Y98570D01*
X95280Y98500D01*
X95215Y98423D01*
X95139Y98347D01*
X95057Y98271D01*
X94958Y98201D01*
X94946Y98195D01*
X94911Y98178D01*
X94853Y98149D01*
X94783Y98119D01*
X94689Y98090D01*
X94584Y98061D01*
X94467Y98043D01*
X94344Y98037D01*
X94320D01*
X94285Y98043D01*
X94244D01*
X94197Y98049D01*
X94139Y98061D01*
X94075Y98072D01*
X94004Y98090D01*
X93928Y98113D01*
X93846Y98143D01*
X93770Y98178D01*
X93688Y98219D01*
X93607Y98271D01*
X93525Y98330D01*
X93449Y98394D01*
X93379Y98470D01*
X93373Y98476D01*
X93361Y98494D01*
X93343Y98517D01*
X93320Y98552D01*
X93291Y98599D01*
X93261Y98657D01*
X93226Y98728D01*
X93197Y98809D01*
X93162Y98903D01*
X93127Y99008D01*
X93098Y99125D01*
X93068Y99254D01*
X93045Y99395D01*
X93028Y99553D01*
X93016Y99716D01*
X93010Y99898D01*
Y99904D01*
Y99909D01*
Y99927D01*
Y99944D01*
Y100003D01*
X93016Y100079D01*
X93022Y100173D01*
X93033Y100278D01*
X93045Y100395D01*
X93063Y100518D01*
X93080Y100652D01*
X93109Y100787D01*
X93145Y100921D01*
X93185Y101050D01*
X93232Y101185D01*
X93285Y101302D01*
X93349Y101419D01*
X93419Y101518D01*
X93425Y101524D01*
X93437Y101536D01*
X93454Y101559D01*
X93484Y101588D01*
X93525Y101623D01*
X93566Y101658D01*
X93618Y101699D01*
X93677Y101740D01*
X93741Y101781D01*
X93817Y101822D01*
X93893Y101857D01*
X93981Y101892D01*
X94075Y101922D01*
X94174Y101945D01*
X94279Y101957D01*
X94390Y101963D01*
X94432D01*
X94467Y101957D01*
D02*
G37*
G36*
X92396Y99324D02*
Y99318D01*
Y99301D01*
Y99278D01*
Y99242D01*
X92390Y99202D01*
Y99155D01*
X92384Y99049D01*
X92366Y98927D01*
X92349Y98804D01*
X92320Y98681D01*
X92279Y98576D01*
X92273Y98564D01*
X92255Y98535D01*
X92226Y98488D01*
X92191Y98429D01*
X92138Y98359D01*
X92074Y98295D01*
X91992Y98230D01*
X91904Y98172D01*
X91893Y98166D01*
X91857Y98149D01*
X91805Y98131D01*
X91735Y98107D01*
X91647Y98078D01*
X91547Y98061D01*
X91430Y98043D01*
X91308Y98037D01*
X91261D01*
X91226Y98043D01*
X91185Y98049D01*
X91132Y98055D01*
X91021Y98072D01*
X90898Y98107D01*
X90769Y98160D01*
X90705Y98189D01*
X90646Y98230D01*
X90588Y98271D01*
X90535Y98324D01*
Y98330D01*
X90524Y98336D01*
X90512Y98353D01*
X90494Y98377D01*
X90471Y98412D01*
X90453Y98447D01*
X90424Y98494D01*
X90401Y98540D01*
X90377Y98599D01*
X90354Y98663D01*
X90331Y98734D01*
X90313Y98815D01*
X90295Y98897D01*
X90284Y98991D01*
X90278Y99085D01*
Y99190D01*
X90734Y99254D01*
Y99248D01*
Y99237D01*
Y99213D01*
X90740Y99184D01*
Y99149D01*
X90746Y99108D01*
X90763Y99014D01*
X90781Y98909D01*
X90810Y98809D01*
X90851Y98722D01*
X90875Y98681D01*
X90898Y98646D01*
X90904Y98640D01*
X90927Y98622D01*
X90957Y98593D01*
X91003Y98570D01*
X91062Y98540D01*
X91132Y98511D01*
X91214Y98494D01*
X91308Y98488D01*
X91343D01*
X91378Y98494D01*
X91419Y98500D01*
X91471Y98511D01*
X91530Y98523D01*
X91583Y98546D01*
X91635Y98576D01*
X91641Y98581D01*
X91659Y98593D01*
X91682Y98611D01*
X91711Y98640D01*
X91746Y98669D01*
X91776Y98710D01*
X91805Y98757D01*
X91828Y98809D01*
Y98815D01*
X91840Y98839D01*
X91846Y98874D01*
X91857Y98927D01*
X91869Y98997D01*
X91875Y99079D01*
X91887Y99178D01*
Y99295D01*
Y101945D01*
X92396D01*
Y99324D01*
D02*
G37*
G36*
X119153Y94215D02*
Y94209D01*
Y94192D01*
Y94168D01*
Y94133D01*
X119147Y94092D01*
Y94045D01*
X119141Y93940D01*
X119123Y93817D01*
X119106Y93694D01*
X119077Y93572D01*
X119036Y93466D01*
X119030Y93454D01*
X119012Y93425D01*
X118983Y93378D01*
X118948Y93320D01*
X118895Y93250D01*
X118831Y93185D01*
X118749Y93121D01*
X118661Y93063D01*
X118650Y93057D01*
X118614Y93039D01*
X118562Y93022D01*
X118492Y92998D01*
X118404Y92969D01*
X118304Y92951D01*
X118187Y92934D01*
X118065Y92928D01*
X118018D01*
X117983Y92934D01*
X117942Y92940D01*
X117889Y92945D01*
X117778Y92963D01*
X117655Y92998D01*
X117526Y93051D01*
X117462Y93080D01*
X117403Y93121D01*
X117345Y93162D01*
X117292Y93215D01*
Y93221D01*
X117281Y93226D01*
X117269Y93244D01*
X117251Y93267D01*
X117228Y93302D01*
X117210Y93338D01*
X117181Y93384D01*
X117158Y93431D01*
X117134Y93490D01*
X117111Y93554D01*
X117088Y93624D01*
X117070Y93706D01*
X117052Y93788D01*
X117041Y93881D01*
X117035Y93975D01*
Y94080D01*
X117491Y94145D01*
Y94139D01*
Y94127D01*
Y94104D01*
X117497Y94075D01*
Y94039D01*
X117503Y93998D01*
X117520Y93905D01*
X117538Y93800D01*
X117567Y93700D01*
X117608Y93612D01*
X117632Y93572D01*
X117655Y93536D01*
X117661Y93530D01*
X117684Y93513D01*
X117714Y93484D01*
X117760Y93460D01*
X117819Y93431D01*
X117889Y93402D01*
X117971Y93384D01*
X118065Y93378D01*
X118100D01*
X118135Y93384D01*
X118176Y93390D01*
X118228Y93402D01*
X118287Y93414D01*
X118340Y93437D01*
X118392Y93466D01*
X118398Y93472D01*
X118416Y93484D01*
X118439Y93501D01*
X118468Y93530D01*
X118503Y93560D01*
X118533Y93601D01*
X118562Y93647D01*
X118585Y93700D01*
Y93706D01*
X118597Y93729D01*
X118603Y93765D01*
X118614Y93817D01*
X118626Y93887D01*
X118632Y93969D01*
X118644Y94069D01*
Y94186D01*
Y96836D01*
X119153D01*
Y94215D01*
D02*
G37*
G36*
X122154Y96327D02*
X120621D01*
X120410Y95291D01*
X120416Y95297D01*
X120428Y95303D01*
X120446Y95315D01*
X120469Y95332D01*
X120504Y95350D01*
X120539Y95367D01*
X120633Y95414D01*
X120738Y95461D01*
X120861Y95496D01*
X120995Y95525D01*
X121136Y95537D01*
X121183D01*
X121218Y95531D01*
X121265Y95525D01*
X121311Y95520D01*
X121370Y95508D01*
X121428Y95496D01*
X121563Y95449D01*
X121633Y95426D01*
X121703Y95391D01*
X121779Y95350D01*
X121850Y95303D01*
X121920Y95250D01*
X121984Y95186D01*
X121990Y95180D01*
X122002Y95169D01*
X122019Y95151D01*
X122037Y95122D01*
X122066Y95087D01*
X122095Y95046D01*
X122125Y94999D01*
X122160Y94946D01*
X122195Y94882D01*
X122224Y94818D01*
X122253Y94741D01*
X122282Y94665D01*
X122300Y94578D01*
X122318Y94490D01*
X122329Y94390D01*
X122335Y94291D01*
Y94285D01*
Y94268D01*
Y94238D01*
X122329Y94203D01*
X122323Y94156D01*
X122318Y94104D01*
X122312Y94045D01*
X122300Y93981D01*
X122259Y93841D01*
X122206Y93694D01*
X122171Y93612D01*
X122130Y93536D01*
X122083Y93460D01*
X122031Y93390D01*
X122025Y93384D01*
X122013Y93373D01*
X121990Y93349D01*
X121961Y93320D01*
X121926Y93285D01*
X121879Y93244D01*
X121826Y93203D01*
X121762Y93162D01*
X121697Y93115D01*
X121621Y93074D01*
X121534Y93033D01*
X121446Y92998D01*
X121346Y92969D01*
X121247Y92945D01*
X121136Y92934D01*
X121019Y92928D01*
X120966D01*
X120931Y92934D01*
X120890Y92940D01*
X120837Y92945D01*
X120779Y92951D01*
X120715Y92963D01*
X120580Y92998D01*
X120440Y93051D01*
X120370Y93086D01*
X120299Y93127D01*
X120229Y93168D01*
X120165Y93221D01*
X120159Y93226D01*
X120153Y93232D01*
X120135Y93250D01*
X120112Y93273D01*
X120089Y93302D01*
X120059Y93338D01*
X120030Y93378D01*
X119995Y93425D01*
X119931Y93536D01*
X119866Y93671D01*
X119820Y93823D01*
X119802Y93911D01*
X119790Y93998D01*
X120288Y94034D01*
Y94028D01*
Y94016D01*
X120293Y93998D01*
X120299Y93975D01*
X120317Y93911D01*
X120340Y93829D01*
X120370Y93741D01*
X120416Y93653D01*
X120469Y93566D01*
X120539Y93490D01*
X120551Y93484D01*
X120574Y93460D01*
X120615Y93437D01*
X120674Y93402D01*
X120744Y93373D01*
X120826Y93343D01*
X120919Y93320D01*
X121019Y93314D01*
X121054D01*
X121077Y93320D01*
X121142Y93326D01*
X121224Y93343D01*
X121311Y93378D01*
X121411Y93419D01*
X121504Y93484D01*
X121551Y93519D01*
X121598Y93566D01*
Y93572D01*
X121610Y93577D01*
X121633Y93612D01*
X121674Y93671D01*
X121715Y93747D01*
X121756Y93846D01*
X121797Y93963D01*
X121820Y94098D01*
X121832Y94250D01*
Y94256D01*
Y94268D01*
Y94291D01*
X121826Y94314D01*
Y94349D01*
X121820Y94390D01*
X121803Y94484D01*
X121779Y94583D01*
X121738Y94689D01*
X121680Y94794D01*
X121604Y94888D01*
X121592Y94899D01*
X121563Y94923D01*
X121516Y94964D01*
X121446Y95005D01*
X121364Y95046D01*
X121259Y95087D01*
X121142Y95110D01*
X121013Y95122D01*
X120972D01*
X120931Y95116D01*
X120873Y95110D01*
X120808Y95092D01*
X120738Y95075D01*
X120668Y95046D01*
X120598Y95011D01*
X120592Y95005D01*
X120568Y94993D01*
X120533Y94970D01*
X120492Y94940D01*
X120451Y94899D01*
X120405Y94853D01*
X120358Y94800D01*
X120317Y94741D01*
X119872Y94806D01*
X120247Y96777D01*
X122154D01*
Y96327D01*
D02*
G37*
G36*
X74536Y25379D02*
Y25374D01*
Y25356D01*
Y25332D01*
Y25297D01*
X74530Y25256D01*
Y25210D01*
X74524Y25104D01*
X74506Y24982D01*
X74489Y24859D01*
X74460Y24736D01*
X74419Y24631D01*
X74413Y24619D01*
X74395Y24590D01*
X74366Y24543D01*
X74331Y24484D01*
X74278Y24414D01*
X74214Y24350D01*
X74132Y24285D01*
X74044Y24227D01*
X74033Y24221D01*
X73997Y24204D01*
X73945Y24186D01*
X73875Y24162D01*
X73787Y24133D01*
X73687Y24116D01*
X73571Y24098D01*
X73448Y24092D01*
X73401D01*
X73366Y24098D01*
X73325Y24104D01*
X73272Y24110D01*
X73161Y24127D01*
X73038Y24162D01*
X72909Y24215D01*
X72845Y24244D01*
X72786Y24285D01*
X72728Y24326D01*
X72675Y24379D01*
Y24385D01*
X72664Y24391D01*
X72652Y24408D01*
X72635Y24432D01*
X72611Y24467D01*
X72593Y24502D01*
X72564Y24549D01*
X72541Y24595D01*
X72517Y24654D01*
X72494Y24718D01*
X72471Y24789D01*
X72453Y24870D01*
X72436Y24952D01*
X72424Y25046D01*
X72418Y25139D01*
Y25245D01*
X72874Y25309D01*
Y25303D01*
Y25292D01*
Y25268D01*
X72880Y25239D01*
Y25204D01*
X72886Y25163D01*
X72904Y25069D01*
X72921Y24964D01*
X72950Y24864D01*
X72991Y24777D01*
X73015Y24736D01*
X73038Y24701D01*
X73044Y24695D01*
X73067Y24677D01*
X73097Y24648D01*
X73143Y24625D01*
X73202Y24595D01*
X73272Y24566D01*
X73354Y24549D01*
X73448Y24543D01*
X73483D01*
X73518Y24549D01*
X73559Y24554D01*
X73611Y24566D01*
X73670Y24578D01*
X73723Y24601D01*
X73775Y24631D01*
X73781Y24636D01*
X73799Y24648D01*
X73822Y24666D01*
X73851Y24695D01*
X73886Y24724D01*
X73916Y24765D01*
X73945Y24812D01*
X73968Y24864D01*
Y24870D01*
X73980Y24894D01*
X73986Y24929D01*
X73997Y24982D01*
X74009Y25052D01*
X74015Y25134D01*
X74027Y25233D01*
Y25350D01*
Y28000D01*
X74536D01*
Y25379D01*
D02*
G37*
G36*
X77157Y25508D02*
X77677D01*
Y25075D01*
X77157D01*
Y24157D01*
X76683D01*
Y25075D01*
X75015D01*
Y25508D01*
X76770Y27994D01*
X77157D01*
Y25508D01*
D02*
G37*
G36*
X55190Y28012D02*
X55266Y28000D01*
X55353Y27983D01*
X55453Y27959D01*
X55552Y27924D01*
X55652Y27877D01*
X55658D01*
X55664Y27871D01*
X55699Y27854D01*
X55745Y27825D01*
X55804Y27784D01*
X55868Y27731D01*
X55938Y27667D01*
X56003Y27591D01*
X56061Y27509D01*
X56067Y27497D01*
X56085Y27468D01*
X56108Y27421D01*
X56131Y27362D01*
X56155Y27286D01*
X56178Y27204D01*
X56196Y27117D01*
X56202Y27017D01*
Y27006D01*
Y26976D01*
X56196Y26930D01*
X56184Y26871D01*
X56166Y26801D01*
X56143Y26725D01*
X56114Y26643D01*
X56067Y26567D01*
X56061Y26555D01*
X56044Y26532D01*
X56009Y26497D01*
X55968Y26450D01*
X55909Y26397D01*
X55845Y26345D01*
X55763Y26286D01*
X55669Y26239D01*
X55675D01*
X55687Y26233D01*
X55704D01*
X55728Y26222D01*
X55786Y26204D01*
X55862Y26169D01*
X55944Y26128D01*
X56032Y26070D01*
X56120Y25999D01*
X56196Y25912D01*
X56202Y25900D01*
X56225Y25865D01*
X56254Y25812D01*
X56295Y25742D01*
X56330Y25654D01*
X56360Y25549D01*
X56383Y25426D01*
X56389Y25292D01*
Y25286D01*
Y25268D01*
Y25245D01*
X56383Y25210D01*
X56377Y25163D01*
X56371Y25116D01*
X56360Y25058D01*
X56342Y24999D01*
X56301Y24864D01*
X56272Y24789D01*
X56231Y24718D01*
X56190Y24648D01*
X56143Y24578D01*
X56085Y24508D01*
X56020Y24438D01*
X56014Y24432D01*
X56003Y24420D01*
X55985Y24408D01*
X55956Y24385D01*
X55921Y24356D01*
X55874Y24326D01*
X55821Y24297D01*
X55769Y24268D01*
X55704Y24233D01*
X55634Y24204D01*
X55558Y24174D01*
X55476Y24145D01*
X55388Y24122D01*
X55295Y24110D01*
X55195Y24098D01*
X55096Y24092D01*
X55049D01*
X55014Y24098D01*
X54967Y24104D01*
X54921Y24110D01*
X54862Y24116D01*
X54804Y24127D01*
X54669Y24162D01*
X54528Y24221D01*
X54458Y24250D01*
X54394Y24291D01*
X54324Y24338D01*
X54260Y24391D01*
X54254Y24396D01*
X54248Y24402D01*
X54230Y24420D01*
X54207Y24443D01*
X54183Y24478D01*
X54154Y24513D01*
X54119Y24554D01*
X54090Y24601D01*
X54020Y24718D01*
X53961Y24853D01*
X53908Y25005D01*
X53891Y25087D01*
X53879Y25175D01*
X54353Y25239D01*
Y25233D01*
X54359Y25221D01*
Y25198D01*
X54371Y25175D01*
X54388Y25104D01*
X54417Y25017D01*
X54453Y24923D01*
X54499Y24824D01*
X54558Y24736D01*
X54622Y24660D01*
X54634Y24654D01*
X54657Y24631D01*
X54698Y24607D01*
X54757Y24572D01*
X54821Y24543D01*
X54903Y24513D01*
X54997Y24490D01*
X55096Y24484D01*
X55131D01*
X55155Y24490D01*
X55213Y24496D01*
X55289Y24513D01*
X55383Y24543D01*
X55476Y24578D01*
X55570Y24636D01*
X55658Y24712D01*
X55669Y24724D01*
X55693Y24753D01*
X55728Y24800D01*
X55775Y24870D01*
X55816Y24952D01*
X55851Y25052D01*
X55874Y25163D01*
X55886Y25286D01*
Y25292D01*
Y25297D01*
Y25315D01*
X55880Y25338D01*
X55874Y25397D01*
X55857Y25473D01*
X55833Y25555D01*
X55792Y25648D01*
X55739Y25736D01*
X55669Y25818D01*
X55658Y25830D01*
X55634Y25853D01*
X55587Y25882D01*
X55523Y25923D01*
X55447Y25964D01*
X55353Y25994D01*
X55254Y26017D01*
X55137Y26029D01*
X55084D01*
X55043Y26023D01*
X54997Y26017D01*
X54938Y26011D01*
X54874Y25999D01*
X54804Y25982D01*
X54856Y26397D01*
X54885D01*
X54909Y26391D01*
X54985D01*
X55037Y26397D01*
X55114Y26409D01*
X55195Y26427D01*
X55283Y26456D01*
X55377Y26491D01*
X55470Y26544D01*
X55482Y26549D01*
X55511Y26573D01*
X55546Y26614D01*
X55593Y26666D01*
X55640Y26731D01*
X55675Y26813D01*
X55704Y26912D01*
X55716Y27029D01*
Y27035D01*
Y27041D01*
Y27070D01*
X55704Y27117D01*
X55693Y27181D01*
X55675Y27246D01*
X55640Y27316D01*
X55599Y27392D01*
X55541Y27456D01*
X55535Y27462D01*
X55511Y27485D01*
X55470Y27515D01*
X55418Y27544D01*
X55353Y27579D01*
X55277Y27602D01*
X55190Y27626D01*
X55090Y27632D01*
X55043D01*
X54991Y27620D01*
X54932Y27608D01*
X54856Y27591D01*
X54780Y27556D01*
X54704Y27515D01*
X54628Y27456D01*
X54622Y27450D01*
X54599Y27427D01*
X54570Y27386D01*
X54534Y27327D01*
X54493Y27257D01*
X54458Y27169D01*
X54423Y27064D01*
X54400Y26941D01*
X53926Y27023D01*
Y27029D01*
X53932Y27047D01*
X53938Y27070D01*
X53944Y27099D01*
X53955Y27140D01*
X53967Y27187D01*
X54008Y27292D01*
X54055Y27409D01*
X54125Y27532D01*
X54207Y27649D01*
X54312Y27754D01*
X54318Y27760D01*
X54324Y27766D01*
X54341Y27778D01*
X54371Y27795D01*
X54400Y27813D01*
X54435Y27836D01*
X54523Y27889D01*
X54634Y27936D01*
X54768Y27977D01*
X54915Y28006D01*
X54997Y28018D01*
X55131D01*
X55190Y28012D01*
D02*
G37*
G36*
X53236Y25379D02*
Y25374D01*
Y25356D01*
Y25332D01*
Y25297D01*
X53230Y25256D01*
Y25210D01*
X53224Y25104D01*
X53206Y24982D01*
X53189Y24859D01*
X53160Y24736D01*
X53119Y24631D01*
X53113Y24619D01*
X53095Y24590D01*
X53066Y24543D01*
X53031Y24484D01*
X52978Y24414D01*
X52914Y24350D01*
X52832Y24285D01*
X52744Y24227D01*
X52733Y24221D01*
X52697Y24204D01*
X52645Y24186D01*
X52575Y24162D01*
X52487Y24133D01*
X52387Y24116D01*
X52271Y24098D01*
X52148Y24092D01*
X52101D01*
X52066Y24098D01*
X52025Y24104D01*
X51972Y24110D01*
X51861Y24127D01*
X51738Y24162D01*
X51609Y24215D01*
X51545Y24244D01*
X51486Y24285D01*
X51428Y24326D01*
X51375Y24379D01*
Y24385D01*
X51364Y24391D01*
X51352Y24408D01*
X51335Y24432D01*
X51311Y24467D01*
X51293Y24502D01*
X51264Y24549D01*
X51241Y24595D01*
X51217Y24654D01*
X51194Y24718D01*
X51171Y24789D01*
X51153Y24870D01*
X51136Y24952D01*
X51124Y25046D01*
X51118Y25139D01*
Y25245D01*
X51574Y25309D01*
Y25303D01*
Y25292D01*
Y25268D01*
X51580Y25239D01*
Y25204D01*
X51586Y25163D01*
X51604Y25069D01*
X51621Y24964D01*
X51650Y24864D01*
X51691Y24777D01*
X51715Y24736D01*
X51738Y24701D01*
X51744Y24695D01*
X51767Y24677D01*
X51797Y24648D01*
X51843Y24625D01*
X51902Y24595D01*
X51972Y24566D01*
X52054Y24549D01*
X52148Y24543D01*
X52183D01*
X52218Y24549D01*
X52259Y24554D01*
X52311Y24566D01*
X52370Y24578D01*
X52423Y24601D01*
X52475Y24631D01*
X52481Y24636D01*
X52499Y24648D01*
X52522Y24666D01*
X52551Y24695D01*
X52586Y24724D01*
X52616Y24765D01*
X52645Y24812D01*
X52668Y24864D01*
Y24870D01*
X52680Y24894D01*
X52686Y24929D01*
X52697Y24982D01*
X52709Y25052D01*
X52715Y25134D01*
X52727Y25233D01*
Y25350D01*
Y28000D01*
X53236D01*
Y25379D01*
D02*
G37*
G36*
X37689Y94600D02*
Y94594D01*
Y94577D01*
Y94553D01*
Y94518D01*
X37683Y94477D01*
Y94430D01*
X37677Y94325D01*
X37660Y94202D01*
X37642Y94079D01*
X37613Y93956D01*
X37572Y93851D01*
X37566Y93839D01*
X37548Y93810D01*
X37519Y93763D01*
X37484Y93705D01*
X37431Y93635D01*
X37367Y93570D01*
X37285Y93506D01*
X37197Y93448D01*
X37186Y93442D01*
X37151Y93424D01*
X37098Y93406D01*
X37028Y93383D01*
X36940Y93354D01*
X36841Y93336D01*
X36724Y93319D01*
X36601Y93313D01*
X36554D01*
X36519Y93319D01*
X36478Y93325D01*
X36425Y93331D01*
X36314Y93348D01*
X36191Y93383D01*
X36062Y93436D01*
X35998Y93465D01*
X35940Y93506D01*
X35881Y93547D01*
X35829Y93600D01*
Y93605D01*
X35817Y93611D01*
X35805Y93629D01*
X35788Y93652D01*
X35764Y93687D01*
X35747Y93722D01*
X35717Y93769D01*
X35694Y93816D01*
X35671Y93875D01*
X35647Y93939D01*
X35624Y94009D01*
X35606Y94091D01*
X35589Y94173D01*
X35577Y94266D01*
X35571Y94360D01*
Y94465D01*
X36027Y94530D01*
Y94524D01*
Y94512D01*
Y94489D01*
X36033Y94459D01*
Y94424D01*
X36039Y94384D01*
X36057Y94290D01*
X36074Y94185D01*
X36103Y94085D01*
X36144Y93997D01*
X36168Y93956D01*
X36191Y93921D01*
X36197Y93915D01*
X36220Y93898D01*
X36250Y93869D01*
X36296Y93845D01*
X36355Y93816D01*
X36425Y93787D01*
X36507Y93769D01*
X36601Y93763D01*
X36636D01*
X36671Y93769D01*
X36712Y93775D01*
X36764Y93787D01*
X36823Y93799D01*
X36876Y93822D01*
X36928Y93851D01*
X36934Y93857D01*
X36952Y93869D01*
X36975Y93886D01*
X37004Y93915D01*
X37040Y93945D01*
X37069Y93986D01*
X37098Y94033D01*
X37121Y94085D01*
Y94091D01*
X37133Y94114D01*
X37139Y94150D01*
X37151Y94202D01*
X37162Y94272D01*
X37168Y94354D01*
X37180Y94454D01*
Y94571D01*
Y97221D01*
X37689D01*
Y94600D01*
D02*
G37*
G36*
X39689Y97232D02*
X39736Y97227D01*
X39789Y97221D01*
X39847Y97215D01*
X39912Y97197D01*
X40052Y97162D01*
X40198Y97110D01*
X40275Y97075D01*
X40345Y97034D01*
X40409Y96981D01*
X40473Y96928D01*
X40479Y96922D01*
X40485Y96917D01*
X40503Y96899D01*
X40526Y96876D01*
X40549Y96841D01*
X40579Y96805D01*
X40637Y96718D01*
X40696Y96606D01*
X40748Y96478D01*
X40789Y96332D01*
X40795Y96250D01*
X40801Y96168D01*
Y96156D01*
Y96127D01*
X40795Y96080D01*
X40789Y96021D01*
X40778Y95951D01*
X40760Y95875D01*
X40737Y95793D01*
X40702Y95711D01*
X40696Y95700D01*
X40684Y95670D01*
X40661Y95630D01*
X40626Y95571D01*
X40585Y95501D01*
X40532Y95419D01*
X40462Y95337D01*
X40386Y95243D01*
X40374Y95232D01*
X40345Y95197D01*
X40292Y95144D01*
X40257Y95109D01*
X40216Y95068D01*
X40169Y95021D01*
X40111Y94968D01*
X40052Y94916D01*
X39988Y94851D01*
X39918Y94787D01*
X39836Y94717D01*
X39754Y94647D01*
X39660Y94565D01*
X39654Y94559D01*
X39643Y94547D01*
X39619Y94530D01*
X39590Y94506D01*
X39520Y94448D01*
X39432Y94372D01*
X39344Y94290D01*
X39251Y94208D01*
X39175Y94138D01*
X39145Y94108D01*
X39116Y94079D01*
X39110Y94073D01*
X39099Y94056D01*
X39075Y94033D01*
X39046Y93997D01*
X38982Y93921D01*
X38917Y93828D01*
X40807D01*
Y93377D01*
X38262D01*
Y93383D01*
Y93406D01*
Y93442D01*
X38268Y93483D01*
X38274Y93529D01*
X38280Y93582D01*
X38297Y93641D01*
X38315Y93699D01*
Y93705D01*
X38321Y93711D01*
X38332Y93746D01*
X38356Y93793D01*
X38391Y93863D01*
X38432Y93939D01*
X38490Y94027D01*
X38549Y94114D01*
X38625Y94208D01*
Y94214D01*
X38636Y94220D01*
X38666Y94255D01*
X38713Y94307D01*
X38783Y94378D01*
X38870Y94459D01*
X38976Y94559D01*
X39105Y94670D01*
X39245Y94793D01*
X39251Y94799D01*
X39274Y94816D01*
X39303Y94840D01*
X39344Y94881D01*
X39397Y94922D01*
X39456Y94974D01*
X39584Y95086D01*
X39725Y95220D01*
X39865Y95355D01*
X39935Y95419D01*
X39994Y95483D01*
X40046Y95548D01*
X40093Y95606D01*
Y95612D01*
X40105Y95618D01*
X40117Y95635D01*
X40128Y95659D01*
X40163Y95717D01*
X40204Y95793D01*
X40245Y95881D01*
X40280Y95975D01*
X40304Y96080D01*
X40315Y96179D01*
Y96185D01*
Y96191D01*
X40310Y96226D01*
X40304Y96279D01*
X40292Y96343D01*
X40263Y96419D01*
X40228Y96495D01*
X40181Y96577D01*
X40111Y96653D01*
X40099Y96659D01*
X40076Y96683D01*
X40029Y96712D01*
X39970Y96753D01*
X39894Y96788D01*
X39807Y96817D01*
X39701Y96841D01*
X39584Y96846D01*
X39549D01*
X39526Y96841D01*
X39467Y96835D01*
X39391Y96823D01*
X39303Y96794D01*
X39210Y96759D01*
X39122Y96706D01*
X39040Y96636D01*
X39034Y96624D01*
X39011Y96601D01*
X38976Y96554D01*
X38941Y96490D01*
X38900Y96408D01*
X38870Y96314D01*
X38847Y96203D01*
X38835Y96074D01*
X38350Y96127D01*
Y96133D01*
Y96150D01*
X38356Y96179D01*
X38362Y96214D01*
X38373Y96261D01*
X38379Y96314D01*
X38414Y96431D01*
X38461Y96566D01*
X38525Y96700D01*
X38613Y96835D01*
X38660Y96893D01*
X38718Y96952D01*
X38724Y96957D01*
X38736Y96963D01*
X38754Y96981D01*
X38777Y96998D01*
X38812Y97016D01*
X38853Y97045D01*
X38900Y97069D01*
X38952Y97098D01*
X39011Y97121D01*
X39075Y97150D01*
X39151Y97174D01*
X39227Y97192D01*
X39403Y97227D01*
X39496Y97232D01*
X39596Y97238D01*
X39649D01*
X39689Y97232D01*
D02*
G37*
G36*
X15993Y104836D02*
Y104830D01*
Y104813D01*
Y104789D01*
Y104754D01*
X15987Y104713D01*
Y104666D01*
X15981Y104561D01*
X15963Y104438D01*
X15946Y104315D01*
X15916Y104193D01*
X15876Y104087D01*
X15870Y104076D01*
X15852Y104046D01*
X15823Y104000D01*
X15788Y103941D01*
X15735Y103871D01*
X15671Y103806D01*
X15589Y103742D01*
X15501Y103684D01*
X15489Y103678D01*
X15454Y103660D01*
X15402Y103643D01*
X15331Y103619D01*
X15244Y103590D01*
X15144Y103572D01*
X15027Y103555D01*
X14905Y103549D01*
X14858D01*
X14823Y103555D01*
X14782Y103561D01*
X14729Y103567D01*
X14618Y103584D01*
X14495Y103619D01*
X14366Y103672D01*
X14302Y103701D01*
X14243Y103742D01*
X14185Y103783D01*
X14132Y103836D01*
Y103842D01*
X14121Y103848D01*
X14109Y103865D01*
X14091Y103888D01*
X14068Y103923D01*
X14050Y103959D01*
X14021Y104005D01*
X13998Y104052D01*
X13974Y104111D01*
X13951Y104175D01*
X13927Y104245D01*
X13910Y104327D01*
X13892Y104409D01*
X13881Y104503D01*
X13875Y104596D01*
Y104702D01*
X14331Y104766D01*
Y104760D01*
Y104748D01*
Y104725D01*
X14337Y104696D01*
Y104661D01*
X14343Y104620D01*
X14360Y104526D01*
X14378Y104421D01*
X14407Y104321D01*
X14448Y104234D01*
X14472Y104193D01*
X14495Y104157D01*
X14501Y104152D01*
X14524Y104134D01*
X14554Y104105D01*
X14600Y104081D01*
X14659Y104052D01*
X14729Y104023D01*
X14811Y104005D01*
X14905Y104000D01*
X14940D01*
X14975Y104005D01*
X15016Y104011D01*
X15068Y104023D01*
X15127Y104035D01*
X15179Y104058D01*
X15232Y104087D01*
X15238Y104093D01*
X15256Y104105D01*
X15279Y104122D01*
X15308Y104152D01*
X15343Y104181D01*
X15372Y104222D01*
X15402Y104269D01*
X15425Y104321D01*
Y104327D01*
X15437Y104351D01*
X15443Y104386D01*
X15454Y104438D01*
X15466Y104508D01*
X15472Y104590D01*
X15484Y104690D01*
Y104807D01*
Y107457D01*
X15993D01*
Y104836D01*
D02*
G37*
G36*
X18409Y103613D02*
X17935D01*
Y106620D01*
X17929Y106614D01*
X17906Y106591D01*
X17865Y106562D01*
X17812Y106521D01*
X17748Y106468D01*
X17672Y106416D01*
X17584Y106351D01*
X17484Y106293D01*
X17479D01*
X17473Y106287D01*
X17437Y106263D01*
X17385Y106234D01*
X17321Y106199D01*
X17244Y106158D01*
X17163Y106123D01*
X17075Y106082D01*
X16993Y106047D01*
Y106509D01*
X16999D01*
X17010Y106515D01*
X17034Y106527D01*
X17057Y106544D01*
X17092Y106562D01*
X17133Y106579D01*
X17227Y106632D01*
X17332Y106696D01*
X17449Y106772D01*
X17566Y106860D01*
X17677Y106954D01*
X17683Y106960D01*
X17689Y106965D01*
X17724Y107001D01*
X17777Y107053D01*
X17841Y107118D01*
X17911Y107200D01*
X17982Y107287D01*
X18046Y107381D01*
X18099Y107475D01*
X18409D01*
Y103613D01*
D02*
G37*
G36*
X93257Y32621D02*
X93778D01*
Y32188D01*
X93257D01*
Y31270D01*
X92783D01*
Y32188D01*
X91116D01*
Y32621D01*
X92871Y35108D01*
X93257D01*
Y32621D01*
D02*
G37*
G36*
X89168Y35108D02*
X89273Y35102D01*
X89390Y35090D01*
X89502Y35073D01*
X89595Y35055D01*
X89601D01*
X89613Y35049D01*
X89624D01*
X89648Y35037D01*
X89712Y35020D01*
X89788Y34991D01*
X89876Y34956D01*
X89970Y34909D01*
X90063Y34850D01*
X90157Y34780D01*
X90163D01*
X90168Y34768D01*
X90209Y34733D01*
X90262Y34675D01*
X90326Y34599D01*
X90403Y34505D01*
X90478Y34394D01*
X90549Y34265D01*
X90613Y34119D01*
Y34113D01*
X90619Y34102D01*
X90625Y34078D01*
X90636Y34049D01*
X90648Y34014D01*
X90660Y33967D01*
X90677Y33914D01*
X90689Y33856D01*
X90701Y33791D01*
X90718Y33721D01*
X90742Y33569D01*
X90759Y33400D01*
X90765Y33212D01*
Y33206D01*
Y33195D01*
Y33171D01*
Y33136D01*
X90759Y33101D01*
Y33054D01*
X90754Y32949D01*
X90742Y32832D01*
X90718Y32697D01*
X90695Y32563D01*
X90660Y32434D01*
Y32428D01*
X90654Y32417D01*
X90648Y32399D01*
X90642Y32376D01*
X90619Y32317D01*
X90590Y32235D01*
X90555Y32148D01*
X90508Y32054D01*
X90455Y31960D01*
X90397Y31873D01*
X90391Y31861D01*
X90367Y31837D01*
X90338Y31797D01*
X90291Y31744D01*
X90245Y31691D01*
X90180Y31633D01*
X90116Y31574D01*
X90046Y31522D01*
X90040Y31516D01*
X90010Y31504D01*
X89970Y31481D01*
X89917Y31451D01*
X89853Y31422D01*
X89776Y31393D01*
X89689Y31364D01*
X89589Y31334D01*
X89578D01*
X89543Y31323D01*
X89490Y31317D01*
X89414Y31305D01*
X89326Y31293D01*
X89221Y31282D01*
X89104Y31276D01*
X88975Y31270D01*
X87594D01*
Y35113D01*
X89069D01*
X89168Y35108D01*
D02*
G37*
G36*
X49890Y35025D02*
X49966Y35013D01*
X50054Y34996D01*
X50154Y34973D01*
X50253Y34938D01*
X50353Y34891D01*
X50358D01*
X50364Y34885D01*
X50399Y34867D01*
X50446Y34838D01*
X50505Y34797D01*
X50569Y34744D01*
X50639Y34680D01*
X50704Y34604D01*
X50762Y34522D01*
X50768Y34510D01*
X50785Y34481D01*
X50809Y34434D01*
X50832Y34376D01*
X50856Y34300D01*
X50879Y34218D01*
X50897Y34130D01*
X50902Y34031D01*
Y34019D01*
Y33990D01*
X50897Y33943D01*
X50885Y33885D01*
X50867Y33814D01*
X50844Y33738D01*
X50815Y33656D01*
X50768Y33580D01*
X50762Y33569D01*
X50744Y33545D01*
X50709Y33510D01*
X50668Y33463D01*
X50610Y33411D01*
X50546Y33358D01*
X50464Y33299D01*
X50370Y33253D01*
X50376D01*
X50388Y33247D01*
X50405D01*
X50429Y33235D01*
X50487Y33218D01*
X50563Y33182D01*
X50645Y33141D01*
X50733Y33083D01*
X50820Y33013D01*
X50897Y32925D01*
X50902Y32913D01*
X50926Y32878D01*
X50955Y32826D01*
X50996Y32755D01*
X51031Y32668D01*
X51060Y32562D01*
X51084Y32440D01*
X51090Y32305D01*
Y32299D01*
Y32282D01*
Y32258D01*
X51084Y32223D01*
X51078Y32176D01*
X51072Y32129D01*
X51060Y32071D01*
X51043Y32013D01*
X51002Y31878D01*
X50973Y31802D01*
X50932Y31732D01*
X50891Y31661D01*
X50844Y31591D01*
X50785Y31521D01*
X50721Y31451D01*
X50715Y31445D01*
X50704Y31433D01*
X50686Y31422D01*
X50657Y31398D01*
X50622Y31369D01*
X50575Y31340D01*
X50522Y31310D01*
X50469Y31281D01*
X50405Y31246D01*
X50335Y31217D01*
X50259Y31188D01*
X50177Y31158D01*
X50089Y31135D01*
X49996Y31123D01*
X49896Y31112D01*
X49797Y31106D01*
X49750D01*
X49715Y31112D01*
X49668Y31117D01*
X49621Y31123D01*
X49563Y31129D01*
X49504Y31141D01*
X49370Y31176D01*
X49229Y31234D01*
X49159Y31264D01*
X49095Y31305D01*
X49025Y31351D01*
X48960Y31404D01*
X48954Y31410D01*
X48948Y31416D01*
X48931Y31433D01*
X48908Y31457D01*
X48884Y31492D01*
X48855Y31527D01*
X48820Y31568D01*
X48791Y31615D01*
X48720Y31732D01*
X48662Y31866D01*
X48609Y32018D01*
X48592Y32100D01*
X48580Y32188D01*
X49054Y32252D01*
Y32247D01*
X49060Y32235D01*
Y32211D01*
X49071Y32188D01*
X49089Y32118D01*
X49118Y32030D01*
X49153Y31936D01*
X49200Y31837D01*
X49259Y31749D01*
X49323Y31673D01*
X49335Y31667D01*
X49358Y31644D01*
X49399Y31620D01*
X49457Y31585D01*
X49522Y31556D01*
X49604Y31527D01*
X49697Y31503D01*
X49797Y31498D01*
X49832D01*
X49855Y31503D01*
X49914Y31509D01*
X49990Y31527D01*
X50083Y31556D01*
X50177Y31591D01*
X50271Y31650D01*
X50358Y31726D01*
X50370Y31738D01*
X50393Y31767D01*
X50429Y31814D01*
X50475Y31884D01*
X50516Y31966D01*
X50551Y32065D01*
X50575Y32176D01*
X50586Y32299D01*
Y32305D01*
Y32311D01*
Y32328D01*
X50581Y32352D01*
X50575Y32410D01*
X50557Y32486D01*
X50534Y32568D01*
X50493Y32662D01*
X50440Y32750D01*
X50370Y32831D01*
X50358Y32843D01*
X50335Y32867D01*
X50288Y32896D01*
X50224Y32937D01*
X50148Y32978D01*
X50054Y33007D01*
X49955Y33030D01*
X49838Y33042D01*
X49785D01*
X49744Y33036D01*
X49697Y33030D01*
X49639Y33024D01*
X49575Y33013D01*
X49504Y32995D01*
X49557Y33411D01*
X49586D01*
X49610Y33405D01*
X49686D01*
X49738Y33411D01*
X49814Y33422D01*
X49896Y33440D01*
X49984Y33469D01*
X50078Y33504D01*
X50171Y33557D01*
X50183Y33563D01*
X50212Y33586D01*
X50247Y33627D01*
X50294Y33680D01*
X50341Y33744D01*
X50376Y33826D01*
X50405Y33925D01*
X50417Y34042D01*
Y34048D01*
Y34054D01*
Y34083D01*
X50405Y34130D01*
X50393Y34194D01*
X50376Y34259D01*
X50341Y34329D01*
X50300Y34405D01*
X50241Y34470D01*
X50235Y34475D01*
X50212Y34499D01*
X50171Y34528D01*
X50118Y34557D01*
X50054Y34592D01*
X49978Y34616D01*
X49890Y34639D01*
X49791Y34645D01*
X49744D01*
X49692Y34633D01*
X49633Y34622D01*
X49557Y34604D01*
X49481Y34569D01*
X49405Y34528D01*
X49329Y34470D01*
X49323Y34464D01*
X49299Y34440D01*
X49270Y34399D01*
X49235Y34341D01*
X49194Y34271D01*
X49159Y34183D01*
X49124Y34078D01*
X49101Y33955D01*
X48627Y34037D01*
Y34042D01*
X48633Y34060D01*
X48638Y34083D01*
X48644Y34113D01*
X48656Y34154D01*
X48668Y34200D01*
X48709Y34306D01*
X48755Y34423D01*
X48826Y34545D01*
X48908Y34663D01*
X49013Y34768D01*
X49019Y34774D01*
X49025Y34780D01*
X49042Y34791D01*
X49071Y34809D01*
X49101Y34826D01*
X49136Y34850D01*
X49224Y34902D01*
X49335Y34949D01*
X49469Y34990D01*
X49615Y35019D01*
X49697Y35031D01*
X49832D01*
X49890Y35025D01*
D02*
G37*
G36*
X46468Y35008D02*
X46573Y35002D01*
X46690Y34990D01*
X46802Y34973D01*
X46895Y34955D01*
X46901D01*
X46913Y34949D01*
X46924D01*
X46948Y34938D01*
X47012Y34920D01*
X47088Y34891D01*
X47176Y34856D01*
X47270Y34809D01*
X47363Y34750D01*
X47457Y34680D01*
X47463D01*
X47469Y34668D01*
X47509Y34633D01*
X47562Y34575D01*
X47626Y34499D01*
X47703Y34405D01*
X47778Y34294D01*
X47849Y34165D01*
X47913Y34019D01*
Y34013D01*
X47919Y34001D01*
X47925Y33978D01*
X47936Y33949D01*
X47948Y33914D01*
X47960Y33867D01*
X47977Y33814D01*
X47989Y33756D01*
X48001Y33691D01*
X48018Y33621D01*
X48042Y33469D01*
X48059Y33299D01*
X48065Y33112D01*
Y33106D01*
Y33095D01*
Y33071D01*
Y33036D01*
X48059Y33001D01*
Y32954D01*
X48054Y32849D01*
X48042Y32732D01*
X48018Y32598D01*
X47995Y32463D01*
X47960Y32334D01*
Y32328D01*
X47954Y32317D01*
X47948Y32299D01*
X47942Y32276D01*
X47919Y32217D01*
X47890Y32135D01*
X47855Y32048D01*
X47808Y31954D01*
X47755Y31860D01*
X47697Y31773D01*
X47691Y31761D01*
X47667Y31738D01*
X47638Y31697D01*
X47591Y31644D01*
X47545Y31591D01*
X47480Y31533D01*
X47416Y31474D01*
X47346Y31422D01*
X47340Y31416D01*
X47311Y31404D01*
X47270Y31381D01*
X47217Y31351D01*
X47153Y31322D01*
X47076Y31293D01*
X46989Y31264D01*
X46889Y31234D01*
X46878D01*
X46843Y31223D01*
X46790Y31217D01*
X46714Y31205D01*
X46626Y31194D01*
X46521Y31182D01*
X46404Y31176D01*
X46275Y31170D01*
X44894D01*
Y35013D01*
X46369D01*
X46468Y35008D01*
D02*
G37*
G36*
X71237Y35025D02*
X71284Y35019D01*
X71337Y35013D01*
X71395Y35008D01*
X71460Y34990D01*
X71600Y34955D01*
X71746Y34902D01*
X71822Y34867D01*
X71892Y34826D01*
X71957Y34774D01*
X72021Y34721D01*
X72027Y34715D01*
X72033Y34709D01*
X72050Y34692D01*
X72074Y34668D01*
X72097Y34633D01*
X72126Y34598D01*
X72185Y34510D01*
X72243Y34399D01*
X72296Y34271D01*
X72337Y34124D01*
X72343Y34042D01*
X72349Y33961D01*
Y33949D01*
Y33920D01*
X72343Y33873D01*
X72337Y33814D01*
X72325Y33744D01*
X72308Y33668D01*
X72284Y33586D01*
X72249Y33504D01*
X72243Y33492D01*
X72232Y33463D01*
X72208Y33422D01*
X72173Y33364D01*
X72132Y33294D01*
X72080Y33212D01*
X72009Y33130D01*
X71933Y33036D01*
X71922Y33024D01*
X71892Y32989D01*
X71840Y32937D01*
X71805Y32902D01*
X71764Y32861D01*
X71717Y32814D01*
X71658Y32761D01*
X71600Y32709D01*
X71535Y32644D01*
X71465Y32580D01*
X71383Y32510D01*
X71302Y32440D01*
X71208Y32358D01*
X71202Y32352D01*
X71190Y32340D01*
X71167Y32322D01*
X71138Y32299D01*
X71068Y32241D01*
X70980Y32165D01*
X70892Y32083D01*
X70798Y32001D01*
X70722Y31931D01*
X70693Y31901D01*
X70664Y31872D01*
X70658Y31866D01*
X70646Y31849D01*
X70623Y31825D01*
X70594Y31790D01*
X70529Y31714D01*
X70465Y31620D01*
X72355D01*
Y31170D01*
X69810D01*
Y31176D01*
Y31199D01*
Y31234D01*
X69816Y31275D01*
X69822Y31322D01*
X69827Y31375D01*
X69845Y31433D01*
X69862Y31492D01*
Y31498D01*
X69868Y31503D01*
X69880Y31539D01*
X69903Y31585D01*
X69938Y31656D01*
X69979Y31732D01*
X70038Y31819D01*
X70096Y31907D01*
X70173Y32001D01*
Y32007D01*
X70184Y32013D01*
X70213Y32048D01*
X70260Y32100D01*
X70330Y32170D01*
X70418Y32252D01*
X70524Y32352D01*
X70652Y32463D01*
X70793Y32586D01*
X70798Y32592D01*
X70822Y32609D01*
X70851Y32633D01*
X70892Y32673D01*
X70945Y32715D01*
X71003Y32767D01*
X71132Y32878D01*
X71272Y33013D01*
X71413Y33147D01*
X71483Y33212D01*
X71541Y33276D01*
X71594Y33340D01*
X71641Y33399D01*
Y33405D01*
X71653Y33411D01*
X71664Y33428D01*
X71676Y33452D01*
X71711Y33510D01*
X71752Y33586D01*
X71793Y33674D01*
X71828Y33768D01*
X71851Y33873D01*
X71863Y33972D01*
Y33978D01*
Y33984D01*
X71857Y34019D01*
X71851Y34072D01*
X71840Y34136D01*
X71811Y34212D01*
X71775Y34288D01*
X71729Y34370D01*
X71658Y34446D01*
X71647Y34452D01*
X71623Y34475D01*
X71576Y34505D01*
X71518Y34545D01*
X71442Y34581D01*
X71354Y34610D01*
X71249Y34633D01*
X71132Y34639D01*
X71097D01*
X71073Y34633D01*
X71015Y34627D01*
X70939Y34616D01*
X70851Y34587D01*
X70758Y34551D01*
X70670Y34499D01*
X70588Y34429D01*
X70582Y34417D01*
X70559Y34393D01*
X70524Y34347D01*
X70488Y34282D01*
X70447Y34200D01*
X70418Y34107D01*
X70395Y33996D01*
X70383Y33867D01*
X69898Y33920D01*
Y33925D01*
Y33943D01*
X69903Y33972D01*
X69909Y34007D01*
X69921Y34054D01*
X69927Y34107D01*
X69962Y34224D01*
X70009Y34358D01*
X70073Y34493D01*
X70161Y34627D01*
X70208Y34686D01*
X70266Y34744D01*
X70272Y34750D01*
X70284Y34756D01*
X70301Y34774D01*
X70325Y34791D01*
X70360Y34809D01*
X70401Y34838D01*
X70447Y34861D01*
X70500Y34891D01*
X70559Y34914D01*
X70623Y34943D01*
X70699Y34967D01*
X70775Y34984D01*
X70951Y35019D01*
X71044Y35025D01*
X71144Y35031D01*
X71196D01*
X71237Y35025D01*
D02*
G37*
G36*
X67768Y35008D02*
X67873Y35002D01*
X67990Y34990D01*
X68102Y34973D01*
X68195Y34955D01*
X68201D01*
X68213Y34949D01*
X68224D01*
X68248Y34938D01*
X68312Y34920D01*
X68388Y34891D01*
X68476Y34856D01*
X68570Y34809D01*
X68663Y34750D01*
X68757Y34680D01*
X68763D01*
X68769Y34668D01*
X68809Y34633D01*
X68862Y34575D01*
X68926Y34499D01*
X69002Y34405D01*
X69078Y34294D01*
X69149Y34165D01*
X69213Y34019D01*
Y34013D01*
X69219Y34001D01*
X69225Y33978D01*
X69236Y33949D01*
X69248Y33914D01*
X69260Y33867D01*
X69277Y33814D01*
X69289Y33756D01*
X69301Y33691D01*
X69318Y33621D01*
X69342Y33469D01*
X69359Y33299D01*
X69365Y33112D01*
Y33106D01*
Y33095D01*
Y33071D01*
Y33036D01*
X69359Y33001D01*
Y32954D01*
X69353Y32849D01*
X69342Y32732D01*
X69318Y32598D01*
X69295Y32463D01*
X69260Y32334D01*
Y32328D01*
X69254Y32317D01*
X69248Y32299D01*
X69242Y32276D01*
X69219Y32217D01*
X69190Y32135D01*
X69155Y32048D01*
X69108Y31954D01*
X69055Y31860D01*
X68997Y31773D01*
X68991Y31761D01*
X68967Y31738D01*
X68938Y31697D01*
X68891Y31644D01*
X68844Y31591D01*
X68780Y31533D01*
X68716Y31474D01*
X68646Y31422D01*
X68640Y31416D01*
X68611Y31404D01*
X68570Y31381D01*
X68517Y31351D01*
X68453Y31322D01*
X68376Y31293D01*
X68289Y31264D01*
X68189Y31234D01*
X68178D01*
X68142Y31223D01*
X68090Y31217D01*
X68014Y31205D01*
X67926Y31194D01*
X67821Y31182D01*
X67704Y31176D01*
X67575Y31170D01*
X66194D01*
Y35013D01*
X67669D01*
X67768Y35008D01*
D02*
G37*
G36*
X95642Y111062D02*
X95169D01*
Y114068D01*
X95163Y114063D01*
X95139Y114039D01*
X95098Y114010D01*
X95046Y113969D01*
X94981Y113916D01*
X94905Y113864D01*
X94818Y113799D01*
X94718Y113741D01*
X94712D01*
X94706Y113735D01*
X94671Y113712D01*
X94619Y113682D01*
X94554Y113647D01*
X94478Y113606D01*
X94396Y113571D01*
X94309Y113530D01*
X94227Y113495D01*
Y113957D01*
X94233D01*
X94244Y113963D01*
X94268Y113975D01*
X94291Y113993D01*
X94326Y114010D01*
X94367Y114028D01*
X94461Y114080D01*
X94566Y114145D01*
X94683Y114221D01*
X94800Y114308D01*
X94911Y114402D01*
X94917Y114408D01*
X94923Y114414D01*
X94958Y114449D01*
X95011Y114501D01*
X95075Y114566D01*
X95145Y114648D01*
X95215Y114735D01*
X95280Y114829D01*
X95332Y114923D01*
X95642D01*
Y111062D01*
D02*
G37*
G36*
X91758Y114899D02*
X91863Y114893D01*
X91980Y114882D01*
X92092Y114864D01*
X92185Y114847D01*
X92191D01*
X92203Y114841D01*
X92214D01*
X92238Y114829D01*
X92302Y114812D01*
X92378Y114782D01*
X92466Y114747D01*
X92559Y114700D01*
X92653Y114642D01*
X92747Y114572D01*
X92752D01*
X92758Y114560D01*
X92799Y114525D01*
X92852Y114466D01*
X92916Y114390D01*
X92992Y114297D01*
X93068Y114186D01*
X93139Y114057D01*
X93203Y113911D01*
Y113905D01*
X93209Y113893D01*
X93215Y113870D01*
X93226Y113840D01*
X93238Y113805D01*
X93250Y113759D01*
X93267Y113706D01*
X93279Y113647D01*
X93291Y113583D01*
X93308Y113513D01*
X93332Y113361D01*
X93349Y113191D01*
X93355Y113004D01*
Y112998D01*
Y112986D01*
Y112963D01*
Y112928D01*
X93349Y112893D01*
Y112846D01*
X93343Y112741D01*
X93332Y112624D01*
X93308Y112489D01*
X93285Y112355D01*
X93250Y112226D01*
Y112220D01*
X93244Y112208D01*
X93238Y112191D01*
X93232Y112167D01*
X93209Y112109D01*
X93180Y112027D01*
X93145Y111939D01*
X93098Y111846D01*
X93045Y111752D01*
X92987Y111664D01*
X92981Y111653D01*
X92957Y111629D01*
X92928Y111588D01*
X92881Y111536D01*
X92834Y111483D01*
X92770Y111424D01*
X92706Y111366D01*
X92636Y111313D01*
X92630Y111307D01*
X92600Y111296D01*
X92559Y111272D01*
X92507Y111243D01*
X92443Y111214D01*
X92366Y111185D01*
X92279Y111155D01*
X92179Y111126D01*
X92168D01*
X92132Y111114D01*
X92080Y111108D01*
X92004Y111097D01*
X91916Y111085D01*
X91811Y111073D01*
X91694Y111067D01*
X91565Y111062D01*
X90184D01*
Y114905D01*
X91659D01*
X91758Y114899D01*
D02*
G37*
G36*
X90414Y66215D02*
X90461Y66210D01*
X90519Y66204D01*
X90584Y66198D01*
X90654Y66186D01*
X90806Y66151D01*
X90970Y66098D01*
X91052Y66063D01*
X91134Y66022D01*
X91210Y65975D01*
X91286Y65923D01*
X91292Y65917D01*
X91303Y65911D01*
X91321Y65894D01*
X91350Y65870D01*
X91379Y65841D01*
X91420Y65800D01*
X91461Y65759D01*
X91502Y65712D01*
X91549Y65654D01*
X91590Y65595D01*
X91637Y65525D01*
X91684Y65449D01*
X91725Y65373D01*
X91765Y65285D01*
X91836Y65098D01*
X91333Y64981D01*
Y64987D01*
X91327Y64999D01*
X91321Y65022D01*
X91309Y65051D01*
X91292Y65086D01*
X91274Y65127D01*
X91233Y65215D01*
X91180Y65314D01*
X91110Y65420D01*
X91034Y65513D01*
X90941Y65595D01*
X90929Y65601D01*
X90894Y65624D01*
X90841Y65654D01*
X90765Y65695D01*
X90677Y65730D01*
X90566Y65759D01*
X90443Y65782D01*
X90303Y65788D01*
X90262D01*
X90233Y65782D01*
X90192D01*
X90151Y65777D01*
X90046Y65759D01*
X89929Y65736D01*
X89806Y65695D01*
X89683Y65642D01*
X89566Y65572D01*
X89560D01*
X89554Y65560D01*
X89519Y65531D01*
X89467Y65484D01*
X89402Y65420D01*
X89338Y65338D01*
X89268Y65244D01*
X89203Y65127D01*
X89151Y64999D01*
Y64993D01*
X89145Y64981D01*
X89139Y64963D01*
X89133Y64934D01*
X89121Y64905D01*
X89116Y64864D01*
X89092Y64770D01*
X89069Y64659D01*
X89051Y64536D01*
X89039Y64402D01*
X89034Y64261D01*
Y64256D01*
Y64238D01*
Y64215D01*
Y64179D01*
X89039Y64139D01*
Y64086D01*
X89045Y64033D01*
X89051Y63975D01*
X89069Y63840D01*
X89092Y63694D01*
X89127Y63548D01*
X89174Y63407D01*
Y63402D01*
X89180Y63390D01*
X89192Y63372D01*
X89203Y63349D01*
X89232Y63279D01*
X89279Y63203D01*
X89344Y63109D01*
X89420Y63021D01*
X89507Y62933D01*
X89613Y62857D01*
X89619D01*
X89624Y62852D01*
X89642Y62840D01*
X89665Y62828D01*
X89730Y62805D01*
X89812Y62770D01*
X89905Y62740D01*
X90016Y62711D01*
X90139Y62688D01*
X90268Y62682D01*
X90309D01*
X90338Y62688D01*
X90373D01*
X90420Y62694D01*
X90519Y62711D01*
X90631Y62740D01*
X90754Y62787D01*
X90870Y62846D01*
X90987Y62928D01*
X90993Y62933D01*
X90999Y62939D01*
X91034Y62974D01*
X91087Y63033D01*
X91151Y63109D01*
X91216Y63214D01*
X91286Y63337D01*
X91344Y63489D01*
X91391Y63659D01*
X91900Y63530D01*
Y63524D01*
X91894Y63501D01*
X91882Y63472D01*
X91871Y63425D01*
X91847Y63378D01*
X91824Y63314D01*
X91801Y63249D01*
X91765Y63179D01*
X91689Y63021D01*
X91584Y62863D01*
X91467Y62711D01*
X91397Y62641D01*
X91321Y62577D01*
X91315Y62571D01*
X91303Y62565D01*
X91280Y62547D01*
X91245Y62524D01*
X91204Y62501D01*
X91157Y62471D01*
X91105Y62442D01*
X91040Y62413D01*
X90970Y62384D01*
X90894Y62354D01*
X90806Y62325D01*
X90718Y62302D01*
X90525Y62261D01*
X90420Y62255D01*
X90309Y62249D01*
X90250D01*
X90204Y62255D01*
X90151D01*
X90092Y62261D01*
X90022Y62272D01*
X89952Y62278D01*
X89788Y62313D01*
X89619Y62354D01*
X89455Y62419D01*
X89373Y62454D01*
X89297Y62501D01*
X89291Y62506D01*
X89279Y62512D01*
X89262Y62530D01*
X89232Y62547D01*
X89162Y62606D01*
X89080Y62688D01*
X88981Y62787D01*
X88887Y62916D01*
X88788Y63062D01*
X88706Y63232D01*
Y63238D01*
X88700Y63255D01*
X88688Y63279D01*
X88677Y63314D01*
X88659Y63361D01*
X88642Y63413D01*
X88624Y63472D01*
X88607Y63542D01*
X88589Y63612D01*
X88571Y63694D01*
X88536Y63870D01*
X88513Y64057D01*
X88507Y64261D01*
Y64267D01*
Y64291D01*
Y64320D01*
X88513Y64361D01*
Y64413D01*
X88519Y64478D01*
X88525Y64542D01*
X88536Y64618D01*
X88566Y64782D01*
X88601Y64958D01*
X88659Y65139D01*
X88735Y65309D01*
Y65314D01*
X88747Y65326D01*
X88759Y65350D01*
X88776Y65385D01*
X88800Y65420D01*
X88829Y65461D01*
X88905Y65560D01*
X88993Y65671D01*
X89104Y65782D01*
X89238Y65894D01*
X89385Y65987D01*
X89390D01*
X89402Y65999D01*
X89425Y66011D01*
X89461Y66022D01*
X89496Y66040D01*
X89543Y66063D01*
X89601Y66081D01*
X89660Y66104D01*
X89724Y66128D01*
X89794Y66145D01*
X89952Y66186D01*
X90127Y66210D01*
X90315Y66221D01*
X90373D01*
X90414Y66215D01*
D02*
G37*
G36*
X93661Y66168D02*
X93708D01*
X93755Y66157D01*
X93871Y66139D01*
X94000Y66104D01*
X94135Y66052D01*
X94205Y66016D01*
X94269Y65981D01*
X94334Y65934D01*
X94392Y65882D01*
X94398Y65876D01*
X94404Y65870D01*
X94421Y65853D01*
X94439Y65829D01*
X94462Y65800D01*
X94492Y65765D01*
X94550Y65683D01*
X94603Y65578D01*
X94655Y65455D01*
X94691Y65320D01*
X94696Y65244D01*
X94702Y65168D01*
Y65157D01*
Y65121D01*
X94696Y65075D01*
X94685Y65010D01*
X94667Y64934D01*
X94644Y64858D01*
X94609Y64776D01*
X94562Y64700D01*
X94556Y64694D01*
X94538Y64671D01*
X94503Y64636D01*
X94456Y64589D01*
X94398Y64542D01*
X94322Y64495D01*
X94234Y64443D01*
X94135Y64402D01*
X94141D01*
X94152Y64396D01*
X94170Y64390D01*
X94193Y64378D01*
X94258Y64349D01*
X94334Y64314D01*
X94421Y64261D01*
X94509Y64197D01*
X94597Y64115D01*
X94673Y64027D01*
X94679Y64016D01*
X94702Y63981D01*
X94731Y63928D01*
X94767Y63852D01*
X94802Y63764D01*
X94831Y63659D01*
X94854Y63542D01*
X94860Y63413D01*
Y63407D01*
Y63390D01*
Y63366D01*
X94854Y63331D01*
X94849Y63290D01*
X94843Y63238D01*
X94819Y63121D01*
X94772Y62992D01*
X94749Y62922D01*
X94714Y62852D01*
X94673Y62781D01*
X94626Y62711D01*
X94573Y62647D01*
X94509Y62582D01*
X94503Y62577D01*
X94492Y62571D01*
X94474Y62553D01*
X94445Y62530D01*
X94410Y62506D01*
X94369Y62477D01*
X94322Y62448D01*
X94263Y62419D01*
X94199Y62384D01*
X94129Y62354D01*
X94053Y62325D01*
X93971Y62302D01*
X93889Y62278D01*
X93796Y62261D01*
X93696Y62255D01*
X93591Y62249D01*
X93538D01*
X93497Y62255D01*
X93450Y62261D01*
X93392Y62267D01*
X93333Y62278D01*
X93263Y62290D01*
X93117Y62331D01*
X93041Y62360D01*
X92965Y62389D01*
X92889Y62430D01*
X92813Y62471D01*
X92743Y62524D01*
X92672Y62582D01*
X92666Y62588D01*
X92655Y62600D01*
X92643Y62618D01*
X92620Y62641D01*
X92590Y62676D01*
X92561Y62717D01*
X92532Y62764D01*
X92503Y62817D01*
X92467Y62875D01*
X92438Y62939D01*
X92380Y63080D01*
X92356Y63162D01*
X92345Y63244D01*
X92333Y63331D01*
X92327Y63425D01*
Y63431D01*
Y63442D01*
Y63460D01*
X92333Y63489D01*
Y63519D01*
X92339Y63559D01*
X92351Y63641D01*
X92374Y63741D01*
X92409Y63846D01*
X92450Y63951D01*
X92514Y64051D01*
Y64057D01*
X92526Y64062D01*
X92549Y64092D01*
X92596Y64139D01*
X92655Y64191D01*
X92731Y64250D01*
X92824Y64308D01*
X92936Y64361D01*
X93058Y64402D01*
X93053D01*
X93047Y64408D01*
X93012Y64419D01*
X92959Y64449D01*
X92895Y64478D01*
X92818Y64525D01*
X92748Y64577D01*
X92678Y64636D01*
X92620Y64706D01*
X92614Y64718D01*
X92596Y64741D01*
X92573Y64782D01*
X92549Y64841D01*
X92526Y64911D01*
X92503Y64993D01*
X92485Y65080D01*
X92479Y65180D01*
Y65186D01*
Y65197D01*
Y65221D01*
X92485Y65250D01*
X92491Y65285D01*
X92497Y65326D01*
X92514Y65426D01*
X92549Y65537D01*
X92608Y65654D01*
X92637Y65718D01*
X92678Y65777D01*
X92725Y65835D01*
X92778Y65888D01*
X92783Y65894D01*
X92789Y65899D01*
X92807Y65917D01*
X92830Y65934D01*
X92865Y65952D01*
X92900Y65981D01*
X92941Y66005D01*
X92994Y66034D01*
X93105Y66087D01*
X93246Y66128D01*
X93404Y66163D01*
X93485Y66168D01*
X93579Y66174D01*
X93626D01*
X93661Y66168D01*
D02*
G37*
G36*
X47514Y66115D02*
X47561Y66110D01*
X47620Y66104D01*
X47684Y66098D01*
X47754Y66086D01*
X47906Y66051D01*
X48070Y65998D01*
X48152Y65963D01*
X48234Y65922D01*
X48310Y65876D01*
X48386Y65823D01*
X48392Y65817D01*
X48403Y65811D01*
X48421Y65794D01*
X48450Y65770D01*
X48479Y65741D01*
X48520Y65700D01*
X48561Y65659D01*
X48602Y65612D01*
X48649Y65554D01*
X48690Y65495D01*
X48737Y65425D01*
X48784Y65349D01*
X48825Y65273D01*
X48866Y65185D01*
X48936Y64998D01*
X48433Y64881D01*
Y64887D01*
X48427Y64899D01*
X48421Y64922D01*
X48409Y64951D01*
X48392Y64986D01*
X48374Y65027D01*
X48333Y65115D01*
X48281Y65214D01*
X48210Y65320D01*
X48134Y65413D01*
X48041Y65495D01*
X48029Y65501D01*
X47994Y65525D01*
X47941Y65554D01*
X47865Y65595D01*
X47777Y65630D01*
X47666Y65659D01*
X47543Y65682D01*
X47403Y65688D01*
X47362D01*
X47333Y65682D01*
X47292D01*
X47251Y65677D01*
X47146Y65659D01*
X47029Y65636D01*
X46906Y65595D01*
X46783Y65542D01*
X46666Y65472D01*
X46660D01*
X46654Y65460D01*
X46619Y65431D01*
X46567Y65384D01*
X46502Y65320D01*
X46438Y65238D01*
X46368Y65144D01*
X46303Y65027D01*
X46251Y64899D01*
Y64893D01*
X46245Y64881D01*
X46239Y64863D01*
X46233Y64834D01*
X46221Y64805D01*
X46216Y64764D01*
X46192Y64670D01*
X46169Y64559D01*
X46151Y64436D01*
X46139Y64302D01*
X46134Y64161D01*
Y64156D01*
Y64138D01*
Y64115D01*
Y64079D01*
X46139Y64039D01*
Y63986D01*
X46145Y63933D01*
X46151Y63875D01*
X46169Y63740D01*
X46192Y63594D01*
X46227Y63448D01*
X46274Y63307D01*
Y63301D01*
X46280Y63290D01*
X46292Y63272D01*
X46303Y63249D01*
X46332Y63179D01*
X46379Y63103D01*
X46444Y63009D01*
X46520Y62921D01*
X46607Y62833D01*
X46713Y62757D01*
X46719D01*
X46724Y62752D01*
X46742Y62740D01*
X46765Y62728D01*
X46830Y62705D01*
X46912Y62670D01*
X47005Y62640D01*
X47116Y62611D01*
X47239Y62588D01*
X47368Y62582D01*
X47409D01*
X47438Y62588D01*
X47473D01*
X47520Y62594D01*
X47620Y62611D01*
X47731Y62640D01*
X47853Y62687D01*
X47971Y62746D01*
X48087Y62828D01*
X48093Y62833D01*
X48099Y62839D01*
X48134Y62874D01*
X48187Y62933D01*
X48251Y63009D01*
X48316Y63114D01*
X48386Y63237D01*
X48444Y63389D01*
X48491Y63559D01*
X49000Y63430D01*
Y63424D01*
X48994Y63401D01*
X48983Y63372D01*
X48971Y63325D01*
X48947Y63278D01*
X48924Y63214D01*
X48901Y63149D01*
X48866Y63079D01*
X48790Y62921D01*
X48684Y62763D01*
X48567Y62611D01*
X48497Y62541D01*
X48421Y62477D01*
X48415Y62471D01*
X48403Y62465D01*
X48380Y62447D01*
X48345Y62424D01*
X48304Y62401D01*
X48257Y62371D01*
X48204Y62342D01*
X48140Y62313D01*
X48070Y62284D01*
X47994Y62254D01*
X47906Y62225D01*
X47818Y62202D01*
X47625Y62161D01*
X47520Y62155D01*
X47409Y62149D01*
X47350D01*
X47304Y62155D01*
X47251D01*
X47192Y62161D01*
X47122Y62172D01*
X47052Y62178D01*
X46888Y62213D01*
X46719Y62254D01*
X46555Y62319D01*
X46473Y62354D01*
X46397Y62401D01*
X46391Y62406D01*
X46379Y62412D01*
X46362Y62430D01*
X46332Y62447D01*
X46262Y62506D01*
X46180Y62588D01*
X46081Y62687D01*
X45987Y62816D01*
X45888Y62962D01*
X45806Y63132D01*
Y63138D01*
X45800Y63155D01*
X45788Y63179D01*
X45777Y63214D01*
X45759Y63261D01*
X45742Y63313D01*
X45724Y63372D01*
X45706Y63442D01*
X45689Y63512D01*
X45671Y63594D01*
X45636Y63770D01*
X45613Y63957D01*
X45607Y64161D01*
Y64167D01*
Y64191D01*
Y64220D01*
X45613Y64261D01*
Y64314D01*
X45619Y64378D01*
X45625Y64442D01*
X45636Y64518D01*
X45666Y64682D01*
X45701Y64858D01*
X45759Y65039D01*
X45835Y65209D01*
Y65214D01*
X45847Y65226D01*
X45859Y65250D01*
X45876Y65285D01*
X45900Y65320D01*
X45929Y65361D01*
X46005Y65460D01*
X46093Y65571D01*
X46204Y65682D01*
X46338Y65794D01*
X46485Y65887D01*
X46490D01*
X46502Y65899D01*
X46525Y65911D01*
X46561Y65922D01*
X46596Y65940D01*
X46643Y65963D01*
X46701Y65981D01*
X46760Y66004D01*
X46824Y66028D01*
X46894Y66045D01*
X47052Y66086D01*
X47227Y66110D01*
X47415Y66121D01*
X47473D01*
X47514Y66115D01*
D02*
G37*
G36*
X51948Y65641D02*
X51943Y65636D01*
X51931Y65624D01*
X51913Y65601D01*
X51884Y65571D01*
X51855Y65530D01*
X51814Y65483D01*
X51767Y65425D01*
X51720Y65367D01*
X51668Y65296D01*
X51609Y65214D01*
X51545Y65132D01*
X51486Y65039D01*
X51422Y64939D01*
X51352Y64834D01*
X51287Y64717D01*
X51217Y64600D01*
X51211Y64594D01*
X51200Y64571D01*
X51182Y64536D01*
X51159Y64489D01*
X51130Y64430D01*
X51094Y64360D01*
X51053Y64278D01*
X51012Y64191D01*
X50972Y64097D01*
X50925Y63992D01*
X50878Y63881D01*
X50831Y63764D01*
X50743Y63524D01*
X50661Y63266D01*
Y63261D01*
X50656Y63243D01*
X50650Y63220D01*
X50638Y63184D01*
X50626Y63138D01*
X50615Y63085D01*
X50603Y63021D01*
X50585Y62956D01*
X50574Y62880D01*
X50556Y62798D01*
X50527Y62623D01*
X50503Y62424D01*
X50486Y62213D01*
X50000D01*
Y62219D01*
Y62237D01*
Y62260D01*
X50006Y62295D01*
Y62336D01*
X50012Y62389D01*
X50018Y62453D01*
X50024Y62518D01*
X50036Y62594D01*
X50047Y62681D01*
X50059Y62769D01*
X50077Y62863D01*
X50094Y62968D01*
X50117Y63073D01*
X50176Y63307D01*
Y63313D01*
X50182Y63337D01*
X50194Y63372D01*
X50205Y63419D01*
X50223Y63477D01*
X50246Y63541D01*
X50270Y63617D01*
X50299Y63705D01*
X50334Y63793D01*
X50369Y63892D01*
X50451Y64103D01*
X50550Y64325D01*
X50661Y64547D01*
X50667Y64553D01*
X50679Y64577D01*
X50697Y64606D01*
X50720Y64647D01*
X50749Y64700D01*
X50784Y64758D01*
X50825Y64823D01*
X50866Y64899D01*
X50972Y65057D01*
X51089Y65226D01*
X51211Y65396D01*
X51346Y65560D01*
X49462D01*
Y66010D01*
X51948D01*
Y65641D01*
D02*
G37*
G36*
X72066Y66069D02*
X72101D01*
X72148Y66063D01*
X72253Y66045D01*
X72370Y66010D01*
X72493Y65963D01*
X72616Y65905D01*
X72675Y65864D01*
X72733Y65817D01*
X72739D01*
X72745Y65805D01*
X72780Y65770D01*
X72827Y65712D01*
X72885Y65636D01*
X72950Y65536D01*
X73002Y65419D01*
X73055Y65279D01*
X73084Y65121D01*
X72616Y65086D01*
Y65092D01*
Y65097D01*
X72604Y65132D01*
X72587Y65179D01*
X72569Y65238D01*
X72511Y65372D01*
X72476Y65431D01*
X72435Y65483D01*
X72429Y65495D01*
X72400Y65519D01*
X72359Y65548D01*
X72306Y65589D01*
X72236Y65624D01*
X72154Y65659D01*
X72060Y65682D01*
X71961Y65688D01*
X71920D01*
X71879Y65682D01*
X71826Y65671D01*
X71762Y65659D01*
X71692Y65636D01*
X71627Y65601D01*
X71557Y65560D01*
X71546Y65554D01*
X71522Y65530D01*
X71481Y65489D01*
X71434Y65437D01*
X71376Y65372D01*
X71317Y65290D01*
X71259Y65191D01*
X71206Y65080D01*
Y65074D01*
X71200Y65068D01*
X71195Y65045D01*
X71189Y65021D01*
X71177Y64992D01*
X71165Y64951D01*
X71154Y64904D01*
X71142Y64852D01*
X71130Y64793D01*
X71118Y64729D01*
X71107Y64653D01*
X71095Y64577D01*
X71089Y64489D01*
X71083Y64395D01*
X71078Y64296D01*
Y64196D01*
X71083Y64202D01*
X71107Y64232D01*
X71142Y64278D01*
X71195Y64337D01*
X71253Y64401D01*
X71323Y64466D01*
X71405Y64524D01*
X71493Y64577D01*
X71505Y64583D01*
X71534Y64594D01*
X71587Y64618D01*
X71651Y64641D01*
X71727Y64665D01*
X71815Y64688D01*
X71908Y64700D01*
X72008Y64705D01*
X72054D01*
X72090Y64700D01*
X72131Y64694D01*
X72177Y64688D01*
X72289Y64665D01*
X72411Y64618D01*
X72482Y64594D01*
X72546Y64559D01*
X72616Y64518D01*
X72686Y64472D01*
X72751Y64419D01*
X72815Y64354D01*
X72821Y64349D01*
X72827Y64337D01*
X72844Y64319D01*
X72868Y64290D01*
X72891Y64255D01*
X72920Y64214D01*
X72950Y64167D01*
X72985Y64115D01*
X73014Y64050D01*
X73043Y63986D01*
X73072Y63910D01*
X73096Y63834D01*
X73119Y63746D01*
X73137Y63658D01*
X73143Y63559D01*
X73149Y63459D01*
Y63454D01*
Y63442D01*
Y63424D01*
Y63401D01*
X73143Y63366D01*
Y63331D01*
X73131Y63237D01*
X73107Y63138D01*
X73084Y63021D01*
X73043Y62904D01*
X72991Y62787D01*
Y62781D01*
X72985Y62775D01*
X72973Y62757D01*
X72961Y62734D01*
X72926Y62681D01*
X72879Y62611D01*
X72815Y62535D01*
X72739Y62459D01*
X72657Y62383D01*
X72558Y62313D01*
X72546Y62307D01*
X72511Y62289D01*
X72452Y62260D01*
X72382Y62231D01*
X72289Y62202D01*
X72183Y62172D01*
X72066Y62155D01*
X71943Y62149D01*
X71920D01*
X71885Y62155D01*
X71844D01*
X71797Y62161D01*
X71739Y62172D01*
X71674Y62184D01*
X71604Y62202D01*
X71528Y62225D01*
X71446Y62254D01*
X71370Y62289D01*
X71288Y62330D01*
X71206Y62383D01*
X71124Y62441D01*
X71048Y62506D01*
X70978Y62582D01*
X70972Y62588D01*
X70961Y62605D01*
X70943Y62629D01*
X70920Y62664D01*
X70890Y62711D01*
X70861Y62769D01*
X70826Y62839D01*
X70797Y62921D01*
X70762Y63015D01*
X70727Y63120D01*
X70697Y63237D01*
X70668Y63366D01*
X70645Y63506D01*
X70627Y63664D01*
X70615Y63828D01*
X70610Y64009D01*
Y64015D01*
Y64021D01*
Y64039D01*
Y64056D01*
Y64115D01*
X70615Y64191D01*
X70621Y64284D01*
X70633Y64390D01*
X70645Y64507D01*
X70662Y64629D01*
X70680Y64764D01*
X70709Y64899D01*
X70744Y65033D01*
X70785Y65162D01*
X70832Y65296D01*
X70885Y65413D01*
X70949Y65530D01*
X71019Y65630D01*
X71025Y65636D01*
X71037Y65647D01*
X71054Y65671D01*
X71083Y65700D01*
X71124Y65735D01*
X71165Y65770D01*
X71218Y65811D01*
X71276Y65852D01*
X71341Y65893D01*
X71417Y65934D01*
X71493Y65969D01*
X71581Y66004D01*
X71674Y66033D01*
X71774Y66057D01*
X71879Y66069D01*
X71990Y66074D01*
X72031D01*
X72066Y66069D01*
D02*
G37*
G36*
X68714Y66115D02*
X68761Y66110D01*
X68819Y66104D01*
X68884Y66098D01*
X68954Y66086D01*
X69106Y66051D01*
X69270Y65998D01*
X69352Y65963D01*
X69434Y65922D01*
X69510Y65876D01*
X69586Y65823D01*
X69592Y65817D01*
X69603Y65811D01*
X69621Y65794D01*
X69650Y65770D01*
X69679Y65741D01*
X69720Y65700D01*
X69761Y65659D01*
X69802Y65612D01*
X69849Y65554D01*
X69890Y65495D01*
X69937Y65425D01*
X69984Y65349D01*
X70025Y65273D01*
X70065Y65185D01*
X70136Y64998D01*
X69633Y64881D01*
Y64887D01*
X69627Y64899D01*
X69621Y64922D01*
X69609Y64951D01*
X69592Y64986D01*
X69574Y65027D01*
X69533Y65115D01*
X69481Y65214D01*
X69410Y65320D01*
X69334Y65413D01*
X69241Y65495D01*
X69229Y65501D01*
X69194Y65525D01*
X69141Y65554D01*
X69065Y65595D01*
X68977Y65630D01*
X68866Y65659D01*
X68743Y65682D01*
X68603Y65688D01*
X68562D01*
X68533Y65682D01*
X68492D01*
X68451Y65677D01*
X68346Y65659D01*
X68229Y65636D01*
X68106Y65595D01*
X67983Y65542D01*
X67866Y65472D01*
X67860D01*
X67854Y65460D01*
X67819Y65431D01*
X67766Y65384D01*
X67702Y65320D01*
X67638Y65238D01*
X67568Y65144D01*
X67503Y65027D01*
X67451Y64899D01*
Y64893D01*
X67445Y64881D01*
X67439Y64863D01*
X67433Y64834D01*
X67421Y64805D01*
X67415Y64764D01*
X67392Y64670D01*
X67369Y64559D01*
X67351Y64436D01*
X67339Y64302D01*
X67334Y64161D01*
Y64156D01*
Y64138D01*
Y64115D01*
Y64079D01*
X67339Y64039D01*
Y63986D01*
X67345Y63933D01*
X67351Y63875D01*
X67369Y63740D01*
X67392Y63594D01*
X67427Y63448D01*
X67474Y63307D01*
Y63301D01*
X67480Y63290D01*
X67492Y63272D01*
X67503Y63249D01*
X67532Y63179D01*
X67579Y63103D01*
X67644Y63009D01*
X67720Y62921D01*
X67807Y62833D01*
X67913Y62757D01*
X67919D01*
X67924Y62752D01*
X67942Y62740D01*
X67965Y62728D01*
X68030Y62705D01*
X68112Y62670D01*
X68205Y62640D01*
X68316Y62611D01*
X68439Y62588D01*
X68568Y62582D01*
X68609D01*
X68638Y62588D01*
X68673D01*
X68720Y62594D01*
X68819Y62611D01*
X68931Y62640D01*
X69054Y62687D01*
X69170Y62746D01*
X69288Y62828D01*
X69293Y62833D01*
X69299Y62839D01*
X69334Y62874D01*
X69387Y62933D01*
X69451Y63009D01*
X69516Y63114D01*
X69586Y63237D01*
X69644Y63389D01*
X69691Y63559D01*
X70200Y63430D01*
Y63424D01*
X70194Y63401D01*
X70183Y63372D01*
X70171Y63325D01*
X70147Y63278D01*
X70124Y63214D01*
X70101Y63149D01*
X70065Y63079D01*
X69990Y62921D01*
X69884Y62763D01*
X69767Y62611D01*
X69697Y62541D01*
X69621Y62477D01*
X69615Y62471D01*
X69603Y62465D01*
X69580Y62447D01*
X69545Y62424D01*
X69504Y62401D01*
X69457Y62371D01*
X69405Y62342D01*
X69340Y62313D01*
X69270Y62284D01*
X69194Y62254D01*
X69106Y62225D01*
X69018Y62202D01*
X68825Y62161D01*
X68720Y62155D01*
X68609Y62149D01*
X68550D01*
X68504Y62155D01*
X68451D01*
X68392Y62161D01*
X68322Y62172D01*
X68252Y62178D01*
X68088Y62213D01*
X67919Y62254D01*
X67755Y62319D01*
X67673Y62354D01*
X67597Y62401D01*
X67591Y62406D01*
X67579Y62412D01*
X67562Y62430D01*
X67532Y62447D01*
X67462Y62506D01*
X67380Y62588D01*
X67281Y62687D01*
X67187Y62816D01*
X67088Y62962D01*
X67006Y63132D01*
Y63138D01*
X67000Y63155D01*
X66988Y63179D01*
X66977Y63214D01*
X66959Y63261D01*
X66942Y63313D01*
X66924Y63372D01*
X66906Y63442D01*
X66889Y63512D01*
X66871Y63594D01*
X66836Y63770D01*
X66813Y63957D01*
X66807Y64161D01*
Y64167D01*
Y64191D01*
Y64220D01*
X66813Y64261D01*
Y64314D01*
X66819Y64378D01*
X66825Y64442D01*
X66836Y64518D01*
X66866Y64682D01*
X66901Y64858D01*
X66959Y65039D01*
X67035Y65209D01*
Y65214D01*
X67047Y65226D01*
X67059Y65250D01*
X67076Y65285D01*
X67100Y65320D01*
X67129Y65361D01*
X67205Y65460D01*
X67293Y65571D01*
X67404Y65682D01*
X67538Y65794D01*
X67685Y65887D01*
X67690D01*
X67702Y65899D01*
X67725Y65911D01*
X67761Y65922D01*
X67796Y65940D01*
X67843Y65963D01*
X67901Y65981D01*
X67959Y66004D01*
X68024Y66028D01*
X68094Y66045D01*
X68252Y66086D01*
X68427Y66110D01*
X68615Y66121D01*
X68673D01*
X68714Y66115D01*
D02*
G37*
G36*
X128249Y56311D02*
X128296Y56305D01*
X128355Y56299D01*
X128419Y56293D01*
X128489Y56282D01*
X128641Y56247D01*
X128805Y56194D01*
X128887Y56159D01*
X128969Y56118D01*
X129045Y56071D01*
X129121Y56018D01*
X129127Y56013D01*
X129139Y56007D01*
X129156Y55989D01*
X129185Y55966D01*
X129215Y55936D01*
X129255Y55896D01*
X129297Y55855D01*
X129337Y55808D01*
X129384Y55749D01*
X129425Y55691D01*
X129472Y55621D01*
X129519Y55545D01*
X129560Y55468D01*
X129601Y55381D01*
X129671Y55194D01*
X129168Y55077D01*
Y55082D01*
X129162Y55094D01*
X129156Y55117D01*
X129144Y55147D01*
X129127Y55182D01*
X129109Y55223D01*
X129068Y55311D01*
X129016Y55410D01*
X128946Y55515D01*
X128869Y55609D01*
X128776Y55691D01*
X128764Y55697D01*
X128729Y55720D01*
X128676Y55749D01*
X128600Y55790D01*
X128513Y55825D01*
X128401Y55855D01*
X128279Y55878D01*
X128138Y55884D01*
X128097D01*
X128068Y55878D01*
X128027D01*
X127986Y55872D01*
X127881Y55855D01*
X127764Y55831D01*
X127641Y55790D01*
X127518Y55738D01*
X127401Y55667D01*
X127395D01*
X127389Y55656D01*
X127354Y55626D01*
X127302Y55580D01*
X127237Y55515D01*
X127173Y55433D01*
X127103Y55340D01*
X127038Y55223D01*
X126986Y55094D01*
Y55088D01*
X126980Y55077D01*
X126974Y55059D01*
X126968Y55030D01*
X126956Y55001D01*
X126951Y54960D01*
X126927Y54866D01*
X126904Y54755D01*
X126886Y54632D01*
X126875Y54497D01*
X126869Y54357D01*
Y54351D01*
Y54334D01*
Y54310D01*
Y54275D01*
X126875Y54234D01*
Y54181D01*
X126880Y54129D01*
X126886Y54070D01*
X126904Y53936D01*
X126927Y53790D01*
X126962Y53643D01*
X127009Y53503D01*
Y53497D01*
X127015Y53485D01*
X127027Y53468D01*
X127038Y53444D01*
X127068Y53374D01*
X127114Y53298D01*
X127179Y53205D01*
X127255Y53117D01*
X127343Y53029D01*
X127448Y52953D01*
X127454D01*
X127460Y52947D01*
X127477Y52935D01*
X127500Y52924D01*
X127565Y52900D01*
X127647Y52865D01*
X127740Y52836D01*
X127851Y52807D01*
X127974Y52783D01*
X128103Y52777D01*
X128144D01*
X128173Y52783D01*
X128208D01*
X128255Y52789D01*
X128355Y52807D01*
X128466Y52836D01*
X128589Y52883D01*
X128706Y52941D01*
X128823Y53023D01*
X128829Y53029D01*
X128834Y53035D01*
X128869Y53070D01*
X128922Y53128D01*
X128986Y53205D01*
X129051Y53310D01*
X129121Y53433D01*
X129180Y53585D01*
X129226Y53755D01*
X129735Y53626D01*
Y53620D01*
X129729Y53597D01*
X129718Y53567D01*
X129706Y53521D01*
X129683Y53474D01*
X129659Y53409D01*
X129636Y53345D01*
X129601Y53275D01*
X129525Y53117D01*
X129419Y52959D01*
X129302Y52807D01*
X129232Y52737D01*
X129156Y52672D01*
X129150Y52666D01*
X129139Y52661D01*
X129115Y52643D01*
X129080Y52620D01*
X129039Y52596D01*
X128992Y52567D01*
X128940Y52538D01*
X128875Y52508D01*
X128805Y52479D01*
X128729Y52450D01*
X128641Y52421D01*
X128553Y52397D01*
X128360Y52356D01*
X128255Y52350D01*
X128144Y52345D01*
X128085D01*
X128039Y52350D01*
X127986D01*
X127928Y52356D01*
X127857Y52368D01*
X127787Y52374D01*
X127623Y52409D01*
X127454Y52450D01*
X127290Y52514D01*
X127208Y52549D01*
X127132Y52596D01*
X127126Y52602D01*
X127114Y52608D01*
X127097Y52625D01*
X127068Y52643D01*
X126997Y52701D01*
X126916Y52783D01*
X126816Y52883D01*
X126723Y53012D01*
X126623Y53158D01*
X126541Y53327D01*
Y53333D01*
X126535Y53351D01*
X126524Y53374D01*
X126512Y53409D01*
X126494Y53456D01*
X126477Y53509D01*
X126459Y53567D01*
X126442Y53637D01*
X126424Y53708D01*
X126407Y53790D01*
X126372Y53965D01*
X126348Y54152D01*
X126342Y54357D01*
Y54363D01*
Y54386D01*
Y54416D01*
X126348Y54457D01*
Y54509D01*
X126354Y54574D01*
X126360Y54638D01*
X126372Y54714D01*
X126401Y54878D01*
X126436Y55053D01*
X126494Y55234D01*
X126570Y55404D01*
Y55410D01*
X126582Y55422D01*
X126594Y55445D01*
X126611Y55480D01*
X126635Y55515D01*
X126664Y55556D01*
X126740Y55656D01*
X126828Y55767D01*
X126939Y55878D01*
X127074Y55989D01*
X127220Y56083D01*
X127226D01*
X127237Y56094D01*
X127261Y56106D01*
X127296Y56118D01*
X127331Y56135D01*
X127378Y56159D01*
X127436Y56176D01*
X127495Y56200D01*
X127559Y56223D01*
X127629Y56241D01*
X127787Y56282D01*
X127963Y56305D01*
X128150Y56317D01*
X128208D01*
X128249Y56311D01*
D02*
G37*
G36*
X132531Y55743D02*
X130999D01*
X130788Y54708D01*
X130794Y54714D01*
X130806Y54720D01*
X130823Y54731D01*
X130847Y54749D01*
X130882Y54766D01*
X130917Y54784D01*
X131010Y54831D01*
X131116Y54878D01*
X131239Y54913D01*
X131373Y54942D01*
X131514Y54954D01*
X131560D01*
X131596Y54948D01*
X131642Y54942D01*
X131689Y54936D01*
X131748Y54924D01*
X131806Y54913D01*
X131941Y54866D01*
X132011Y54843D01*
X132081Y54808D01*
X132157Y54766D01*
X132227Y54720D01*
X132298Y54667D01*
X132362Y54603D01*
X132368Y54597D01*
X132379Y54585D01*
X132397Y54568D01*
X132414Y54538D01*
X132444Y54503D01*
X132473Y54462D01*
X132502Y54416D01*
X132537Y54363D01*
X132572Y54299D01*
X132602Y54234D01*
X132631Y54158D01*
X132660Y54082D01*
X132678Y53994D01*
X132695Y53907D01*
X132707Y53807D01*
X132713Y53708D01*
Y53702D01*
Y53684D01*
Y53655D01*
X132707Y53620D01*
X132701Y53573D01*
X132695Y53521D01*
X132689Y53462D01*
X132678Y53398D01*
X132637Y53257D01*
X132584Y53111D01*
X132549Y53029D01*
X132508Y52953D01*
X132461Y52877D01*
X132409Y52807D01*
X132403Y52801D01*
X132391Y52789D01*
X132368Y52766D01*
X132339Y52737D01*
X132303Y52701D01*
X132257Y52661D01*
X132204Y52620D01*
X132140Y52579D01*
X132075Y52532D01*
X131999Y52491D01*
X131911Y52450D01*
X131824Y52415D01*
X131724Y52386D01*
X131625Y52362D01*
X131514Y52350D01*
X131397Y52345D01*
X131344D01*
X131309Y52350D01*
X131268Y52356D01*
X131215Y52362D01*
X131157Y52368D01*
X131092Y52380D01*
X130958Y52415D01*
X130817Y52468D01*
X130747Y52503D01*
X130677Y52543D01*
X130607Y52584D01*
X130543Y52637D01*
X130537Y52643D01*
X130531Y52649D01*
X130513Y52666D01*
X130490Y52690D01*
X130466Y52719D01*
X130437Y52754D01*
X130408Y52795D01*
X130373Y52842D01*
X130308Y52953D01*
X130244Y53088D01*
X130197Y53240D01*
X130180Y53327D01*
X130168Y53415D01*
X130665Y53450D01*
Y53444D01*
Y53433D01*
X130671Y53415D01*
X130677Y53392D01*
X130695Y53327D01*
X130718Y53246D01*
X130747Y53158D01*
X130794Y53070D01*
X130847Y52982D01*
X130917Y52906D01*
X130929Y52900D01*
X130952Y52877D01*
X130993Y52854D01*
X131052Y52819D01*
X131122Y52789D01*
X131204Y52760D01*
X131297Y52737D01*
X131397Y52731D01*
X131432D01*
X131455Y52737D01*
X131519Y52742D01*
X131601Y52760D01*
X131689Y52795D01*
X131789Y52836D01*
X131882Y52900D01*
X131929Y52935D01*
X131976Y52982D01*
Y52988D01*
X131988Y52994D01*
X132011Y53029D01*
X132052Y53088D01*
X132093Y53164D01*
X132134Y53263D01*
X132175Y53380D01*
X132198Y53515D01*
X132210Y53667D01*
Y53673D01*
Y53684D01*
Y53708D01*
X132204Y53731D01*
Y53766D01*
X132198Y53807D01*
X132181Y53901D01*
X132157Y54000D01*
X132116Y54106D01*
X132058Y54211D01*
X131982Y54304D01*
X131970Y54316D01*
X131941Y54339D01*
X131894Y54380D01*
X131824Y54421D01*
X131742Y54462D01*
X131637Y54503D01*
X131519Y54527D01*
X131391Y54538D01*
X131350D01*
X131309Y54532D01*
X131250Y54527D01*
X131186Y54509D01*
X131116Y54492D01*
X131046Y54462D01*
X130975Y54427D01*
X130970Y54421D01*
X130946Y54410D01*
X130911Y54386D01*
X130870Y54357D01*
X130829Y54316D01*
X130782Y54269D01*
X130736Y54217D01*
X130695Y54158D01*
X130250Y54223D01*
X130624Y56194D01*
X132531D01*
Y55743D01*
D02*
G37*
G36*
X55829Y108673D02*
X55876Y108667D01*
X55934Y108661D01*
X55998Y108656D01*
X56069Y108644D01*
X56221Y108609D01*
X56385Y108556D01*
X56467Y108521D01*
X56548Y108480D01*
X56625Y108433D01*
X56700Y108381D01*
X56706Y108375D01*
X56718Y108369D01*
X56736Y108351D01*
X56765Y108328D01*
X56794Y108299D01*
X56835Y108258D01*
X56876Y108217D01*
X56917Y108170D01*
X56964Y108112D01*
X57005Y108053D01*
X57051Y107983D01*
X57098Y107907D01*
X57139Y107831D01*
X57180Y107743D01*
X57250Y107556D01*
X56747Y107439D01*
Y107445D01*
X56741Y107456D01*
X56736Y107480D01*
X56724Y107509D01*
X56706Y107544D01*
X56689Y107585D01*
X56648Y107673D01*
X56595Y107772D01*
X56525Y107878D01*
X56449Y107971D01*
X56355Y108053D01*
X56344Y108059D01*
X56309Y108082D01*
X56256Y108112D01*
X56180Y108152D01*
X56092Y108188D01*
X55981Y108217D01*
X55858Y108240D01*
X55718Y108246D01*
X55677D01*
X55647Y108240D01*
X55607D01*
X55566Y108234D01*
X55460Y108217D01*
X55343Y108193D01*
X55221Y108152D01*
X55098Y108100D01*
X54981Y108030D01*
X54975D01*
X54969Y108018D01*
X54934Y107989D01*
X54881Y107942D01*
X54817Y107878D01*
X54752Y107796D01*
X54682Y107702D01*
X54618Y107585D01*
X54565Y107456D01*
Y107450D01*
X54559Y107439D01*
X54554Y107421D01*
X54548Y107392D01*
X54536Y107363D01*
X54530Y107322D01*
X54507Y107228D01*
X54483Y107117D01*
X54466Y106994D01*
X54454Y106860D01*
X54448Y106719D01*
Y106713D01*
Y106696D01*
Y106672D01*
Y106637D01*
X54454Y106596D01*
Y106544D01*
X54460Y106491D01*
X54466Y106433D01*
X54483Y106298D01*
X54507Y106152D01*
X54542Y106006D01*
X54589Y105865D01*
Y105859D01*
X54594Y105848D01*
X54606Y105830D01*
X54618Y105807D01*
X54647Y105736D01*
X54694Y105660D01*
X54758Y105567D01*
X54834Y105479D01*
X54922Y105391D01*
X55027Y105315D01*
X55033D01*
X55039Y105309D01*
X55057Y105298D01*
X55080Y105286D01*
X55144Y105263D01*
X55226Y105227D01*
X55320Y105198D01*
X55431Y105169D01*
X55554Y105146D01*
X55683Y105140D01*
X55724D01*
X55753Y105146D01*
X55788D01*
X55835Y105151D01*
X55934Y105169D01*
X56045Y105198D01*
X56168Y105245D01*
X56285Y105304D01*
X56402Y105385D01*
X56408Y105391D01*
X56414Y105397D01*
X56449Y105432D01*
X56502Y105491D01*
X56566Y105567D01*
X56630Y105672D01*
X56700Y105795D01*
X56759Y105947D01*
X56806Y106117D01*
X57315Y105988D01*
Y105982D01*
X57309Y105959D01*
X57297Y105930D01*
X57285Y105883D01*
X57262Y105836D01*
X57239Y105772D01*
X57215Y105707D01*
X57180Y105637D01*
X57104Y105479D01*
X56999Y105321D01*
X56882Y105169D01*
X56812Y105099D01*
X56736Y105034D01*
X56730Y105029D01*
X56718Y105023D01*
X56695Y105005D01*
X56660Y104982D01*
X56619Y104958D01*
X56572Y104929D01*
X56519Y104900D01*
X56455Y104871D01*
X56385Y104841D01*
X56309Y104812D01*
X56221Y104783D01*
X56133Y104760D01*
X55940Y104718D01*
X55835Y104713D01*
X55724Y104707D01*
X55665D01*
X55618Y104713D01*
X55566D01*
X55507Y104718D01*
X55437Y104730D01*
X55367Y104736D01*
X55203Y104771D01*
X55033Y104812D01*
X54870Y104876D01*
X54788Y104912D01*
X54712Y104958D01*
X54706Y104964D01*
X54694Y104970D01*
X54676Y104988D01*
X54647Y105005D01*
X54577Y105064D01*
X54495Y105146D01*
X54396Y105245D01*
X54302Y105374D01*
X54203Y105520D01*
X54121Y105690D01*
Y105695D01*
X54115Y105713D01*
X54103Y105736D01*
X54091Y105772D01*
X54074Y105818D01*
X54056Y105871D01*
X54039Y105930D01*
X54021Y106000D01*
X54004Y106070D01*
X53986Y106152D01*
X53951Y106327D01*
X53928Y106515D01*
X53922Y106719D01*
Y106725D01*
Y106748D01*
Y106778D01*
X53928Y106819D01*
Y106871D01*
X53934Y106936D01*
X53939Y107000D01*
X53951Y107076D01*
X53980Y107240D01*
X54015Y107415D01*
X54074Y107597D01*
X54150Y107766D01*
Y107772D01*
X54162Y107784D01*
X54173Y107807D01*
X54191Y107842D01*
X54214Y107878D01*
X54243Y107919D01*
X54320Y108018D01*
X54407Y108129D01*
X54519Y108240D01*
X54653Y108351D01*
X54799Y108445D01*
X54805D01*
X54817Y108457D01*
X54840Y108468D01*
X54875Y108480D01*
X54910Y108498D01*
X54957Y108521D01*
X55016Y108539D01*
X55074Y108562D01*
X55139Y108585D01*
X55209Y108603D01*
X55367Y108644D01*
X55542Y108667D01*
X55729Y108679D01*
X55788D01*
X55829Y108673D01*
D02*
G37*
G36*
X59731Y106123D02*
X60251D01*
Y105690D01*
X59731D01*
Y104771D01*
X59257D01*
Y105690D01*
X57590D01*
Y106123D01*
X59345Y108609D01*
X59731D01*
Y106123D01*
D02*
G37*
G36*
X55823Y153555D02*
X55870Y153549D01*
X55928Y153543D01*
X55993Y153537D01*
X56063Y153526D01*
X56215Y153491D01*
X56379Y153438D01*
X56461Y153403D01*
X56543Y153362D01*
X56619Y153315D01*
X56695Y153262D01*
X56700Y153257D01*
X56712Y153251D01*
X56730Y153233D01*
X56759Y153210D01*
X56788Y153181D01*
X56829Y153140D01*
X56870Y153099D01*
X56911Y153052D01*
X56958Y152993D01*
X56999Y152935D01*
X57046Y152865D01*
X57092Y152789D01*
X57133Y152713D01*
X57174Y152625D01*
X57245Y152438D01*
X56741Y152321D01*
Y152327D01*
X56736Y152338D01*
X56730Y152362D01*
X56718Y152391D01*
X56700Y152426D01*
X56683Y152467D01*
X56642Y152555D01*
X56589Y152654D01*
X56519Y152759D01*
X56443Y152853D01*
X56349Y152935D01*
X56338Y152941D01*
X56303Y152964D01*
X56250Y152993D01*
X56174Y153034D01*
X56086Y153069D01*
X55975Y153099D01*
X55852Y153122D01*
X55712Y153128D01*
X55671D01*
X55642Y153122D01*
X55601D01*
X55560Y153116D01*
X55454Y153099D01*
X55338Y153075D01*
X55215Y153034D01*
X55092Y152982D01*
X54975Y152911D01*
X54969D01*
X54963Y152900D01*
X54928Y152871D01*
X54875Y152824D01*
X54811Y152759D01*
X54747Y152678D01*
X54676Y152584D01*
X54612Y152467D01*
X54559Y152338D01*
Y152332D01*
X54554Y152321D01*
X54548Y152303D01*
X54542Y152274D01*
X54530Y152245D01*
X54524Y152204D01*
X54501Y152110D01*
X54478Y151999D01*
X54460Y151876D01*
X54448Y151742D01*
X54442Y151601D01*
Y151595D01*
Y151578D01*
Y151554D01*
Y151519D01*
X54448Y151478D01*
Y151426D01*
X54454Y151373D01*
X54460Y151314D01*
X54478Y151180D01*
X54501Y151034D01*
X54536Y150887D01*
X54583Y150747D01*
Y150741D01*
X54589Y150730D01*
X54600Y150712D01*
X54612Y150689D01*
X54641Y150618D01*
X54688Y150542D01*
X54752Y150449D01*
X54829Y150361D01*
X54916Y150273D01*
X55022Y150197D01*
X55027D01*
X55033Y150191D01*
X55051Y150180D01*
X55074Y150168D01*
X55139Y150145D01*
X55221Y150109D01*
X55314Y150080D01*
X55425Y150051D01*
X55548Y150028D01*
X55677Y150022D01*
X55718D01*
X55747Y150028D01*
X55782D01*
X55829Y150033D01*
X55928Y150051D01*
X56040Y150080D01*
X56162Y150127D01*
X56279Y150185D01*
X56396Y150267D01*
X56402Y150273D01*
X56408Y150279D01*
X56443Y150314D01*
X56496Y150373D01*
X56560Y150449D01*
X56625Y150554D01*
X56695Y150677D01*
X56753Y150829D01*
X56800Y150999D01*
X57309Y150870D01*
Y150864D01*
X57303Y150841D01*
X57291Y150811D01*
X57280Y150765D01*
X57256Y150718D01*
X57233Y150653D01*
X57209Y150589D01*
X57174Y150519D01*
X57098Y150361D01*
X56993Y150203D01*
X56876Y150051D01*
X56806Y149981D01*
X56730Y149916D01*
X56724Y149910D01*
X56712Y149905D01*
X56689Y149887D01*
X56654Y149864D01*
X56613Y149840D01*
X56566Y149811D01*
X56513Y149782D01*
X56449Y149752D01*
X56379Y149723D01*
X56303Y149694D01*
X56215Y149665D01*
X56127Y149641D01*
X55934Y149600D01*
X55829Y149595D01*
X55718Y149589D01*
X55659D01*
X55612Y149595D01*
X55560D01*
X55501Y149600D01*
X55431Y149612D01*
X55361Y149618D01*
X55197Y149653D01*
X55027Y149694D01*
X54864Y149758D01*
X54782Y149794D01*
X54706Y149840D01*
X54700Y149846D01*
X54688Y149852D01*
X54671Y149870D01*
X54641Y149887D01*
X54571Y149946D01*
X54489Y150028D01*
X54390Y150127D01*
X54296Y150256D01*
X54197Y150402D01*
X54115Y150572D01*
Y150577D01*
X54109Y150595D01*
X54097Y150618D01*
X54086Y150653D01*
X54068Y150700D01*
X54050Y150753D01*
X54033Y150811D01*
X54015Y150882D01*
X53998Y150952D01*
X53980Y151034D01*
X53945Y151209D01*
X53922Y151396D01*
X53916Y151601D01*
Y151607D01*
Y151630D01*
Y151660D01*
X53922Y151701D01*
Y151753D01*
X53928Y151818D01*
X53934Y151882D01*
X53945Y151958D01*
X53974Y152122D01*
X54009Y152297D01*
X54068Y152479D01*
X54144Y152648D01*
Y152654D01*
X54156Y152666D01*
X54167Y152689D01*
X54185Y152724D01*
X54208Y152759D01*
X54238Y152800D01*
X54314Y152900D01*
X54401Y153011D01*
X54513Y153122D01*
X54647Y153233D01*
X54793Y153327D01*
X54799D01*
X54811Y153339D01*
X54834Y153350D01*
X54870Y153362D01*
X54905Y153379D01*
X54951Y153403D01*
X55010Y153420D01*
X55068Y153444D01*
X55133Y153467D01*
X55203Y153485D01*
X55361Y153526D01*
X55536Y153549D01*
X55724Y153561D01*
X55782D01*
X55823Y153555D01*
D02*
G37*
G36*
X59058Y153508D02*
X59134Y153497D01*
X59222Y153479D01*
X59321Y153456D01*
X59421Y153420D01*
X59520Y153374D01*
X59526D01*
X59532Y153368D01*
X59567Y153350D01*
X59614Y153321D01*
X59672Y153280D01*
X59737Y153227D01*
X59807Y153163D01*
X59871Y153087D01*
X59930Y153005D01*
X59936Y152993D01*
X59953Y152964D01*
X59977Y152917D01*
X60000Y152859D01*
X60023Y152783D01*
X60047Y152701D01*
X60064Y152613D01*
X60070Y152514D01*
Y152502D01*
Y152473D01*
X60064Y152426D01*
X60053Y152367D01*
X60035Y152297D01*
X60012Y152221D01*
X59982Y152139D01*
X59936Y152063D01*
X59930Y152052D01*
X59912Y152028D01*
X59877Y151993D01*
X59836Y151946D01*
X59778Y151894D01*
X59713Y151841D01*
X59631Y151783D01*
X59538Y151736D01*
X59544D01*
X59555Y151730D01*
X59573D01*
X59596Y151718D01*
X59655Y151701D01*
X59731Y151665D01*
X59813Y151625D01*
X59900Y151566D01*
X59988Y151496D01*
X60064Y151408D01*
X60070Y151396D01*
X60093Y151361D01*
X60123Y151309D01*
X60164Y151238D01*
X60199Y151151D01*
X60228Y151045D01*
X60251Y150923D01*
X60257Y150788D01*
Y150782D01*
Y150765D01*
Y150741D01*
X60251Y150706D01*
X60246Y150659D01*
X60240Y150612D01*
X60228Y150554D01*
X60211Y150496D01*
X60170Y150361D01*
X60140Y150285D01*
X60099Y150215D01*
X60058Y150145D01*
X60012Y150074D01*
X59953Y150004D01*
X59889Y149934D01*
X59883Y149928D01*
X59871Y149916D01*
X59854Y149905D01*
X59824Y149881D01*
X59789Y149852D01*
X59742Y149823D01*
X59690Y149794D01*
X59637Y149764D01*
X59573Y149729D01*
X59503Y149700D01*
X59427Y149671D01*
X59345Y149641D01*
X59257Y149618D01*
X59163Y149606D01*
X59064Y149595D01*
X58965Y149589D01*
X58918D01*
X58883Y149595D01*
X58836Y149600D01*
X58789Y149606D01*
X58731Y149612D01*
X58672Y149624D01*
X58537Y149659D01*
X58397Y149717D01*
X58327Y149747D01*
X58262Y149788D01*
X58192Y149834D01*
X58128Y149887D01*
X58122Y149893D01*
X58116Y149899D01*
X58099Y149916D01*
X58075Y149940D01*
X58052Y149975D01*
X58023Y150010D01*
X57987Y150051D01*
X57958Y150098D01*
X57888Y150215D01*
X57830Y150349D01*
X57777Y150501D01*
X57759Y150583D01*
X57748Y150671D01*
X58222Y150735D01*
Y150730D01*
X58227Y150718D01*
Y150694D01*
X58239Y150671D01*
X58257Y150601D01*
X58286Y150513D01*
X58321Y150419D01*
X58368Y150320D01*
X58426Y150232D01*
X58491Y150156D01*
X58502Y150150D01*
X58526Y150127D01*
X58567Y150103D01*
X58625Y150068D01*
X58689Y150039D01*
X58771Y150010D01*
X58865Y149987D01*
X58965Y149981D01*
X59000D01*
X59023Y149987D01*
X59082Y149992D01*
X59158Y150010D01*
X59251Y150039D01*
X59345Y150074D01*
X59438Y150133D01*
X59526Y150209D01*
X59538Y150221D01*
X59561Y150250D01*
X59596Y150297D01*
X59643Y150367D01*
X59684Y150449D01*
X59719Y150548D01*
X59742Y150659D01*
X59754Y150782D01*
Y150788D01*
Y150794D01*
Y150811D01*
X59748Y150835D01*
X59742Y150893D01*
X59725Y150969D01*
X59702Y151051D01*
X59661Y151145D01*
X59608Y151233D01*
X59538Y151314D01*
X59526Y151326D01*
X59503Y151350D01*
X59456Y151379D01*
X59391Y151420D01*
X59316Y151461D01*
X59222Y151490D01*
X59122Y151513D01*
X59005Y151525D01*
X58953D01*
X58912Y151519D01*
X58865Y151513D01*
X58807Y151507D01*
X58742Y151496D01*
X58672Y151478D01*
X58725Y151894D01*
X58754D01*
X58777Y151888D01*
X58853D01*
X58906Y151894D01*
X58982Y151905D01*
X59064Y151923D01*
X59152Y151952D01*
X59245Y151987D01*
X59339Y152040D01*
X59351Y152046D01*
X59380Y152069D01*
X59415Y152110D01*
X59462Y152163D01*
X59509Y152227D01*
X59544Y152309D01*
X59573Y152408D01*
X59585Y152525D01*
Y152531D01*
Y152537D01*
Y152566D01*
X59573Y152613D01*
X59561Y152678D01*
X59544Y152742D01*
X59509Y152812D01*
X59468Y152888D01*
X59409Y152953D01*
X59403Y152958D01*
X59380Y152982D01*
X59339Y153011D01*
X59286Y153040D01*
X59222Y153075D01*
X59146Y153099D01*
X59058Y153122D01*
X58959Y153128D01*
X58912D01*
X58859Y153116D01*
X58801Y153105D01*
X58725Y153087D01*
X58649Y153052D01*
X58573Y153011D01*
X58496Y152953D01*
X58491Y152947D01*
X58467Y152923D01*
X58438Y152882D01*
X58403Y152824D01*
X58362Y152754D01*
X58327Y152666D01*
X58292Y152560D01*
X58268Y152438D01*
X57794Y152520D01*
Y152525D01*
X57800Y152543D01*
X57806Y152566D01*
X57812Y152596D01*
X57824Y152637D01*
X57835Y152683D01*
X57876Y152789D01*
X57923Y152906D01*
X57993Y153029D01*
X58075Y153146D01*
X58181Y153251D01*
X58186Y153257D01*
X58192Y153262D01*
X58210Y153274D01*
X58239Y153292D01*
X58268Y153309D01*
X58303Y153333D01*
X58391Y153385D01*
X58502Y153432D01*
X58637Y153473D01*
X58783Y153502D01*
X58865Y153514D01*
X59000D01*
X59058Y153508D01*
D02*
G37*
G36*
X107182Y149527D02*
X107229Y149521D01*
X107287Y149515D01*
X107352Y149510D01*
X107422Y149498D01*
X107574Y149463D01*
X107738Y149410D01*
X107820Y149375D01*
X107902Y149334D01*
X107977Y149287D01*
X108054Y149235D01*
X108059Y149229D01*
X108071Y149223D01*
X108089Y149205D01*
X108118Y149182D01*
X108147Y149153D01*
X108188Y149112D01*
X108229Y149071D01*
X108270Y149024D01*
X108317Y148966D01*
X108358Y148907D01*
X108405Y148837D01*
X108451Y148761D01*
X108492Y148685D01*
X108533Y148597D01*
X108604Y148410D01*
X108100Y148293D01*
Y148299D01*
X108095Y148310D01*
X108089Y148334D01*
X108077Y148363D01*
X108059Y148398D01*
X108042Y148439D01*
X108001Y148527D01*
X107948Y148626D01*
X107878Y148732D01*
X107802Y148825D01*
X107708Y148907D01*
X107697Y148913D01*
X107662Y148936D01*
X107609Y148966D01*
X107533Y149006D01*
X107445Y149042D01*
X107334Y149071D01*
X107211Y149094D01*
X107071Y149100D01*
X107030D01*
X107001Y149094D01*
X106960D01*
X106919Y149088D01*
X106813Y149071D01*
X106696Y149048D01*
X106573Y149006D01*
X106451Y148954D01*
X106334Y148884D01*
X106328D01*
X106322Y148872D01*
X106287Y148843D01*
X106234Y148796D01*
X106170Y148732D01*
X106105Y148650D01*
X106035Y148556D01*
X105971Y148439D01*
X105918Y148310D01*
Y148304D01*
X105912Y148293D01*
X105907Y148275D01*
X105901Y148246D01*
X105889Y148217D01*
X105883Y148176D01*
X105860Y148082D01*
X105836Y147971D01*
X105819Y147848D01*
X105807Y147714D01*
X105801Y147573D01*
Y147567D01*
Y147550D01*
Y147527D01*
Y147491D01*
X105807Y147450D01*
Y147398D01*
X105813Y147345D01*
X105819Y147287D01*
X105836Y147152D01*
X105860Y147006D01*
X105895Y146860D01*
X105942Y146719D01*
Y146713D01*
X105948Y146702D01*
X105959Y146684D01*
X105971Y146661D01*
X106000Y146590D01*
X106047Y146514D01*
X106111Y146421D01*
X106187Y146333D01*
X106275Y146245D01*
X106380Y146169D01*
X106386D01*
X106392Y146163D01*
X106410Y146152D01*
X106433Y146140D01*
X106498Y146117D01*
X106579Y146081D01*
X106673Y146052D01*
X106784Y146023D01*
X106907Y146000D01*
X107036Y145994D01*
X107077D01*
X107106Y146000D01*
X107141D01*
X107188Y146005D01*
X107287Y146023D01*
X107398Y146052D01*
X107521Y146099D01*
X107638Y146158D01*
X107755Y146239D01*
X107761Y146245D01*
X107767Y146251D01*
X107802Y146286D01*
X107855Y146345D01*
X107919Y146421D01*
X107983Y146526D01*
X108054Y146649D01*
X108112Y146801D01*
X108159Y146971D01*
X108668Y146842D01*
Y146836D01*
X108662Y146813D01*
X108650Y146783D01*
X108639Y146737D01*
X108615Y146690D01*
X108592Y146626D01*
X108568Y146561D01*
X108533Y146491D01*
X108457Y146333D01*
X108352Y146175D01*
X108235Y146023D01*
X108165Y145953D01*
X108089Y145888D01*
X108083Y145883D01*
X108071Y145877D01*
X108048Y145859D01*
X108013Y145836D01*
X107972Y145812D01*
X107925Y145783D01*
X107872Y145754D01*
X107808Y145725D01*
X107738Y145695D01*
X107662Y145666D01*
X107574Y145637D01*
X107486Y145614D01*
X107293Y145573D01*
X107188Y145567D01*
X107077Y145561D01*
X107018D01*
X106971Y145567D01*
X106919D01*
X106860Y145573D01*
X106790Y145584D01*
X106720Y145590D01*
X106556Y145625D01*
X106386Y145666D01*
X106222Y145730D01*
X106141Y145766D01*
X106065Y145812D01*
X106059Y145818D01*
X106047Y145824D01*
X106029Y145842D01*
X106000Y145859D01*
X105930Y145918D01*
X105848Y146000D01*
X105749Y146099D01*
X105655Y146228D01*
X105556Y146374D01*
X105474Y146544D01*
Y146549D01*
X105468Y146567D01*
X105456Y146590D01*
X105445Y146626D01*
X105427Y146672D01*
X105409Y146725D01*
X105392Y146783D01*
X105374Y146854D01*
X105357Y146924D01*
X105339Y147006D01*
X105304Y147181D01*
X105281Y147369D01*
X105275Y147573D01*
Y147579D01*
Y147602D01*
Y147632D01*
X105281Y147673D01*
Y147725D01*
X105287Y147790D01*
X105292Y147854D01*
X105304Y147930D01*
X105333Y148094D01*
X105368Y148269D01*
X105427Y148451D01*
X105503Y148620D01*
Y148626D01*
X105515Y148638D01*
X105526Y148661D01*
X105544Y148696D01*
X105567Y148732D01*
X105597Y148773D01*
X105673Y148872D01*
X105760Y148983D01*
X105871Y149094D01*
X106006Y149205D01*
X106152Y149299D01*
X106158D01*
X106170Y149311D01*
X106193Y149322D01*
X106228Y149334D01*
X106263Y149352D01*
X106310Y149375D01*
X106369Y149393D01*
X106427Y149416D01*
X106492Y149439D01*
X106562Y149457D01*
X106720Y149498D01*
X106895Y149521D01*
X107082Y149533D01*
X107141D01*
X107182Y149527D01*
D02*
G37*
G36*
X110464Y149480D02*
X110511Y149475D01*
X110563Y149469D01*
X110622Y149463D01*
X110686Y149445D01*
X110827Y149410D01*
X110973Y149357D01*
X111049Y149322D01*
X111119Y149282D01*
X111183Y149229D01*
X111248Y149176D01*
X111253Y149170D01*
X111259Y149164D01*
X111277Y149147D01*
X111300Y149124D01*
X111324Y149088D01*
X111353Y149053D01*
X111411Y148966D01*
X111470Y148854D01*
X111523Y148726D01*
X111564Y148580D01*
X111569Y148498D01*
X111575Y148416D01*
Y148404D01*
Y148375D01*
X111569Y148328D01*
X111564Y148269D01*
X111552Y148199D01*
X111534Y148123D01*
X111511Y148041D01*
X111476Y147959D01*
X111470Y147948D01*
X111458Y147918D01*
X111435Y147878D01*
X111400Y147819D01*
X111359Y147749D01*
X111306Y147667D01*
X111236Y147585D01*
X111160Y147491D01*
X111148Y147480D01*
X111119Y147445D01*
X111066Y147392D01*
X111031Y147357D01*
X110990Y147316D01*
X110943Y147269D01*
X110885Y147216D01*
X110827Y147164D01*
X110762Y147099D01*
X110692Y147035D01*
X110610Y146965D01*
X110528Y146895D01*
X110434Y146813D01*
X110429Y146807D01*
X110417Y146795D01*
X110394Y146778D01*
X110364Y146754D01*
X110294Y146696D01*
X110206Y146620D01*
X110119Y146538D01*
X110025Y146456D01*
X109949Y146386D01*
X109920Y146356D01*
X109890Y146327D01*
X109885Y146321D01*
X109873Y146304D01*
X109850Y146280D01*
X109820Y146245D01*
X109756Y146169D01*
X109692Y146076D01*
X111581D01*
Y145625D01*
X109036D01*
Y145631D01*
Y145654D01*
Y145690D01*
X109042Y145730D01*
X109048Y145777D01*
X109054Y145830D01*
X109072Y145888D01*
X109089Y145947D01*
Y145953D01*
X109095Y145959D01*
X109107Y145994D01*
X109130Y146041D01*
X109165Y146111D01*
X109206Y146187D01*
X109265Y146275D01*
X109323Y146362D01*
X109399Y146456D01*
Y146462D01*
X109411Y146468D01*
X109440Y146503D01*
X109487Y146555D01*
X109557Y146626D01*
X109645Y146707D01*
X109750Y146807D01*
X109879Y146918D01*
X110019Y147041D01*
X110025Y147047D01*
X110048Y147064D01*
X110078Y147088D01*
X110119Y147129D01*
X110171Y147170D01*
X110230Y147222D01*
X110359Y147333D01*
X110499Y147468D01*
X110639Y147602D01*
X110710Y147667D01*
X110768Y147731D01*
X110821Y147796D01*
X110867Y147854D01*
Y147860D01*
X110879Y147866D01*
X110891Y147883D01*
X110903Y147907D01*
X110938Y147965D01*
X110979Y148041D01*
X111020Y148129D01*
X111055Y148223D01*
X111078Y148328D01*
X111090Y148427D01*
Y148433D01*
Y148439D01*
X111084Y148474D01*
X111078Y148527D01*
X111066Y148591D01*
X111037Y148667D01*
X111002Y148743D01*
X110955Y148825D01*
X110885Y148901D01*
X110873Y148907D01*
X110850Y148931D01*
X110803Y148960D01*
X110745Y149001D01*
X110669Y149036D01*
X110581Y149065D01*
X110476Y149088D01*
X110359Y149094D01*
X110323D01*
X110300Y149088D01*
X110241Y149083D01*
X110165Y149071D01*
X110078Y149042D01*
X109984Y149006D01*
X109896Y148954D01*
X109814Y148884D01*
X109809Y148872D01*
X109785Y148849D01*
X109750Y148802D01*
X109715Y148737D01*
X109674Y148655D01*
X109645Y148562D01*
X109621Y148451D01*
X109610Y148322D01*
X109124Y148375D01*
Y148381D01*
Y148398D01*
X109130Y148427D01*
X109136Y148462D01*
X109148Y148509D01*
X109153Y148562D01*
X109188Y148679D01*
X109235Y148813D01*
X109300Y148948D01*
X109387Y149083D01*
X109434Y149141D01*
X109493Y149200D01*
X109499Y149205D01*
X109510Y149211D01*
X109528Y149229D01*
X109551Y149246D01*
X109586Y149264D01*
X109627Y149293D01*
X109674Y149317D01*
X109727Y149346D01*
X109785Y149369D01*
X109850Y149399D01*
X109926Y149422D01*
X110002Y149439D01*
X110177Y149475D01*
X110271Y149480D01*
X110370Y149486D01*
X110423D01*
X110464Y149480D01*
D02*
G37*
G36*
X117382Y149527D02*
X117429Y149521D01*
X117487Y149515D01*
X117552Y149510D01*
X117622Y149498D01*
X117774Y149463D01*
X117938Y149410D01*
X118020Y149375D01*
X118102Y149334D01*
X118177Y149287D01*
X118254Y149235D01*
X118259Y149229D01*
X118271Y149223D01*
X118289Y149205D01*
X118318Y149182D01*
X118347Y149153D01*
X118388Y149112D01*
X118429Y149071D01*
X118470Y149024D01*
X118517Y148966D01*
X118558Y148907D01*
X118605Y148837D01*
X118651Y148761D01*
X118692Y148685D01*
X118733Y148597D01*
X118804Y148410D01*
X118300Y148293D01*
Y148299D01*
X118295Y148310D01*
X118289Y148334D01*
X118277Y148363D01*
X118259Y148398D01*
X118242Y148439D01*
X118201Y148527D01*
X118148Y148626D01*
X118078Y148732D01*
X118002Y148825D01*
X117908Y148907D01*
X117897Y148913D01*
X117862Y148936D01*
X117809Y148966D01*
X117733Y149006D01*
X117645Y149042D01*
X117534Y149071D01*
X117411Y149094D01*
X117271Y149100D01*
X117230D01*
X117201Y149094D01*
X117160D01*
X117119Y149088D01*
X117013Y149071D01*
X116896Y149048D01*
X116773Y149006D01*
X116651Y148954D01*
X116534Y148884D01*
X116528D01*
X116522Y148872D01*
X116487Y148843D01*
X116434Y148796D01*
X116370Y148732D01*
X116305Y148650D01*
X116235Y148556D01*
X116171Y148439D01*
X116118Y148310D01*
Y148304D01*
X116112Y148293D01*
X116107Y148275D01*
X116101Y148246D01*
X116089Y148217D01*
X116083Y148176D01*
X116060Y148082D01*
X116036Y147971D01*
X116019Y147848D01*
X116007Y147714D01*
X116001Y147573D01*
Y147567D01*
Y147550D01*
Y147527D01*
Y147491D01*
X116007Y147450D01*
Y147398D01*
X116013Y147345D01*
X116019Y147287D01*
X116036Y147152D01*
X116060Y147006D01*
X116095Y146860D01*
X116142Y146719D01*
Y146713D01*
X116148Y146702D01*
X116159Y146684D01*
X116171Y146661D01*
X116200Y146590D01*
X116247Y146514D01*
X116311Y146421D01*
X116387Y146333D01*
X116475Y146245D01*
X116580Y146169D01*
X116586D01*
X116592Y146163D01*
X116610Y146152D01*
X116633Y146140D01*
X116698Y146117D01*
X116779Y146081D01*
X116873Y146052D01*
X116984Y146023D01*
X117107Y146000D01*
X117236Y145994D01*
X117277D01*
X117306Y146000D01*
X117341D01*
X117388Y146005D01*
X117487Y146023D01*
X117598Y146052D01*
X117721Y146099D01*
X117838Y146158D01*
X117955Y146239D01*
X117961Y146245D01*
X117967Y146251D01*
X118002Y146286D01*
X118055Y146345D01*
X118119Y146421D01*
X118183Y146526D01*
X118254Y146649D01*
X118312Y146801D01*
X118359Y146971D01*
X118868Y146842D01*
Y146836D01*
X118862Y146813D01*
X118850Y146783D01*
X118839Y146737D01*
X118815Y146690D01*
X118792Y146626D01*
X118768Y146561D01*
X118733Y146491D01*
X118657Y146333D01*
X118552Y146175D01*
X118435Y146023D01*
X118365Y145953D01*
X118289Y145888D01*
X118283Y145883D01*
X118271Y145877D01*
X118248Y145859D01*
X118213Y145836D01*
X118172Y145812D01*
X118125Y145783D01*
X118072Y145754D01*
X118008Y145725D01*
X117938Y145695D01*
X117862Y145666D01*
X117774Y145637D01*
X117686Y145614D01*
X117493Y145573D01*
X117388Y145567D01*
X117277Y145561D01*
X117218D01*
X117171Y145567D01*
X117119D01*
X117060Y145573D01*
X116990Y145584D01*
X116920Y145590D01*
X116756Y145625D01*
X116586Y145666D01*
X116422Y145730D01*
X116341Y145766D01*
X116265Y145812D01*
X116259Y145818D01*
X116247Y145824D01*
X116229Y145842D01*
X116200Y145859D01*
X116130Y145918D01*
X116048Y146000D01*
X115949Y146099D01*
X115855Y146228D01*
X115756Y146374D01*
X115674Y146544D01*
Y146549D01*
X115668Y146567D01*
X115656Y146590D01*
X115645Y146626D01*
X115627Y146672D01*
X115609Y146725D01*
X115592Y146783D01*
X115574Y146854D01*
X115557Y146924D01*
X115539Y147006D01*
X115504Y147181D01*
X115481Y147369D01*
X115475Y147573D01*
Y147579D01*
Y147602D01*
Y147632D01*
X115481Y147673D01*
Y147725D01*
X115487Y147790D01*
X115492Y147854D01*
X115504Y147930D01*
X115533Y148094D01*
X115568Y148269D01*
X115627Y148451D01*
X115703Y148620D01*
Y148626D01*
X115715Y148638D01*
X115726Y148661D01*
X115744Y148696D01*
X115767Y148732D01*
X115797Y148773D01*
X115873Y148872D01*
X115960Y148983D01*
X116071Y149094D01*
X116206Y149205D01*
X116352Y149299D01*
X116358D01*
X116370Y149311D01*
X116393Y149322D01*
X116428Y149334D01*
X116463Y149352D01*
X116510Y149375D01*
X116569Y149393D01*
X116627Y149416D01*
X116692Y149439D01*
X116762Y149457D01*
X116920Y149498D01*
X117095Y149521D01*
X117282Y149533D01*
X117341D01*
X117382Y149527D01*
D02*
G37*
G36*
X121079Y145625D02*
X120605D01*
Y148632D01*
X120599Y148626D01*
X120576Y148603D01*
X120535Y148574D01*
X120482Y148533D01*
X120418Y148480D01*
X120342Y148427D01*
X120254Y148363D01*
X120155Y148304D01*
X120149D01*
X120143Y148299D01*
X120108Y148275D01*
X120055Y148246D01*
X119991Y148211D01*
X119915Y148170D01*
X119833Y148135D01*
X119745Y148094D01*
X119663Y148059D01*
Y148521D01*
X119669D01*
X119681Y148527D01*
X119704Y148538D01*
X119728Y148556D01*
X119763Y148574D01*
X119804Y148591D01*
X119897Y148644D01*
X120003Y148708D01*
X120120Y148784D01*
X120237Y148872D01*
X120348Y148966D01*
X120354Y148971D01*
X120360Y148977D01*
X120395Y149012D01*
X120447Y149065D01*
X120512Y149129D01*
X120582Y149211D01*
X120652Y149299D01*
X120716Y149393D01*
X120769Y149486D01*
X121079D01*
Y145625D01*
D02*
G37*
%LPC*%
G36*
X90352Y57817D02*
X89141D01*
Y56548D01*
X90287D01*
X90352Y56554D01*
X90428Y56559D01*
X90516Y56565D01*
X90609Y56577D01*
X90697Y56595D01*
X90773Y56618D01*
X90785Y56624D01*
X90808Y56630D01*
X90843Y56647D01*
X90884Y56671D01*
X90931Y56706D01*
X90983Y56747D01*
X91030Y56793D01*
X91071Y56846D01*
X91077Y56852D01*
X91089Y56875D01*
X91106Y56905D01*
X91124Y56951D01*
X91141Y56998D01*
X91159Y57057D01*
X91171Y57121D01*
X91176Y57191D01*
Y57197D01*
Y57203D01*
Y57238D01*
X91165Y57285D01*
X91153Y57349D01*
X91130Y57420D01*
X91095Y57495D01*
X91042Y57572D01*
X90978Y57642D01*
X90966Y57648D01*
X90943Y57671D01*
X90890Y57700D01*
X90825Y57730D01*
X90738Y57765D01*
X90632Y57788D01*
X90504Y57811D01*
X90352Y57817D01*
D02*
G37*
G36*
X93563Y57876D02*
X93516D01*
X93470Y57864D01*
X93405Y57852D01*
X93335Y57835D01*
X93259Y57800D01*
X93183Y57759D01*
X93113Y57700D01*
X93107Y57694D01*
X93084Y57671D01*
X93060Y57630D01*
X93025Y57583D01*
X92996Y57525D01*
X92967Y57449D01*
X92943Y57373D01*
X92937Y57285D01*
Y57273D01*
Y57238D01*
X92949Y57191D01*
X92961Y57127D01*
X92978Y57057D01*
X93008Y56987D01*
X93049Y56911D01*
X93107Y56840D01*
X93113Y56835D01*
X93136Y56817D01*
X93177Y56788D01*
X93230Y56758D01*
X93294Y56723D01*
X93376Y56700D01*
X93464Y56677D01*
X93563Y56671D01*
X93610D01*
X93657Y56682D01*
X93721Y56694D01*
X93792Y56712D01*
X93867Y56741D01*
X93944Y56782D01*
X94014Y56840D01*
X94020Y56846D01*
X94043Y56870D01*
X94072Y56905D01*
X94102Y56957D01*
X94137Y57016D01*
X94160Y57092D01*
X94183Y57174D01*
X94189Y57262D01*
Y57267D01*
Y57273D01*
Y57302D01*
X94178Y57355D01*
X94166Y57414D01*
X94143Y57478D01*
X94113Y57554D01*
X94066Y57624D01*
X94008Y57694D01*
X94002Y57700D01*
X93979Y57724D01*
X93938Y57753D01*
X93885Y57788D01*
X93821Y57817D01*
X93745Y57846D01*
X93663Y57870D01*
X93563Y57876D01*
D02*
G37*
G36*
X93552Y56285D02*
X93522D01*
X93499Y56279D01*
X93435Y56273D01*
X93359Y56255D01*
X93271Y56232D01*
X93177Y56191D01*
X93089Y56138D01*
X93002Y56062D01*
X92990Y56051D01*
X92967Y56021D01*
X92931Y55975D01*
X92896Y55910D01*
X92856Y55828D01*
X92820Y55735D01*
X92797Y55624D01*
X92785Y55506D01*
Y55501D01*
Y55471D01*
X92791Y55436D01*
X92797Y55384D01*
X92809Y55325D01*
X92826Y55255D01*
X92850Y55185D01*
X92879Y55115D01*
X92885Y55109D01*
X92896Y55085D01*
X92920Y55050D01*
X92949Y55009D01*
X92990Y54962D01*
X93037Y54910D01*
X93095Y54863D01*
X93160Y54822D01*
X93171Y54816D01*
X93195Y54804D01*
X93230Y54793D01*
X93283Y54775D01*
X93347Y54752D01*
X93411Y54740D01*
X93487Y54729D01*
X93569Y54723D01*
X93604D01*
X93628Y54729D01*
X93686Y54734D01*
X93768Y54752D01*
X93856Y54775D01*
X93949Y54816D01*
X94037Y54869D01*
X94125Y54939D01*
X94137Y54951D01*
X94160Y54980D01*
X94195Y55027D01*
X94236Y55091D01*
X94277Y55167D01*
X94312Y55267D01*
X94336Y55372D01*
X94347Y55495D01*
Y55501D01*
Y55512D01*
Y55530D01*
X94341Y55553D01*
X94336Y55612D01*
X94318Y55694D01*
X94295Y55782D01*
X94254Y55875D01*
X94195Y55969D01*
X94119Y56056D01*
X94107Y56068D01*
X94078Y56091D01*
X94031Y56127D01*
X93967Y56173D01*
X93885Y56214D01*
X93786Y56249D01*
X93674Y56273D01*
X93552Y56285D01*
D02*
G37*
G36*
X106893Y57794D02*
X105682D01*
Y56524D01*
X106829D01*
X106893Y56530D01*
X106969Y56536D01*
X107057Y56542D01*
X107150Y56554D01*
X107238Y56571D01*
X107314Y56595D01*
X107326Y56600D01*
X107349Y56606D01*
X107384Y56624D01*
X107425Y56647D01*
X107472Y56682D01*
X107525Y56723D01*
X107572Y56770D01*
X107613Y56823D01*
X107618Y56829D01*
X107630Y56852D01*
X107648Y56881D01*
X107665Y56928D01*
X107683Y56975D01*
X107700Y57033D01*
X107712Y57098D01*
X107718Y57168D01*
Y57174D01*
Y57180D01*
Y57215D01*
X107706Y57262D01*
X107694Y57326D01*
X107671Y57396D01*
X107636Y57472D01*
X107583Y57548D01*
X107519Y57618D01*
X107507Y57624D01*
X107484Y57648D01*
X107431Y57677D01*
X107367Y57706D01*
X107279Y57741D01*
X107174Y57765D01*
X107045Y57788D01*
X106893Y57794D01*
D02*
G37*
G36*
X50679Y56084D02*
X50650D01*
X50626Y56078D01*
X50568Y56072D01*
X50492Y56055D01*
X50410Y56025D01*
X50317Y55984D01*
X50229Y55926D01*
X50141Y55850D01*
X50129Y55838D01*
X50106Y55809D01*
X50071Y55756D01*
X50030Y55692D01*
X49989Y55604D01*
X49954Y55499D01*
X49930Y55382D01*
X49919Y55247D01*
Y55236D01*
Y55206D01*
X49924Y55160D01*
X49930Y55101D01*
X49942Y55025D01*
X49960Y54949D01*
X49983Y54867D01*
X50018Y54779D01*
X50024Y54768D01*
X50036Y54744D01*
X50059Y54703D01*
X50094Y54656D01*
X50135Y54598D01*
X50182Y54545D01*
X50240Y54487D01*
X50305Y54440D01*
X50311Y54434D01*
X50340Y54422D01*
X50375Y54405D01*
X50422Y54387D01*
X50480Y54364D01*
X50551Y54347D01*
X50621Y54335D01*
X50697Y54329D01*
X50726D01*
X50749Y54335D01*
X50802Y54341D01*
X50878Y54358D01*
X50954Y54387D01*
X51042Y54428D01*
X51130Y54487D01*
X51212Y54569D01*
X51223Y54580D01*
X51247Y54616D01*
X51282Y54668D01*
X51323Y54738D01*
X51358Y54832D01*
X51393Y54949D01*
X51416Y55078D01*
X51428Y55224D01*
Y55230D01*
Y55242D01*
Y55265D01*
X51422Y55288D01*
Y55323D01*
X51416Y55364D01*
X51405Y55452D01*
X51375Y55552D01*
X51340Y55657D01*
X51288Y55756D01*
X51217Y55850D01*
X51206Y55862D01*
X51182Y55885D01*
X51135Y55926D01*
X51071Y55967D01*
X50995Y56008D01*
X50902Y56049D01*
X50796Y56072D01*
X50679Y56084D01*
D02*
G37*
G36*
X47444Y57424D02*
X46233D01*
Y56154D01*
X47380D01*
X47444Y56160D01*
X47520Y56166D01*
X47608Y56172D01*
X47701Y56183D01*
X47789Y56201D01*
X47865Y56224D01*
X47877Y56230D01*
X47901Y56236D01*
X47936Y56254D01*
X47976Y56277D01*
X48023Y56312D01*
X48076Y56353D01*
X48123Y56400D01*
X48164Y56453D01*
X48169Y56458D01*
X48181Y56482D01*
X48199Y56511D01*
X48216Y56558D01*
X48234Y56605D01*
X48251Y56663D01*
X48263Y56727D01*
X48269Y56798D01*
Y56804D01*
Y56809D01*
Y56844D01*
X48257Y56891D01*
X48246Y56956D01*
X48222Y57026D01*
X48187Y57102D01*
X48134Y57178D01*
X48070Y57248D01*
X48058Y57254D01*
X48035Y57277D01*
X47982Y57307D01*
X47918Y57336D01*
X47830Y57371D01*
X47725Y57394D01*
X47596Y57418D01*
X47444Y57424D01*
D02*
G37*
G36*
X63965Y57432D02*
X62754D01*
Y56163D01*
X63901D01*
X63965Y56169D01*
X64041Y56175D01*
X64129Y56181D01*
X64222Y56192D01*
X64310Y56210D01*
X64386Y56233D01*
X64398Y56239D01*
X64421Y56245D01*
X64456Y56262D01*
X64497Y56286D01*
X64544Y56321D01*
X64597Y56362D01*
X64644Y56409D01*
X64684Y56461D01*
X64690Y56467D01*
X64702Y56490D01*
X64720Y56520D01*
X64737Y56567D01*
X64755Y56613D01*
X64772Y56672D01*
X64784Y56736D01*
X64790Y56806D01*
Y56812D01*
Y56818D01*
Y56853D01*
X64778Y56900D01*
X64766Y56964D01*
X64743Y57035D01*
X64708Y57111D01*
X64655Y57187D01*
X64591Y57257D01*
X64579Y57263D01*
X64556Y57286D01*
X64503Y57315D01*
X64439Y57345D01*
X64351Y57380D01*
X64246Y57403D01*
X64117Y57427D01*
X63965Y57432D01*
D02*
G37*
G36*
X71830Y58000D02*
X70110D01*
X71830Y56795D01*
Y58000D01*
D02*
G37*
G36*
X70391Y55361D02*
X70385D01*
X70379D01*
X70344D01*
X70297Y55350D01*
X70233Y55338D01*
X70163Y55315D01*
X70087Y55280D01*
X70011Y55227D01*
X69941Y55163D01*
X69935Y55151D01*
X69911Y55128D01*
X69882Y55075D01*
X69853Y55010D01*
X69818Y54923D01*
X69794Y54817D01*
X69771Y54689D01*
X69765Y54537D01*
Y53326D01*
X71035D01*
Y54472D01*
X71029Y54537D01*
X71023Y54613D01*
X71017Y54700D01*
X71005Y54794D01*
X70988Y54882D01*
X70964Y54958D01*
X70959Y54970D01*
X70953Y54993D01*
X70935Y55028D01*
X70912Y55069D01*
X70877Y55116D01*
X70836Y55168D01*
X70789Y55215D01*
X70736Y55256D01*
X70730Y55262D01*
X70707Y55274D01*
X70678Y55291D01*
X70631Y55309D01*
X70584Y55326D01*
X70526Y55344D01*
X70461Y55356D01*
X70391Y55361D01*
D02*
G37*
G36*
X84541Y55356D02*
X84535D01*
X84529D01*
X84494D01*
X84447Y55344D01*
X84383Y55332D01*
X84313Y55309D01*
X84237Y55274D01*
X84161Y55221D01*
X84091Y55157D01*
X84085Y55145D01*
X84061Y55122D01*
X84032Y55069D01*
X84003Y55005D01*
X83968Y54917D01*
X83944Y54812D01*
X83921Y54683D01*
X83915Y54531D01*
Y53320D01*
X85184D01*
Y54466D01*
X85179Y54531D01*
X85173Y54607D01*
X85167Y54695D01*
X85155Y54788D01*
X85138Y54876D01*
X85114Y54952D01*
X85108Y54964D01*
X85102Y54987D01*
X85085Y55022D01*
X85062Y55063D01*
X85027Y55110D01*
X84986Y55163D01*
X84939Y55209D01*
X84886Y55250D01*
X84880Y55256D01*
X84857Y55268D01*
X84828Y55285D01*
X84781Y55303D01*
X84734Y55321D01*
X84676Y55338D01*
X84611Y55350D01*
X84541Y55356D01*
D02*
G37*
G36*
X70296Y122746D02*
X69085D01*
Y121476D01*
X70232D01*
X70296Y121482D01*
X70372Y121488D01*
X70460Y121494D01*
X70554Y121505D01*
X70641Y121523D01*
X70718Y121546D01*
X70729Y121552D01*
X70753Y121558D01*
X70788Y121576D01*
X70829Y121599D01*
X70876Y121634D01*
X70928Y121675D01*
X70975Y121722D01*
X71016Y121775D01*
X71022Y121781D01*
X71033Y121804D01*
X71051Y121833D01*
X71069Y121880D01*
X71086Y121927D01*
X71104Y121985D01*
X71115Y122050D01*
X71121Y122120D01*
Y122126D01*
Y122132D01*
Y122167D01*
X71109Y122213D01*
X71098Y122278D01*
X71074Y122348D01*
X71039Y122424D01*
X70987Y122500D01*
X70922Y122570D01*
X70911Y122576D01*
X70887Y122599D01*
X70834Y122629D01*
X70770Y122658D01*
X70682Y122693D01*
X70577Y122716D01*
X70448Y122740D01*
X70296Y122746D01*
D02*
G37*
G36*
X97095Y149033D02*
X95884D01*
Y147763D01*
X97030D01*
X97095Y147769D01*
X97171Y147775D01*
X97259Y147781D01*
X97352Y147793D01*
X97440Y147810D01*
X97516Y147834D01*
X97528Y147839D01*
X97551Y147845D01*
X97586Y147863D01*
X97627Y147886D01*
X97674Y147921D01*
X97727Y147962D01*
X97773Y148009D01*
X97814Y148062D01*
X97820Y148068D01*
X97832Y148091D01*
X97849Y148120D01*
X97867Y148167D01*
X97885Y148214D01*
X97902Y148272D01*
X97914Y148337D01*
X97920Y148407D01*
Y148413D01*
Y148419D01*
Y148454D01*
X97908Y148501D01*
X97896Y148565D01*
X97873Y148635D01*
X97838Y148711D01*
X97785Y148787D01*
X97721Y148857D01*
X97709Y148863D01*
X97686Y148887D01*
X97633Y148916D01*
X97569Y148945D01*
X97481Y148980D01*
X97376Y149004D01*
X97247Y149027D01*
X97095Y149033D01*
D02*
G37*
G36*
X117804Y120444D02*
X116710D01*
Y119069D01*
X117745D01*
X117780Y119075D01*
X117821D01*
X117862Y119081D01*
X117967Y119093D01*
X118085Y119116D01*
X118201Y119146D01*
X118307Y119192D01*
X118354Y119221D01*
X118394Y119251D01*
X118406Y119257D01*
X118430Y119286D01*
X118459Y119327D01*
X118500Y119385D01*
X118541Y119456D01*
X118570Y119543D01*
X118593Y119649D01*
X118605Y119766D01*
Y119777D01*
Y119807D01*
X118599Y119853D01*
X118588Y119912D01*
X118576Y119976D01*
X118552Y120046D01*
X118523Y120117D01*
X118482Y120181D01*
X118476Y120187D01*
X118459Y120210D01*
X118436Y120239D01*
X118394Y120274D01*
X118348Y120310D01*
X118295Y120351D01*
X118231Y120380D01*
X118160Y120409D01*
X118155D01*
X118137Y120415D01*
X118102Y120421D01*
X118055Y120427D01*
X117991Y120432D01*
X117909Y120438D01*
X117804Y120444D01*
D02*
G37*
G36*
X121097Y109022D02*
X119892Y107302D01*
X121097D01*
Y109022D01*
D02*
G37*
G36*
X117804Y109344D02*
X116710D01*
Y107969D01*
X117745D01*
X117780Y107975D01*
X117821D01*
X117862Y107981D01*
X117967Y107993D01*
X118085Y108016D01*
X118201Y108045D01*
X118307Y108092D01*
X118354Y108122D01*
X118394Y108151D01*
X118406Y108157D01*
X118430Y108186D01*
X118459Y108227D01*
X118500Y108285D01*
X118541Y108355D01*
X118570Y108443D01*
X118593Y108549D01*
X118605Y108666D01*
Y108677D01*
Y108706D01*
X118599Y108753D01*
X118588Y108812D01*
X118576Y108876D01*
X118552Y108946D01*
X118523Y109017D01*
X118482Y109081D01*
X118476Y109087D01*
X118459Y109110D01*
X118436Y109139D01*
X118394Y109175D01*
X118348Y109210D01*
X118295Y109251D01*
X118231Y109280D01*
X118160Y109309D01*
X118155D01*
X118137Y109315D01*
X118102Y109321D01*
X118055Y109327D01*
X117991Y109333D01*
X117909Y109338D01*
X117804Y109344D01*
D02*
G37*
G36*
Y131444D02*
X116710D01*
Y130069D01*
X117745D01*
X117780Y130075D01*
X117821D01*
X117862Y130081D01*
X117967Y130093D01*
X118085Y130116D01*
X118201Y130146D01*
X118307Y130192D01*
X118354Y130221D01*
X118394Y130251D01*
X118406Y130257D01*
X118430Y130286D01*
X118459Y130327D01*
X118500Y130385D01*
X118541Y130456D01*
X118570Y130543D01*
X118593Y130649D01*
X118605Y130766D01*
Y130777D01*
Y130807D01*
X118599Y130853D01*
X118588Y130912D01*
X118576Y130976D01*
X118552Y131046D01*
X118523Y131117D01*
X118482Y131181D01*
X118476Y131187D01*
X118459Y131210D01*
X118436Y131239D01*
X118394Y131274D01*
X118348Y131310D01*
X118295Y131351D01*
X118231Y131380D01*
X118160Y131409D01*
X118155D01*
X118137Y131415D01*
X118102Y131421D01*
X118055Y131427D01*
X117991Y131432D01*
X117909Y131438D01*
X117804Y131444D01*
D02*
G37*
G36*
X97829Y27955D02*
X97782D01*
X97735Y27943D01*
X97671Y27931D01*
X97600Y27914D01*
X97524Y27878D01*
X97448Y27837D01*
X97378Y27779D01*
X97372Y27773D01*
X97349Y27750D01*
X97325Y27709D01*
X97290Y27662D01*
X97261Y27604D01*
X97232Y27527D01*
X97208Y27451D01*
X97203Y27364D01*
Y27352D01*
Y27317D01*
X97214Y27270D01*
X97226Y27206D01*
X97243Y27136D01*
X97273Y27065D01*
X97314Y26989D01*
X97372Y26919D01*
X97378Y26913D01*
X97401Y26896D01*
X97442Y26866D01*
X97495Y26837D01*
X97559Y26802D01*
X97641Y26779D01*
X97729Y26755D01*
X97829Y26749D01*
X97875D01*
X97922Y26761D01*
X97987Y26773D01*
X98057Y26790D01*
X98133Y26820D01*
X98209Y26861D01*
X98279Y26919D01*
X98285Y26925D01*
X98308Y26948D01*
X98338Y26983D01*
X98367Y27036D01*
X98402Y27095D01*
X98425Y27171D01*
X98449Y27253D01*
X98454Y27340D01*
Y27346D01*
Y27352D01*
Y27381D01*
X98443Y27434D01*
X98431Y27492D01*
X98408Y27557D01*
X98378Y27633D01*
X98332Y27703D01*
X98273Y27773D01*
X98267Y27779D01*
X98244Y27802D01*
X98203Y27832D01*
X98150Y27867D01*
X98086Y27896D01*
X98010Y27925D01*
X97928Y27949D01*
X97829Y27955D01*
D02*
G37*
G36*
X97817Y26363D02*
X97788D01*
X97764Y26357D01*
X97700Y26352D01*
X97624Y26334D01*
X97536Y26311D01*
X97442Y26270D01*
X97355Y26217D01*
X97267Y26141D01*
X97255Y26129D01*
X97232Y26100D01*
X97197Y26053D01*
X97162Y25989D01*
X97121Y25907D01*
X97086Y25813D01*
X97062Y25702D01*
X97050Y25585D01*
Y25579D01*
Y25550D01*
X97056Y25515D01*
X97062Y25462D01*
X97074Y25404D01*
X97091Y25334D01*
X97115Y25264D01*
X97144Y25193D01*
X97150Y25188D01*
X97162Y25164D01*
X97185Y25129D01*
X97214Y25088D01*
X97255Y25041D01*
X97302Y24989D01*
X97360Y24942D01*
X97425Y24901D01*
X97437Y24895D01*
X97460Y24883D01*
X97495Y24872D01*
X97548Y24854D01*
X97612Y24831D01*
X97676Y24819D01*
X97752Y24807D01*
X97834Y24801D01*
X97869D01*
X97893Y24807D01*
X97951Y24813D01*
X98033Y24831D01*
X98121Y24854D01*
X98215Y24895D01*
X98302Y24948D01*
X98390Y25018D01*
X98402Y25030D01*
X98425Y25059D01*
X98460Y25106D01*
X98501Y25170D01*
X98542Y25246D01*
X98577Y25345D01*
X98601Y25451D01*
X98612Y25574D01*
Y25579D01*
Y25591D01*
Y25609D01*
X98607Y25632D01*
X98601Y25691D01*
X98583Y25773D01*
X98560Y25860D01*
X98519Y25954D01*
X98460Y26047D01*
X98384Y26135D01*
X98373Y26147D01*
X98343Y26170D01*
X98296Y26205D01*
X98232Y26252D01*
X98150Y26293D01*
X98051Y26328D01*
X97940Y26352D01*
X97817Y26363D01*
D02*
G37*
G36*
X94314Y100178D02*
X94285D01*
X94262Y100173D01*
X94203Y100167D01*
X94127Y100149D01*
X94045Y100120D01*
X93952Y100079D01*
X93864Y100021D01*
X93776Y99944D01*
X93765Y99933D01*
X93741Y99904D01*
X93706Y99851D01*
X93665Y99787D01*
X93624Y99699D01*
X93589Y99593D01*
X93566Y99476D01*
X93554Y99342D01*
Y99330D01*
Y99301D01*
X93560Y99254D01*
X93566Y99196D01*
X93577Y99120D01*
X93595Y99044D01*
X93618Y98962D01*
X93653Y98874D01*
X93659Y98862D01*
X93671Y98839D01*
X93694Y98798D01*
X93730Y98751D01*
X93770Y98693D01*
X93817Y98640D01*
X93876Y98581D01*
X93940Y98535D01*
X93946Y98529D01*
X93975Y98517D01*
X94010Y98500D01*
X94057Y98482D01*
X94116Y98458D01*
X94186Y98441D01*
X94256Y98429D01*
X94332Y98423D01*
X94361D01*
X94385Y98429D01*
X94437Y98435D01*
X94513Y98453D01*
X94589Y98482D01*
X94677Y98523D01*
X94765Y98581D01*
X94847Y98663D01*
X94858Y98675D01*
X94882Y98710D01*
X94917Y98763D01*
X94958Y98833D01*
X94993Y98927D01*
X95028Y99044D01*
X95052Y99172D01*
X95063Y99318D01*
Y99324D01*
Y99336D01*
Y99359D01*
X95057Y99383D01*
Y99418D01*
X95052Y99459D01*
X95040Y99547D01*
X95011Y99646D01*
X94976Y99751D01*
X94923Y99851D01*
X94853Y99944D01*
X94841Y99956D01*
X94818Y99980D01*
X94771Y100021D01*
X94706Y100061D01*
X94630Y100102D01*
X94537Y100143D01*
X94432Y100167D01*
X94314Y100178D01*
D02*
G37*
G36*
X76683Y27228D02*
X75477Y25508D01*
X76683D01*
Y27228D01*
D02*
G37*
G36*
X92783Y34341D02*
X91578Y32621D01*
X92783D01*
Y34341D01*
D02*
G37*
G36*
X88905Y34663D02*
X88103D01*
Y31721D01*
X88981D01*
X89045Y31726D01*
X89133Y31732D01*
X89227Y31738D01*
X89326Y31750D01*
X89420Y31767D01*
X89507Y31791D01*
X89519Y31797D01*
X89543Y31802D01*
X89583Y31820D01*
X89630Y31843D01*
X89689Y31873D01*
X89747Y31902D01*
X89800Y31943D01*
X89853Y31990D01*
X89858Y31995D01*
X89882Y32025D01*
X89917Y32066D01*
X89958Y32118D01*
X89999Y32188D01*
X90046Y32270D01*
X90092Y32370D01*
X90133Y32475D01*
Y32481D01*
X90139Y32487D01*
X90145Y32504D01*
X90151Y32528D01*
X90157Y32557D01*
X90168Y32592D01*
X90186Y32680D01*
X90204Y32791D01*
X90221Y32920D01*
X90233Y33060D01*
X90239Y33218D01*
Y33224D01*
Y33247D01*
Y33277D01*
Y33318D01*
X90233Y33370D01*
X90227Y33429D01*
X90221Y33493D01*
X90215Y33557D01*
X90192Y33709D01*
X90157Y33862D01*
X90104Y34008D01*
X90075Y34078D01*
X90040Y34142D01*
Y34148D01*
X90028Y34154D01*
X90022Y34172D01*
X90005Y34195D01*
X89964Y34254D01*
X89905Y34318D01*
X89835Y34394D01*
X89753Y34464D01*
X89660Y34528D01*
X89560Y34581D01*
X89548Y34587D01*
X89519Y34593D01*
X89472Y34605D01*
X89402Y34622D01*
X89309Y34640D01*
X89197Y34651D01*
X89063Y34657D01*
X88905Y34663D01*
D02*
G37*
G36*
X46205Y34563D02*
X45403D01*
Y31620D01*
X46281D01*
X46345Y31626D01*
X46433Y31632D01*
X46527Y31638D01*
X46626Y31650D01*
X46720Y31667D01*
X46807Y31691D01*
X46819Y31697D01*
X46843Y31702D01*
X46883Y31720D01*
X46930Y31743D01*
X46989Y31773D01*
X47047Y31802D01*
X47100Y31843D01*
X47153Y31890D01*
X47158Y31896D01*
X47182Y31925D01*
X47217Y31966D01*
X47258Y32018D01*
X47299Y32089D01*
X47346Y32170D01*
X47392Y32270D01*
X47433Y32375D01*
Y32381D01*
X47439Y32387D01*
X47445Y32404D01*
X47451Y32428D01*
X47457Y32457D01*
X47469Y32492D01*
X47486Y32580D01*
X47504Y32691D01*
X47521Y32820D01*
X47533Y32960D01*
X47539Y33118D01*
Y33124D01*
Y33147D01*
Y33177D01*
Y33218D01*
X47533Y33270D01*
X47527Y33329D01*
X47521Y33393D01*
X47515Y33457D01*
X47492Y33610D01*
X47457Y33762D01*
X47404Y33908D01*
X47375Y33978D01*
X47340Y34042D01*
Y34048D01*
X47328Y34054D01*
X47322Y34072D01*
X47305Y34095D01*
X47264Y34154D01*
X47205Y34218D01*
X47135Y34294D01*
X47053Y34364D01*
X46959Y34429D01*
X46860Y34481D01*
X46848Y34487D01*
X46819Y34493D01*
X46772Y34505D01*
X46702Y34522D01*
X46608Y34540D01*
X46497Y34551D01*
X46363Y34557D01*
X46205Y34563D01*
D02*
G37*
G36*
X67505D02*
X66703D01*
Y31620D01*
X67581D01*
X67645Y31626D01*
X67733Y31632D01*
X67827Y31638D01*
X67926Y31650D01*
X68020Y31667D01*
X68107Y31691D01*
X68119Y31697D01*
X68142Y31702D01*
X68183Y31720D01*
X68230Y31743D01*
X68289Y31773D01*
X68347Y31802D01*
X68400Y31843D01*
X68453Y31890D01*
X68458Y31896D01*
X68482Y31925D01*
X68517Y31966D01*
X68558Y32018D01*
X68599Y32089D01*
X68646Y32170D01*
X68692Y32270D01*
X68733Y32375D01*
Y32381D01*
X68739Y32387D01*
X68745Y32404D01*
X68751Y32428D01*
X68757Y32457D01*
X68769Y32492D01*
X68786Y32580D01*
X68804Y32691D01*
X68821Y32820D01*
X68833Y32960D01*
X68839Y33118D01*
Y33124D01*
Y33147D01*
Y33177D01*
Y33218D01*
X68833Y33270D01*
X68827Y33329D01*
X68821Y33393D01*
X68815Y33457D01*
X68792Y33610D01*
X68757Y33762D01*
X68704Y33908D01*
X68675Y33978D01*
X68640Y34042D01*
Y34048D01*
X68628Y34054D01*
X68622Y34072D01*
X68605Y34095D01*
X68564Y34154D01*
X68505Y34218D01*
X68435Y34294D01*
X68353Y34364D01*
X68260Y34429D01*
X68160Y34481D01*
X68148Y34487D01*
X68119Y34493D01*
X68072Y34505D01*
X68002Y34522D01*
X67909Y34540D01*
X67797Y34551D01*
X67663Y34557D01*
X67505Y34563D01*
D02*
G37*
G36*
X91495Y114455D02*
X90693D01*
Y111512D01*
X91571D01*
X91635Y111518D01*
X91723Y111524D01*
X91817Y111530D01*
X91916Y111541D01*
X92010Y111559D01*
X92097Y111582D01*
X92109Y111588D01*
X92132Y111594D01*
X92173Y111611D01*
X92220Y111635D01*
X92279Y111664D01*
X92337Y111693D01*
X92390Y111734D01*
X92443Y111781D01*
X92448Y111787D01*
X92472Y111816D01*
X92507Y111857D01*
X92548Y111910D01*
X92589Y111980D01*
X92636Y112062D01*
X92682Y112161D01*
X92723Y112267D01*
Y112273D01*
X92729Y112278D01*
X92735Y112296D01*
X92741Y112319D01*
X92747Y112349D01*
X92758Y112384D01*
X92776Y112471D01*
X92794Y112583D01*
X92811Y112711D01*
X92823Y112852D01*
X92829Y113010D01*
Y113015D01*
Y113039D01*
Y113068D01*
Y113109D01*
X92823Y113162D01*
X92817Y113220D01*
X92811Y113285D01*
X92805Y113349D01*
X92782Y113501D01*
X92747Y113653D01*
X92694Y113799D01*
X92665Y113870D01*
X92630Y113934D01*
Y113940D01*
X92618Y113946D01*
X92612Y113963D01*
X92595Y113987D01*
X92554Y114045D01*
X92495Y114110D01*
X92425Y114186D01*
X92343Y114256D01*
X92249Y114320D01*
X92150Y114373D01*
X92138Y114379D01*
X92109Y114384D01*
X92062Y114396D01*
X91992Y114414D01*
X91898Y114431D01*
X91787Y114443D01*
X91653Y114449D01*
X91495Y114455D01*
D02*
G37*
G36*
X93591Y65788D02*
X93544D01*
X93497Y65777D01*
X93433Y65765D01*
X93363Y65747D01*
X93287Y65712D01*
X93211Y65671D01*
X93140Y65613D01*
X93134Y65607D01*
X93111Y65583D01*
X93088Y65543D01*
X93053Y65496D01*
X93023Y65437D01*
X92994Y65361D01*
X92971Y65285D01*
X92965Y65197D01*
Y65186D01*
Y65151D01*
X92976Y65104D01*
X92988Y65039D01*
X93006Y64969D01*
X93035Y64899D01*
X93076Y64823D01*
X93134Y64753D01*
X93140Y64747D01*
X93164Y64729D01*
X93205Y64700D01*
X93257Y64671D01*
X93322Y64636D01*
X93404Y64612D01*
X93491Y64589D01*
X93591Y64583D01*
X93638D01*
X93684Y64595D01*
X93749Y64607D01*
X93819Y64624D01*
X93895Y64653D01*
X93971Y64694D01*
X94041Y64753D01*
X94047Y64759D01*
X94070Y64782D01*
X94100Y64817D01*
X94129Y64870D01*
X94164Y64928D01*
X94187Y65004D01*
X94211Y65086D01*
X94217Y65174D01*
Y65180D01*
Y65186D01*
Y65215D01*
X94205Y65268D01*
X94193Y65326D01*
X94170Y65390D01*
X94141Y65466D01*
X94094Y65537D01*
X94035Y65607D01*
X94029Y65613D01*
X94006Y65636D01*
X93965Y65665D01*
X93913Y65701D01*
X93848Y65730D01*
X93772Y65759D01*
X93690Y65782D01*
X93591Y65788D01*
D02*
G37*
G36*
X93579Y64197D02*
X93550D01*
X93526Y64191D01*
X93462Y64185D01*
X93386Y64168D01*
X93298Y64144D01*
X93205Y64104D01*
X93117Y64051D01*
X93029Y63975D01*
X93017Y63963D01*
X92994Y63934D01*
X92959Y63887D01*
X92924Y63823D01*
X92883Y63741D01*
X92848Y63647D01*
X92824Y63536D01*
X92813Y63419D01*
Y63413D01*
Y63384D01*
X92818Y63349D01*
X92824Y63296D01*
X92836Y63238D01*
X92854Y63168D01*
X92877Y63097D01*
X92906Y63027D01*
X92912Y63021D01*
X92924Y62998D01*
X92947Y62963D01*
X92976Y62922D01*
X93017Y62875D01*
X93064Y62822D01*
X93123Y62775D01*
X93187Y62735D01*
X93199Y62729D01*
X93222Y62717D01*
X93257Y62705D01*
X93310Y62688D01*
X93374Y62664D01*
X93439Y62653D01*
X93515Y62641D01*
X93597Y62635D01*
X93632D01*
X93655Y62641D01*
X93714Y62647D01*
X93796Y62664D01*
X93883Y62688D01*
X93977Y62729D01*
X94065Y62781D01*
X94152Y62852D01*
X94164Y62863D01*
X94187Y62893D01*
X94222Y62939D01*
X94263Y63004D01*
X94304Y63080D01*
X94340Y63179D01*
X94363Y63284D01*
X94375Y63407D01*
Y63413D01*
Y63425D01*
Y63442D01*
X94369Y63466D01*
X94363Y63524D01*
X94345Y63606D01*
X94322Y63694D01*
X94281Y63788D01*
X94222Y63881D01*
X94147Y63969D01*
X94135Y63981D01*
X94105Y64004D01*
X94059Y64039D01*
X93994Y64086D01*
X93913Y64127D01*
X93813Y64162D01*
X93702Y64185D01*
X93579Y64197D01*
D02*
G37*
G36*
X71914Y64290D02*
X71885D01*
X71861Y64284D01*
X71803Y64278D01*
X71727Y64261D01*
X71645Y64232D01*
X71551Y64191D01*
X71464Y64132D01*
X71376Y64056D01*
X71364Y64044D01*
X71341Y64015D01*
X71306Y63963D01*
X71265Y63898D01*
X71224Y63810D01*
X71189Y63705D01*
X71165Y63588D01*
X71154Y63454D01*
Y63442D01*
Y63413D01*
X71159Y63366D01*
X71165Y63307D01*
X71177Y63231D01*
X71195Y63155D01*
X71218Y63073D01*
X71253Y62986D01*
X71259Y62974D01*
X71271Y62950D01*
X71294Y62910D01*
X71329Y62863D01*
X71370Y62804D01*
X71417Y62752D01*
X71475Y62693D01*
X71540Y62646D01*
X71546Y62640D01*
X71575Y62629D01*
X71610Y62611D01*
X71657Y62594D01*
X71715Y62570D01*
X71785Y62553D01*
X71856Y62541D01*
X71932Y62535D01*
X71961D01*
X71984Y62541D01*
X72037Y62547D01*
X72113Y62564D01*
X72189Y62594D01*
X72277Y62635D01*
X72365Y62693D01*
X72447Y62775D01*
X72458Y62787D01*
X72482Y62822D01*
X72517Y62874D01*
X72558Y62945D01*
X72593Y63038D01*
X72628Y63155D01*
X72651Y63284D01*
X72663Y63430D01*
Y63436D01*
Y63448D01*
Y63471D01*
X72657Y63494D01*
Y63530D01*
X72651Y63571D01*
X72640Y63658D01*
X72610Y63758D01*
X72575Y63863D01*
X72522Y63963D01*
X72452Y64056D01*
X72441Y64068D01*
X72417Y64091D01*
X72370Y64132D01*
X72306Y64173D01*
X72230Y64214D01*
X72136Y64255D01*
X72031Y64278D01*
X71914Y64290D01*
D02*
G37*
G36*
X59257Y107842D02*
X58052Y106123D01*
X59257D01*
Y107842D01*
D02*
G37*
%LPD*%
D10*
X123933Y108000D02*
X123195Y108426D01*
Y107574D01*
X123933Y108000D01*
Y119077D02*
X123195Y119503D01*
Y118651D01*
X123933Y119077D01*
Y130077D02*
X123195Y130503D01*
Y129651D01*
X123933Y130077D01*
X119992Y91514D02*
X119254Y91940D01*
Y91088D01*
X119992Y91514D01*
X66689Y99500D02*
X65951Y99926D01*
Y99074D01*
X66689Y99500D01*
X69475Y91401D02*
X68737Y91827D01*
Y90974D01*
X69475Y91401D01*
X64480Y146465D02*
X63742Y146891D01*
Y146038D01*
X64480Y146465D01*
X38492Y91514D02*
X37754Y91940D01*
Y91088D01*
X38492Y91514D01*
X136492Y56157D02*
X135754Y56584D01*
Y55731D01*
X136492Y56157D01*
X100992Y24803D02*
X100254Y25229D01*
Y24377D01*
X100992Y24803D01*
X79339Y24689D02*
X78600Y25115D01*
Y24263D01*
X79339Y24689D01*
X58079D02*
X57341Y25115D01*
Y24263D01*
X58079Y24689D01*
D11*
X51575Y131110D02*
Y144890D01*
X62598Y131110D02*
Y144890D01*
X88177Y41608D02*
Y51286D01*
X79516Y41608D02*
Y51286D01*
X77727Y41608D02*
Y51286D01*
X69066Y41608D02*
Y51286D01*
X81245Y116150D02*
X83371D01*
X76324Y109850D02*
Y112961D01*
X84985Y109850D02*
X88292D01*
X76324D02*
X79631D01*
X88292D02*
Y112961D01*
X67169Y108161D02*
Y117839D01*
X75831Y108161D02*
Y117839D01*
X102831Y133161D02*
Y142839D01*
X94169Y133161D02*
Y142839D01*
X113002Y132279D02*
Y143721D01*
X104119Y132279D02*
Y143721D01*
X123173Y132279D02*
Y143721D01*
X114290Y132279D02*
Y143721D01*
X126000Y112902D02*
X156000D01*
X126000Y103098D02*
X156000D01*
X126000D02*
Y112902D01*
X156000Y103098D02*
Y112902D01*
X126000Y123978D02*
X156000D01*
X126000Y114175D02*
X156000D01*
X126000D02*
Y123978D01*
X156000Y114175D02*
Y123978D01*
X126000Y134978D02*
X156000D01*
X126000Y125175D02*
X156000D01*
X126000D02*
Y134978D01*
X156000Y125175D02*
Y134978D01*
X134323Y99772D02*
X156764D01*
X127237D02*
X130977D01*
X134323D02*
X134520Y102135D01*
X130780D02*
X130977Y99772D01*
X130780Y102135D02*
X134520D01*
X127237Y60402D02*
X147315D01*
X127237D02*
Y99772D01*
X150071Y60402D02*
X156764D01*
X150071D02*
X150366Y58040D01*
X147020D02*
X147315Y60402D01*
X147020Y58040D02*
X150366D01*
X156764Y60402D02*
X156764Y99772D01*
X114244Y89959D02*
X124756D01*
X114244Y68463D02*
Y89959D01*
Y68463D02*
X124756D01*
Y89959D01*
X67752Y94244D02*
Y104756D01*
Y94244D02*
X89248D01*
Y104756D01*
X67752D02*
X89248D01*
X75577Y69855D02*
X81483D01*
X75577Y89540D02*
X81483D01*
Y69855D02*
Y89540D01*
X75577Y69855D02*
Y89540D01*
X52559Y92779D02*
Y104221D01*
X61441Y92779D02*
Y104221D01*
X67532Y135539D02*
Y140461D01*
X77039Y126031D02*
X81961D01*
X91469Y135539D02*
Y140461D01*
X77039Y149969D02*
X81961D01*
X32744Y89959D02*
X43256D01*
X32744Y68463D02*
Y89959D01*
Y68463D02*
X43256D01*
Y89959D01*
X736Y60401D02*
X23177D01*
X26523D02*
X30263D01*
X22980Y58039D02*
X23177Y60401D01*
X26523D02*
X26720Y58039D01*
X22980D02*
X26720D01*
X10185Y99771D02*
X30263D01*
Y60401D02*
Y99771D01*
X736D02*
X7429D01*
X7134Y102133D02*
X7429Y99771D01*
X10185D02*
X10480Y102133D01*
X7134D02*
X10480D01*
X736Y60401D02*
X736Y99771D01*
X140626Y50842D02*
X156669D01*
X115331D02*
X131374D01*
X115331Y31157D02*
Y50842D01*
X140626Y31157D02*
X156669D01*
X115331D02*
X131374D01*
X156669D02*
Y50842D01*
X95559Y54528D02*
Y65970D01*
X104441Y54528D02*
Y65970D01*
X73905Y54414D02*
Y65856D01*
X82788Y54414D02*
Y65856D01*
X52645Y54414D02*
Y65856D01*
X61528Y54414D02*
Y65856D01*
X99331Y41722D02*
Y51400D01*
X90669Y41722D02*
Y51400D01*
X109781Y41722D02*
Y51400D01*
X101119Y41722D02*
Y51400D01*
X66978Y41608D02*
Y51286D01*
X58316Y41608D02*
Y51286D01*
X56467Y41608D02*
Y51286D01*
X47806Y41608D02*
Y51286D01*
X99197Y35860D02*
X101323D01*
X94276Y29561D02*
Y32671D01*
X102937Y29561D02*
X106244D01*
X94276D02*
X97583D01*
X106244D02*
Y32671D01*
X77784Y35746D02*
X79909D01*
X72862Y29446D02*
Y32557D01*
X81524Y29446D02*
X84831D01*
X72862D02*
X76169D01*
X84831D02*
Y32557D01*
X56524Y35746D02*
X58650D01*
X51602Y29446D02*
Y32557D01*
X60264Y29446D02*
X63571D01*
X51602D02*
X54909D01*
X63571D02*
Y32557D01*
X95244Y23248D02*
X105756D01*
X95244Y1752D02*
Y23248D01*
Y1752D02*
X105756D01*
Y23248D01*
X73590Y23134D02*
X84102D01*
X73590Y1638D02*
Y23134D01*
Y1638D02*
X84102D01*
Y23134D01*
X52331D02*
X62843D01*
X52331Y1638D02*
Y23134D01*
Y1638D02*
X62843D01*
Y23134D01*
M02*
