G04*
G04 #@! TF.GenerationSoftware,Altium Limited,Altium Designer,22.2.1 (43)*
G04*
G04 Layer_Physical_Order=2*
G04 Layer_Color=16711680*
%FSLAX25Y25*%
%MOIN*%
G70*
G04*
G04 #@! TF.SameCoordinates,3B3E58CF-1C3C-4CAC-96B8-8F734E900E2C*
G04*
G04*
G04 #@! TF.FilePolarity,Positive*
G04*
G01*
G75*
%ADD22C,0.06181*%
%ADD23R,0.06181X0.06181*%
%ADD24R,0.06181X0.06181*%
%ADD25C,0.06299*%
%ADD26R,0.06299X0.06299*%
%ADD30C,0.01575*%
%ADD31C,0.01181*%
%ADD32C,0.01000*%
%ADD33R,0.06102X0.06102*%
%ADD34C,0.06102*%
%ADD35C,0.07677*%
%ADD36R,0.07677X0.07677*%
%ADD37C,0.18898*%
%ADD38C,0.01575*%
G36*
X157480Y0D02*
X0D01*
Y157480D01*
X157480D01*
Y0D01*
D02*
G37*
%LPC*%
G36*
X146486Y156043D02*
X144853D01*
X143240Y155788D01*
X141687Y155283D01*
X140232Y154542D01*
X138911Y153582D01*
X137756Y152427D01*
X136797Y151107D01*
X136055Y149652D01*
X135551Y148099D01*
X135295Y146486D01*
Y144853D01*
X135551Y143240D01*
X136055Y141687D01*
X136797Y140232D01*
X137756Y138911D01*
X138911Y137756D01*
X140232Y136797D01*
X141687Y136055D01*
X143240Y135551D01*
X144853Y135295D01*
X146486D01*
X148099Y135551D01*
X149652Y136055D01*
X151107Y136797D01*
X152427Y137756D01*
X153582Y138911D01*
X154542Y140232D01*
X155283Y141687D01*
X155788Y143240D01*
X156043Y144853D01*
Y146486D01*
X155788Y148099D01*
X155283Y149652D01*
X154542Y151107D01*
X153582Y152427D01*
X152427Y153582D01*
X151107Y154542D01*
X149652Y155283D01*
X148099Y155788D01*
X146486Y156043D01*
D02*
G37*
G36*
X12628D02*
X10995D01*
X9382Y155788D01*
X7829Y155283D01*
X6374Y154542D01*
X5053Y153582D01*
X3898Y152427D01*
X2938Y151107D01*
X2197Y149652D01*
X1692Y148099D01*
X1437Y146486D01*
Y144853D01*
X1692Y143240D01*
X2197Y141687D01*
X2938Y140232D01*
X3898Y138911D01*
X5053Y137756D01*
X6374Y136797D01*
X7829Y136055D01*
X9382Y135551D01*
X10995Y135295D01*
X12628D01*
X14240Y135551D01*
X15793Y136055D01*
X17248Y136797D01*
X18569Y137756D01*
X19724Y138911D01*
X20684Y140232D01*
X21425Y141687D01*
X21930Y143240D01*
X22185Y144853D01*
Y146486D01*
X21930Y148099D01*
X21425Y149652D01*
X20684Y151107D01*
X19724Y152427D01*
X18569Y153582D01*
X17248Y154542D01*
X15793Y155283D01*
X14240Y155788D01*
X12628Y156043D01*
D02*
G37*
G36*
X151533Y134128D02*
X151500D01*
Y130577D01*
X155051D01*
Y130610D01*
X154775Y131641D01*
X154242Y132564D01*
X153488Y133319D01*
X152564Y133852D01*
X151533Y134128D01*
D02*
G37*
G36*
X150500D02*
X150467D01*
X149436Y133852D01*
X148512Y133319D01*
X147758Y132564D01*
X147225Y131641D01*
X146949Y130610D01*
Y130577D01*
X150500D01*
Y134128D01*
D02*
G37*
G36*
X141524Y134053D02*
X140477D01*
X139465Y133782D01*
X138558Y133259D01*
X137818Y132518D01*
X137295Y131612D01*
X137024Y130600D01*
Y129553D01*
X137291Y128554D01*
X135476Y126739D01*
X134976Y126946D01*
Y134053D01*
X127024D01*
Y126349D01*
X89764D01*
X89172Y126231D01*
X88671Y125896D01*
X55282Y92507D01*
X54947Y92005D01*
X54829Y91414D01*
Y79349D01*
X54329Y79087D01*
X53884Y79272D01*
X53203D01*
X52894Y79685D01*
Y79868D01*
X52633Y80498D01*
X52151Y80979D01*
X51522Y81240D01*
X50840D01*
X50211Y80979D01*
X49729Y80498D01*
X49468Y79868D01*
Y79187D01*
X49728Y78561D01*
Y70472D01*
X49839Y69916D01*
X50154Y69445D01*
X65561Y54038D01*
Y44359D01*
X65301Y43732D01*
Y43051D01*
X65562Y42422D01*
X66044Y41940D01*
X66673Y41679D01*
X67354D01*
X67984Y41940D01*
X68466Y42422D01*
X68726Y43051D01*
Y43732D01*
X68467Y44359D01*
Y54640D01*
X68438Y54784D01*
X68899Y55030D01*
X81565Y42364D01*
X82036Y42049D01*
X82592Y41939D01*
X86913D01*
X87539Y41679D01*
X88221D01*
X88850Y41940D01*
X89332Y42422D01*
X89592Y43051D01*
Y43732D01*
X89332Y44362D01*
X88850Y44844D01*
X88221Y45104D01*
X87539D01*
X86913Y44845D01*
X83194D01*
X54996Y73043D01*
Y74212D01*
X55496Y74463D01*
X55959Y74272D01*
X56640D01*
X57269Y74532D01*
X57751Y75014D01*
X58012Y75644D01*
Y76325D01*
X57920Y76547D01*
Y90774D01*
X69022Y101876D01*
X69484Y101685D01*
Y95484D01*
X77516D01*
Y103516D01*
X71315D01*
X71124Y103978D01*
X90404Y123258D01*
X126608D01*
X127024Y123053D01*
X127024Y122758D01*
Y115100D01*
X134976D01*
Y122758D01*
X134976Y123053D01*
X135392Y123258D01*
X135726D01*
X136318Y123375D01*
X136819Y123710D01*
X139477Y126368D01*
X140477Y126100D01*
X141524D01*
X142535Y126371D01*
X143442Y126895D01*
X144182Y127635D01*
X144705Y128542D01*
X144976Y129553D01*
Y130600D01*
X144705Y131612D01*
X144182Y132518D01*
X143442Y133259D01*
X142535Y133782D01*
X141524Y134053D01*
D02*
G37*
G36*
X155051Y129577D02*
X151500D01*
Y126026D01*
X151533D01*
X152564Y126302D01*
X153488Y126835D01*
X154242Y127589D01*
X154775Y128513D01*
X155051Y129543D01*
Y129577D01*
D02*
G37*
G36*
X150500D02*
X146949D01*
Y129543D01*
X147225Y128513D01*
X147758Y127589D01*
X148512Y126835D01*
X149436Y126302D01*
X150467Y126026D01*
X150500D01*
Y129577D01*
D02*
G37*
G36*
X151533Y123128D02*
X151500D01*
Y119577D01*
X155051D01*
Y119610D01*
X154775Y120641D01*
X154242Y121564D01*
X153488Y122319D01*
X152564Y122852D01*
X151533Y123128D01*
D02*
G37*
G36*
X150500D02*
X150467D01*
X149436Y122852D01*
X148512Y122319D01*
X147758Y121564D01*
X147225Y120641D01*
X146949Y119610D01*
Y119577D01*
X150500D01*
Y123128D01*
D02*
G37*
G36*
X141524Y123053D02*
X140477D01*
X139465Y122782D01*
X138558Y122259D01*
X137818Y121518D01*
X137295Y120612D01*
X137024Y119600D01*
Y118553D01*
X137295Y117542D01*
X137818Y116635D01*
X138558Y115895D01*
X139465Y115371D01*
X140477Y115100D01*
X141524D01*
X142535Y115371D01*
X143442Y115895D01*
X144182Y116635D01*
X144705Y117542D01*
X144976Y118553D01*
Y119600D01*
X144705Y120612D01*
X144182Y121518D01*
X143442Y122259D01*
X142535Y122782D01*
X141524Y123053D01*
D02*
G37*
G36*
X155051Y118577D02*
X151500D01*
Y115026D01*
X151533D01*
X152564Y115302D01*
X153488Y115835D01*
X154242Y116589D01*
X154775Y117513D01*
X155051Y118544D01*
Y118577D01*
D02*
G37*
G36*
X150500D02*
X146949D01*
Y118544D01*
X147225Y117513D01*
X147758Y116589D01*
X148512Y115835D01*
X149436Y115302D01*
X150467Y115026D01*
X150500D01*
Y118577D01*
D02*
G37*
G36*
X151533Y112051D02*
X151500D01*
Y108500D01*
X155051D01*
Y108533D01*
X154775Y109564D01*
X154242Y110487D01*
X153488Y111242D01*
X152564Y111775D01*
X151533Y112051D01*
D02*
G37*
G36*
X150500D02*
X150467D01*
X149436Y111775D01*
X148512Y111242D01*
X147758Y110487D01*
X147225Y109564D01*
X146949Y108533D01*
Y108500D01*
X150500D01*
Y112051D01*
D02*
G37*
G36*
X141524Y111976D02*
X140477D01*
X139465Y111705D01*
X138558Y111182D01*
X137818Y110442D01*
X137295Y109535D01*
X137024Y108523D01*
Y107476D01*
X137295Y106465D01*
X137818Y105558D01*
X138558Y104818D01*
X139465Y104295D01*
X140477Y104024D01*
X141524D01*
X142535Y104295D01*
X143442Y104818D01*
X144182Y105558D01*
X144705Y106465D01*
X144976Y107476D01*
Y108523D01*
X144705Y109535D01*
X144182Y110442D01*
X143442Y111182D01*
X142535Y111705D01*
X141524Y111976D01*
D02*
G37*
G36*
X134976D02*
X127024D01*
Y104024D01*
X134976D01*
Y111976D01*
D02*
G37*
G36*
X155051Y107500D02*
X151500D01*
Y103949D01*
X151533D01*
X152564Y104225D01*
X153488Y104758D01*
X154242Y105512D01*
X154775Y106436D01*
X155051Y107467D01*
Y107500D01*
D02*
G37*
G36*
X150500D02*
X146949D01*
Y107467D01*
X147225Y106436D01*
X147758Y105512D01*
X148512Y104758D01*
X149436Y104225D01*
X150467Y103949D01*
X150500D01*
Y107500D01*
D02*
G37*
G36*
X84029Y103516D02*
X82971D01*
X81950Y103242D01*
X81034Y102713D01*
X80287Y101966D01*
X79758Y101050D01*
X79484Y100029D01*
Y98971D01*
X79758Y97950D01*
X80287Y97034D01*
X81034Y96287D01*
X81950Y95758D01*
X82971Y95484D01*
X84029D01*
X85050Y95758D01*
X85966Y96287D01*
X86713Y97034D01*
X87242Y97950D01*
X87516Y98971D01*
Y100029D01*
X87242Y101050D01*
X86713Y101966D01*
X85966Y102713D01*
X85050Y103242D01*
X84029Y103516D01*
D02*
G37*
G36*
X18492Y94693D02*
X8964D01*
Y85165D01*
X18492D01*
Y94693D01*
D02*
G37*
G36*
X144399Y94693D02*
X143145D01*
X141933Y94368D01*
X140847Y93741D01*
X139960Y92854D01*
X139333Y91768D01*
X139008Y90556D01*
Y89302D01*
X139333Y88090D01*
X139960Y87004D01*
X140847Y86117D01*
X141933Y85490D01*
X143145Y85165D01*
X144399D01*
X145610Y85490D01*
X146697Y86117D01*
X147584Y87004D01*
X148211Y88090D01*
X148536Y89302D01*
Y90556D01*
X148211Y91768D01*
X147584Y92854D01*
X146697Y93741D01*
X145610Y94368D01*
X144399Y94693D01*
D02*
G37*
G36*
X42016Y88226D02*
X33984D01*
Y80195D01*
X42016D01*
Y88226D01*
D02*
G37*
G36*
X120038Y78301D02*
X120000D01*
Y74711D01*
X123591D01*
Y74749D01*
X123312Y75789D01*
X122773Y76722D01*
X122012Y77484D01*
X121079Y78022D01*
X120038Y78301D01*
D02*
G37*
G36*
X38539D02*
X38500D01*
Y74711D01*
X42091D01*
Y74749D01*
X41812Y75789D01*
X41273Y76722D01*
X40512Y77484D01*
X39579Y78022D01*
X38539Y78301D01*
D02*
G37*
G36*
X119000D02*
X118962D01*
X117921Y78022D01*
X116988Y77484D01*
X116227Y76722D01*
X115688Y75789D01*
X115409Y74749D01*
Y74711D01*
X119000D01*
Y78301D01*
D02*
G37*
G36*
X37500D02*
X37462D01*
X36421Y78022D01*
X35488Y77484D01*
X34727Y76722D01*
X34188Y75789D01*
X33909Y74749D01*
Y74711D01*
X37500D01*
Y78301D01*
D02*
G37*
G36*
X14365Y75083D02*
X14228D01*
Y70744D01*
X18567D01*
Y70881D01*
X18237Y72112D01*
X17600Y73215D01*
X16699Y74116D01*
X15596Y74753D01*
X14365Y75083D01*
D02*
G37*
G36*
X13228D02*
X13091D01*
X11861Y74753D01*
X10757Y74116D01*
X9856Y73215D01*
X9219Y72112D01*
X8890Y70881D01*
Y70744D01*
X13228D01*
Y75083D01*
D02*
G37*
G36*
X148610Y75083D02*
X144272D01*
Y70744D01*
X148610D01*
Y75083D01*
D02*
G37*
G36*
X143272D02*
X138933D01*
Y70744D01*
X143272D01*
Y75083D01*
D02*
G37*
G36*
X123591Y73711D02*
X120000D01*
Y70120D01*
X120038D01*
X121079Y70399D01*
X122012Y70937D01*
X122773Y71699D01*
X123312Y72632D01*
X123591Y73672D01*
Y73711D01*
D02*
G37*
G36*
X119000D02*
X115409D01*
Y73672D01*
X115688Y72632D01*
X116227Y71699D01*
X116988Y70937D01*
X117921Y70399D01*
X118962Y70120D01*
X119000D01*
Y73711D01*
D02*
G37*
G36*
X42091D02*
X38500D01*
Y70120D01*
X38539D01*
X39579Y70399D01*
X40512Y70937D01*
X41273Y71699D01*
X41812Y72632D01*
X42091Y73672D01*
Y73711D01*
D02*
G37*
G36*
X37500D02*
X33909D01*
Y73672D01*
X34188Y72632D01*
X34727Y71699D01*
X35488Y70937D01*
X36421Y70399D01*
X37462Y70120D01*
X37500D01*
Y73711D01*
D02*
G37*
G36*
X18567Y69744D02*
X14228D01*
Y65406D01*
X14365D01*
X15596Y65735D01*
X16699Y66372D01*
X17600Y67273D01*
X18237Y68376D01*
X18567Y69607D01*
Y69744D01*
D02*
G37*
G36*
X13228D02*
X8890D01*
Y69607D01*
X9219Y68376D01*
X9856Y67273D01*
X10757Y66372D01*
X11861Y65735D01*
X13091Y65406D01*
X13228D01*
Y69744D01*
D02*
G37*
G36*
X148610Y69744D02*
X144272D01*
Y65406D01*
X148610D01*
Y69744D01*
D02*
G37*
G36*
X143272D02*
X138933D01*
Y65406D01*
X143272D01*
Y69744D01*
D02*
G37*
G36*
X140150Y54992D02*
X136500D01*
Y51342D01*
X140150D01*
Y54992D01*
D02*
G37*
G36*
X135500D02*
X131850D01*
Y51342D01*
X135500D01*
Y54992D01*
D02*
G37*
G36*
X140150Y50343D02*
X136500D01*
Y46693D01*
X140150D01*
Y50343D01*
D02*
G37*
G36*
X135500D02*
X131850D01*
Y46693D01*
X135500D01*
Y50343D01*
D02*
G37*
G36*
X60577Y77697D02*
X59896D01*
X59266Y77436D01*
X58784Y76954D01*
X58524Y76325D01*
Y75644D01*
X58784Y75014D01*
X59266Y74532D01*
X59896Y74272D01*
X60577D01*
X61203Y74531D01*
X78532D01*
X109901Y43162D01*
X110160Y42536D01*
X110642Y42054D01*
X111272Y41793D01*
X111953D01*
X112582Y42054D01*
X113064Y42536D01*
X113325Y43165D01*
Y43847D01*
X113064Y44476D01*
X112582Y44958D01*
X111956Y45217D01*
X80161Y77012D01*
X79690Y77327D01*
X79134Y77437D01*
X61203D01*
X60577Y77697D01*
D02*
G37*
G36*
X92073Y96201D02*
X91392D01*
X90762Y95940D01*
X90280Y95458D01*
X90020Y94829D01*
Y94147D01*
X90280Y93518D01*
X90762Y93036D01*
X91166Y92869D01*
X100917Y83118D01*
X101418Y82783D01*
X102010Y82665D01*
X102010Y82665D01*
X115484D01*
Y80195D01*
X121046D01*
X126207Y75035D01*
Y39205D01*
X126339Y38537D01*
X126718Y37970D01*
X132151Y32537D01*
X131925Y31694D01*
Y30621D01*
X132203Y29585D01*
X132739Y28655D01*
X133498Y27897D01*
X134427Y27360D01*
X135464Y27083D01*
X136537D01*
X137573Y27360D01*
X138502Y27897D01*
X139261Y28655D01*
X139797Y29585D01*
X140075Y30621D01*
Y31694D01*
X139797Y32730D01*
X139261Y33659D01*
X138502Y34418D01*
X137573Y34955D01*
X136537Y35232D01*
X135464D01*
X134620Y35006D01*
X129699Y39928D01*
Y75758D01*
X129566Y76426D01*
X129188Y76993D01*
X123516Y82664D01*
Y88226D01*
X115484D01*
Y85756D01*
X102650D01*
X93351Y95055D01*
X93184Y95458D01*
X92702Y95940D01*
X92073Y96201D01*
D02*
G37*
G36*
X104516Y21516D02*
X96484D01*
Y13484D01*
X104516D01*
Y21516D01*
D02*
G37*
G36*
X82862Y21402D02*
X74831D01*
Y13370D01*
X82862D01*
Y21402D01*
D02*
G37*
G36*
X61602D02*
X53571D01*
Y13370D01*
X61602D01*
Y21402D01*
D02*
G37*
G36*
X101039Y11591D02*
X101000D01*
Y8000D01*
X104591D01*
Y8038D01*
X104312Y9079D01*
X103773Y10012D01*
X103012Y10773D01*
X102079Y11312D01*
X101039Y11591D01*
D02*
G37*
G36*
X100000D02*
X99962D01*
X98921Y11312D01*
X97988Y10773D01*
X97227Y10012D01*
X96688Y9079D01*
X96409Y8038D01*
Y8000D01*
X100000D01*
Y11591D01*
D02*
G37*
G36*
X79385Y11476D02*
X79347D01*
Y7886D01*
X82937D01*
Y7924D01*
X82658Y8965D01*
X82120Y9898D01*
X81358Y10659D01*
X80425Y11198D01*
X79385Y11476D01*
D02*
G37*
G36*
X58125D02*
X58087D01*
Y7886D01*
X61677D01*
Y7924D01*
X61398Y8965D01*
X60860Y9898D01*
X60098Y10659D01*
X59166Y11198D01*
X58125Y11476D01*
D02*
G37*
G36*
X78347D02*
X78308D01*
X77268Y11198D01*
X76335Y10659D01*
X75573Y9898D01*
X75035Y8965D01*
X74756Y7924D01*
Y7886D01*
X78347D01*
Y11476D01*
D02*
G37*
G36*
X57087D02*
X57048D01*
X56008Y11198D01*
X55075Y10659D01*
X54313Y9898D01*
X53775Y8965D01*
X53496Y7924D01*
Y7886D01*
X57087D01*
Y11476D01*
D02*
G37*
G36*
X104591Y7000D02*
X101000D01*
Y3409D01*
X101039D01*
X102079Y3688D01*
X103012Y4227D01*
X103773Y4988D01*
X104312Y5921D01*
X104591Y6961D01*
Y7000D01*
D02*
G37*
G36*
X100000D02*
X96409D01*
Y6961D01*
X96688Y5921D01*
X97227Y4988D01*
X97988Y4227D01*
X98921Y3688D01*
X99962Y3409D01*
X100000D01*
Y7000D01*
D02*
G37*
G36*
X82937Y6886D02*
X79347D01*
Y3295D01*
X79385D01*
X80425Y3574D01*
X81358Y4113D01*
X82120Y4874D01*
X82658Y5807D01*
X82937Y6847D01*
Y6886D01*
D02*
G37*
G36*
X78347D02*
X74756D01*
Y6847D01*
X75035Y5807D01*
X75573Y4874D01*
X76335Y4113D01*
X77268Y3574D01*
X78308Y3295D01*
X78347D01*
Y6886D01*
D02*
G37*
G36*
X61677D02*
X58087D01*
Y3295D01*
X58125D01*
X59166Y3574D01*
X60098Y4113D01*
X60860Y4874D01*
X61398Y5807D01*
X61677Y6847D01*
Y6886D01*
D02*
G37*
G36*
X57087D02*
X53496D01*
Y6847D01*
X53775Y5807D01*
X54313Y4874D01*
X55075Y4113D01*
X56008Y3574D01*
X57048Y3295D01*
X57087D01*
Y6886D01*
D02*
G37*
G36*
X146486Y22185D02*
X144853D01*
X143240Y21930D01*
X141687Y21425D01*
X140232Y20684D01*
X138911Y19724D01*
X137756Y18569D01*
X136797Y17248D01*
X136055Y15793D01*
X135551Y14240D01*
X135295Y12628D01*
Y10995D01*
X135551Y9382D01*
X136055Y7829D01*
X136797Y6374D01*
X137756Y5053D01*
X138911Y3898D01*
X140232Y2938D01*
X141687Y2197D01*
X143240Y1692D01*
X144853Y1437D01*
X146486D01*
X148099Y1692D01*
X149652Y2197D01*
X151107Y2938D01*
X152427Y3898D01*
X153582Y5053D01*
X154542Y6374D01*
X155283Y7829D01*
X155788Y9382D01*
X156043Y10995D01*
Y12628D01*
X155788Y14240D01*
X155283Y15793D01*
X154542Y17248D01*
X153582Y18569D01*
X152427Y19724D01*
X151107Y20684D01*
X149652Y21425D01*
X148099Y21930D01*
X146486Y22185D01*
D02*
G37*
G36*
X12628D02*
X10995D01*
X9382Y21930D01*
X7829Y21425D01*
X6374Y20684D01*
X5053Y19724D01*
X3898Y18569D01*
X2938Y17248D01*
X2197Y15793D01*
X1692Y14240D01*
X1437Y12628D01*
Y10995D01*
X1692Y9382D01*
X2197Y7829D01*
X2938Y6374D01*
X3898Y5053D01*
X5053Y3898D01*
X6374Y2938D01*
X7829Y2197D01*
X9382Y1692D01*
X10995Y1437D01*
X12628D01*
X14240Y1692D01*
X15793Y2197D01*
X17248Y2938D01*
X18569Y3898D01*
X19724Y5053D01*
X20684Y6374D01*
X21425Y7829D01*
X21930Y9382D01*
X22185Y10995D01*
Y12628D01*
X21930Y14240D01*
X21425Y15793D01*
X20684Y17248D01*
X19724Y18569D01*
X18569Y19724D01*
X17248Y20684D01*
X15793Y21425D01*
X14240Y21930D01*
X12628Y22185D01*
D02*
G37*
%LPD*%
D22*
X119500Y74211D02*
D03*
X83500Y99500D02*
D03*
X38000Y74211D02*
D03*
X100500Y7500D02*
D03*
X78847Y7386D02*
D03*
X57587D02*
D03*
D23*
X119500Y84211D02*
D03*
X38000D02*
D03*
X100500Y17500D02*
D03*
X78847Y17386D02*
D03*
X57587D02*
D03*
D24*
X73500Y99500D02*
D03*
D25*
X136000Y31157D02*
D03*
D26*
Y50842D02*
D03*
D30*
X127953Y39205D02*
X136000Y31157D01*
X127953Y39205D02*
Y75758D01*
X119500Y84211D02*
X127953Y75758D01*
D31*
X102010Y84211D02*
X119500D01*
X91732Y94488D02*
X102010Y84211D01*
X56375Y91414D02*
X89764Y124803D01*
X56375Y76060D02*
Y91414D01*
X89764Y124803D02*
X135726D01*
X56299Y75984D02*
X56375Y76060D01*
X135726Y124803D02*
X141000Y130077D01*
D32*
X53543Y72441D02*
Y77559D01*
Y72441D02*
X82592Y43392D01*
X87880D01*
X51181Y70472D02*
X67014Y54640D01*
Y43392D02*
Y54640D01*
X51181Y70472D02*
Y79528D01*
X60236Y75984D02*
X79134D01*
X111612Y43506D01*
D33*
X131000Y108000D02*
D03*
Y119077D02*
D03*
Y130077D02*
D03*
D34*
X141000Y108000D02*
D03*
X151000D02*
D03*
X141000Y119077D02*
D03*
X151000D02*
D03*
X141000Y130077D02*
D03*
X151000D02*
D03*
D35*
X143772Y89929D02*
D03*
X13728Y70244D02*
D03*
D36*
X143772Y70244D02*
D03*
X13728Y89929D02*
D03*
D37*
X145669Y11811D02*
D03*
X11811D02*
D03*
X145669Y145669D02*
D03*
X11811D02*
D03*
D38*
X91732Y94488D02*
D03*
X56299Y75984D02*
D03*
X53543Y77559D02*
D03*
X51181Y79528D02*
D03*
X60236Y75984D02*
D03*
X67014Y43392D02*
D03*
X87880D02*
D03*
X111612Y43506D02*
D03*
M02*
