G04*
G04 #@! TF.GenerationSoftware,Altium Limited,Altium Designer,22.2.1 (43)*
G04*
G04 Layer_Color=16711935*
%FSLAX25Y25*%
%MOIN*%
G70*
G04*
G04 #@! TF.SameCoordinates,3B3E58CF-1C3C-4CAC-96B8-8F734E900E2C*
G04*
G04*
G04 #@! TF.FilePolarity,Negative*
G04*
G01*
G75*
%ADD18R,0.06902X0.06902*%
%ADD19C,0.06902*%
%ADD20C,0.08477*%
%ADD21R,0.08477X0.08477*%
%ADD22C,0.06181*%
%ADD23R,0.06181X0.06181*%
%ADD24R,0.06181X0.06181*%
%ADD25C,0.06299*%
%ADD26R,0.06299X0.06299*%
%ADD27C,0.19698*%
%ADD28C,0.02375*%
D18*
X131000Y108000D02*
D03*
Y119077D02*
D03*
Y130077D02*
D03*
D19*
X141000Y108000D02*
D03*
X151000D02*
D03*
X141000Y119077D02*
D03*
X151000D02*
D03*
X141000Y130077D02*
D03*
X151000D02*
D03*
D20*
X143772Y89929D02*
D03*
X13728Y70244D02*
D03*
D21*
X143772Y70244D02*
D03*
X13728Y89929D02*
D03*
D22*
X119500Y74211D02*
D03*
X83500Y99500D02*
D03*
X38000Y74211D02*
D03*
X100500Y7500D02*
D03*
X78847Y7386D02*
D03*
X57587D02*
D03*
D23*
X119500Y84211D02*
D03*
X38000D02*
D03*
X100500Y17500D02*
D03*
X78847Y17386D02*
D03*
X57587D02*
D03*
D24*
X73500Y99500D02*
D03*
D25*
X136000Y31157D02*
D03*
D26*
Y50842D02*
D03*
D27*
X145669Y11811D02*
D03*
X11811D02*
D03*
X145669Y145669D02*
D03*
X11811D02*
D03*
D28*
X91732Y94488D02*
D03*
X56299Y75984D02*
D03*
X53543Y77559D02*
D03*
X51181Y79528D02*
D03*
X60236Y75984D02*
D03*
X67014Y43392D02*
D03*
X87880D02*
D03*
X111612Y43506D02*
D03*
M02*
