M48
;Layer_Color=9474304
;FILE_FORMAT=2:4
INCH,TZ
;TYPE=PLATED
T1F00S00C0.0079
T2F00S00C0.0402
T3F00S00C0.0413
T4F00S00C0.0512
T5F00S00C0.1181
%
T01
X6701Y4339
X8788
X11161Y4351
X9173Y9449
X6024Y7598
X5630
X5354Y7756
X5118Y7953
T02
X5759Y739
Y1739
X7885
Y739
X10050Y750
Y1750
X11950Y7421
Y8421
X13100Y10800
X14100
X15100
Y11908
X14100
X13100
Y13008
X14100
X15100
X8350Y9950
X7350
X3800Y8421
Y7421
T03
X13600Y3116
Y5084
T04
X14377Y7024
Y8993
X1373Y8993
Y7024
T05
X1181Y1181
X14567
Y14567
X1181
M30
