G04*
G04 #@! TF.GenerationSoftware,Altium Limited,Altium Designer,22.2.1 (43)*
G04*
G04 Layer_Color=8388736*
%FSLAX25Y25*%
%MOIN*%
G70*
G04*
G04 #@! TF.SameCoordinates,3B3E58CF-1C3C-4CAC-96B8-8F734E900E2C*
G04*
G04*
G04 #@! TF.FilePolarity,Negative*
G04*
G01*
G75*
%ADD12R,0.08071X0.04331*%
%ADD13R,0.05151X0.03567*%
%ADD14R,0.02402X0.04961*%
%ADD15R,0.05733X0.04940*%
%ADD16O,0.10839X0.02375*%
%ADD17C,0.05563*%
%ADD18R,0.06902X0.06902*%
%ADD19C,0.06902*%
%ADD20C,0.08477*%
%ADD21R,0.08477X0.08477*%
%ADD22C,0.06181*%
%ADD23R,0.06181X0.06181*%
%ADD24R,0.06181X0.06181*%
%ADD25C,0.06299*%
%ADD26R,0.06299X0.06299*%
%ADD27C,0.19698*%
%ADD28C,0.02375*%
G36*
X75563Y129732D02*
Y125008D01*
X71134D01*
X66508Y130126D01*
Y134063D01*
X71232D01*
X75563Y129732D01*
D02*
G37*
G36*
Y146268D02*
X71232Y141937D01*
X66508D01*
Y146366D01*
X71626Y150992D01*
X75563D01*
Y146268D01*
D02*
G37*
G36*
X92492Y130126D02*
X87866Y125008D01*
X83437D01*
Y129732D01*
X87768Y134063D01*
X92492D01*
Y130126D01*
D02*
G37*
G36*
Y145874D02*
Y141937D01*
X87768D01*
X83437Y146268D01*
Y150992D01*
X87866D01*
X92492Y145874D01*
D02*
G37*
D12*
X57087Y131504D02*
D03*
Y144496D02*
D03*
D13*
X83846Y43392D02*
D03*
Y49503D02*
D03*
X73397Y43392D02*
D03*
Y49503D02*
D03*
X71500Y116055D02*
D03*
Y109945D02*
D03*
X98500Y134945D02*
D03*
Y141055D02*
D03*
X95000Y43506D02*
D03*
Y49617D02*
D03*
X105450Y43506D02*
D03*
Y49617D02*
D03*
X62647Y43392D02*
D03*
Y49503D02*
D03*
X52137Y43392D02*
D03*
Y49503D02*
D03*
D14*
X82308Y109083D02*
D03*
X78568Y116917D02*
D03*
X86048D02*
D03*
X100260Y28793D02*
D03*
X96520Y36628D02*
D03*
X104000D02*
D03*
X78847Y28679D02*
D03*
X75106Y36513D02*
D03*
X82587D02*
D03*
X57587Y28679D02*
D03*
X53847Y36513D02*
D03*
X61327D02*
D03*
D15*
X108560Y134749D02*
D03*
Y141251D02*
D03*
X118731Y134749D02*
D03*
Y141251D02*
D03*
X57000Y101751D02*
D03*
Y95249D02*
D03*
X100000Y63500D02*
D03*
Y56998D02*
D03*
X78347Y63386D02*
D03*
Y56884D02*
D03*
X57087Y63386D02*
D03*
Y56884D02*
D03*
D16*
X88077Y70948D02*
D03*
Y73448D02*
D03*
Y75948D02*
D03*
Y78448D02*
D03*
Y80948D02*
D03*
Y83448D02*
D03*
Y85948D02*
D03*
Y88448D02*
D03*
X68983Y70948D02*
D03*
Y73448D02*
D03*
Y75948D02*
D03*
Y78448D02*
D03*
Y80948D02*
D03*
Y83448D02*
D03*
Y85948D02*
D03*
Y88448D02*
D03*
D17*
X71141Y129609D02*
D03*
X87859D02*
D03*
Y146391D02*
D03*
X71109Y146359D02*
D03*
D18*
X131000Y108000D02*
D03*
Y119077D02*
D03*
Y130077D02*
D03*
D19*
X141000Y108000D02*
D03*
X151000D02*
D03*
X141000Y119077D02*
D03*
X151000D02*
D03*
X141000Y130077D02*
D03*
X151000D02*
D03*
D20*
X143772Y89929D02*
D03*
X13728Y70244D02*
D03*
D21*
X143772Y70244D02*
D03*
X13728Y89929D02*
D03*
D22*
X119500Y74211D02*
D03*
X83500Y99500D02*
D03*
X38000Y74211D02*
D03*
X100500Y7500D02*
D03*
X78847Y7386D02*
D03*
X57587D02*
D03*
D23*
X119500Y84211D02*
D03*
X38000D02*
D03*
X100500Y17500D02*
D03*
X78847Y17386D02*
D03*
X57587D02*
D03*
D24*
X73500Y99500D02*
D03*
D25*
X136000Y31157D02*
D03*
D26*
Y50842D02*
D03*
D27*
X145669Y11811D02*
D03*
X11811D02*
D03*
X145669Y145669D02*
D03*
X11811D02*
D03*
D28*
X91732Y94488D02*
D03*
X56299Y75984D02*
D03*
X53543Y77559D02*
D03*
X51181Y79528D02*
D03*
X60236Y75984D02*
D03*
X67014Y43392D02*
D03*
X87880D02*
D03*
X111612Y43506D02*
D03*
M02*
